M48
; DRILL file {KiCad (5.1.0)-1} date 04/04/2019 19:00:41
; FORMAT={-:-/ absolute / metric / decimal}
; #@! TF.CreationDate,2019-04-04T19:00:41+01:00
; #@! TF.GenerationSoftware,Kicad,Pcbnew,(5.1.0)-1
FMAT,2
METRIC
T1C0.300
T2C0.500
T3C0.600
T4C0.800
T5C0.900
T6C0.950
T7C1.000
T8C1.600
T9C2.300
T10C4.000
T11C2.000
T12C3.200
%
G90
G05
T1
X2.0Y98.0
X2.0Y92.0
X3.25Y34.5
X4.9Y12.8
X5.715Y14.986
X8.0Y98.0
X8.5Y90.0
X10.3Y15.0
X10.8Y1.7
X11.43Y53.213
X12.8Y10.6
X12.827Y8.382
X14.224Y16.51
X14.45Y63.4
X14.5Y81.3
X14.5Y77.6
X14.5Y55.0
X15.24Y87.884
X15.4Y14.8
X15.5Y31.75
X15.5Y28.45
X15.5Y25.15
X15.5Y21.85
X15.5Y18.7
X15.875Y7.493
X16.1Y59.05
X16.35Y70.7
X16.5Y72.85
X16.571Y67.511
X16.7Y33.4
X16.75Y81.05
X18.55Y64.1
X18.709Y48.182
X19.0Y79.25
X19.177Y25.781
X19.177Y22.733
X19.75Y38.0
X20.4Y91.0
X20.55Y81.5
X20.701Y29.083
X20.701Y2.286
X20.828Y73.66
X20.828Y70.104
X20.828Y35.052
X20.828Y7.493
X21.844Y72.136
X21.844Y66.04
X22.098Y3.556
X22.225Y8.636
X22.4Y76.7
X22.624Y24.257
X23.0Y39.5
X23.3Y67.45
X23.495Y7.366
X23.622Y2.286
X23.75Y71.65
X23.8Y76.6
X23.844Y80.764
X24.214Y30.59
X24.4Y85.4
X24.4Y74.1
X24.488Y44.647
X24.674Y58.955
X25.0Y63.0
X25.0Y62.0
X25.0Y61.0
X25.019Y8.636
X25.2Y59.7
X25.2Y18.9
X25.876Y57.975
X25.9Y58.9
X25.908Y33.02
X26.0Y63.0
X26.289Y29.083
X26.289Y7.366
X26.594Y36.562
X27.089Y86.784
X27.4Y85.35
X27.4Y79.2
X27.4Y72.75
X27.4Y65.25
X27.4Y60.85
X28.25Y49.75
X28.321Y33.02
X29.384Y55.088
X29.4Y10.7
X29.5Y61.75
X30.0Y81.5
X30.5Y91.5
X30.6Y77.65
X30.795Y47.227
X31.05Y83.1
X31.496Y36.576
X31.5Y66.4
X31.7Y11.8
X31.7Y8.3
X31.8Y60.3
X32.0Y80.85
X32.2Y28.6
X32.42Y34.3
X32.421Y50.435
X32.5Y61.75
X32.5Y17.0
X32.766Y14.478
X32.9Y85.6
X32.9Y26.15
X33.0Y46.25
X33.528Y12.954
X33.594Y34.3
X34.478Y26.78
X34.55Y65.25
X35.306Y88.9
X35.4Y43.8
X35.5Y61.75
X35.687Y30.226
X35.879Y33.345
X35.95Y60.35
X36.05Y76.85
X36.55Y85.45
X36.7Y10.4
X36.8Y36.6
X37.1Y60.3
X37.592Y27.94
X37.75Y75.9
X37.75Y61.75
X37.8Y17.0
X37.9Y66.4
X38.0Y11.6
X38.1Y1.524
X38.5Y77.65
X39.0Y40.25
X39.6Y29.6
X39.6Y28.6
X39.624Y30.48
X39.814Y3.111
X39.85Y75.4
X40.0Y54.5
X40.0Y7.9
X40.35Y58.1
X40.95Y70.85
X41.0Y67.7
X42.2Y37.6
X43.1Y70.85
X43.1Y67.7
X43.2Y46.4
X43.4Y58.3
X43.53Y54.307
X43.55Y77.55
X43.6Y49.1
X44.069Y2.159
X44.25Y18.75
X45.2Y85.7
X45.4Y46.6
X45.75Y40.5
X45.75Y36.95
X47.18Y50.419
X47.371Y2.286
X47.625Y52.07
X47.85Y80.05
X48.0Y21.9
X48.2Y77.05
X48.24Y37.643
X48.26Y46.228
X48.6Y62.4
X48.768Y3.556
X48.895Y8.636
X49.495Y38.664
X49.7Y73.8
X49.8Y71.6
X49.926Y25.691
X50.0Y59.0
X50.165Y7.366
X50.228Y33.02
X50.292Y2.286
X50.5Y18.75
X51.148Y45.335
X51.245Y50.47
X51.371Y51.816
X51.5Y52.75
X51.6Y85.5
X51.689Y8.636
X51.689Y7.366
X51.95Y81.1
X52.0Y24.1
X52.75Y57.5
X52.8Y52.9
X52.959Y7.366
X53.0Y62.1
X53.34Y64.579
X53.8Y26.2
X54.038Y44.196
X54.038Y43.37
X54.5Y31.0
X54.6Y25.2
X54.75Y51.25
X55.15Y33.15
X55.6Y24.9
X55.7Y24.0
X56.0Y78.9
X56.4Y23.4
X57.2Y24.3
X57.6Y77.7
X57.64Y27.797
X57.65Y51.9
X58.0Y32.486
X58.005Y90.18
X58.25Y43.75
X58.644Y30.844
X58.989Y54.085
X59.0Y9.75
X59.365Y58.011
X59.6Y21.4
X59.7Y69.0
X59.7Y38.6
X59.701Y27.533
X59.712Y26.108
X60.642Y10.287
X60.75Y3.0
X60.9Y80.5
X61.0Y36.4
X61.15Y43.688
X61.976Y67.564
X62.75Y16.0
X63.06Y29.039
X63.144Y26.822
X63.6Y23.8
X63.691Y10.287
X64.2Y39.0
X64.298Y33.477
X64.3Y20.7
X64.75Y69.2
X64.897Y29.337
X64.897Y26.67
X65.65Y14.3
X66.7Y84.35
X66.7Y33.479
X66.85Y82.55
X67.056Y22.098
X67.1Y20.7
X67.2Y13.25
X67.945Y17.526
X68.0Y8.5
X68.008Y54.673
X68.193Y53.462
X68.65Y69.9
X68.77Y50.165
X69.45Y68.6
X69.45Y66.55
X69.45Y63.05
X69.659Y31.559
X69.787Y22.098
X69.9Y20.7
X70.2Y16.7
X70.546Y37.45
X70.675Y41.675
X71.501Y17.249
X71.7Y12.9
X71.867Y62.669
X72.4Y60.0
X72.423Y17.677
X72.705Y22.208
X72.95Y84.35
X72.95Y68.35
X73.0Y12.7
X73.1Y59.2
X73.148Y62.663
X73.35Y36.35
X73.848Y22.208
X73.85Y72.7
X73.93Y17.293
X74.092Y33.401
X74.3Y29.3
X74.3Y12.9
X74.4Y26.6
X74.8Y22.2
X75.0Y9.0
X75.184Y6.985
X75.55Y40.05
X75.9Y12.7
X76.05Y70.15
X76.3Y84.35
X76.352Y23.841
X76.352Y29.441
X76.363Y27.028
X76.45Y71.7
X76.5Y13.3
X76.896Y51.164
X76.95Y62.35
X76.962Y41.783
X77.1Y13.9
X77.153Y45.72
X77.4Y16.2
X77.47Y34.861
X77.7Y14.5
X77.843Y39.962
X77.851Y41.084
X78.5Y14.6
X78.613Y49.721
X78.732Y45.847
X79.0Y35.6
X79.0Y9.75
X79.4Y1.9
X79.45Y79.65
X79.527Y54.102
X79.593Y84.368
X79.698Y31.344
X79.7Y35.0
X79.707Y33.661
X79.864Y45.21
X79.9Y16.2
X79.947Y38.227
X80.0Y20.8
X80.1Y34.3
X80.136Y32.452
X80.452Y30.844
X80.544Y66.069
X80.9Y62.75
X81.0Y73.3
X81.2Y9.7
X81.3Y74.55
X81.3Y71.45
X81.468Y30.844
X81.468Y29.828
X81.5Y25.6
X81.661Y27.495
X82.0Y12.75
X82.3Y69.3
X82.359Y23.177
X82.7Y1.9
X82.72Y30.774
X83.2Y9.7
X83.35Y68.05
X83.439Y39.116
X83.6Y61.2
X83.757Y42.989
X83.95Y64.45
X84.2Y4.8
X85.344Y39.116
X85.5Y1.4
X85.95Y54.15
X85.95Y51.2
X85.95Y48.2
X85.985Y57.327
X87.1Y27.6
X87.1Y4.8
X87.1Y2.6
X87.1Y1.5
X87.162Y44.167
X87.6Y7.0
X87.6Y6.1
X87.884Y70.231
X88.8Y7.0
X88.8Y6.1
X88.8Y1.4
X89.4Y56.5
X90.1Y6.1
X90.4Y4.8
X90.4Y2.6
X90.75Y98.25
X91.2Y6.8
X95.0Y58.5
X95.0Y54.6
X97.1Y17.65
X97.85Y11.35
X98.25Y98.25
X98.25Y90.75
X98.25Y8.5
X98.25Y1.5
T2
X69.168Y59.719
X78.621Y68.069
T3
X67.707Y28.832
X67.707Y24.832
X71.707Y28.832
X71.707Y24.832
T4
X44.92Y15.858
X48.42Y15.858
X19.266Y15.858
X22.766Y15.858
X55.072Y4.428
X57.572Y4.428
X53.04Y15.858
X55.54Y15.858
X63.801Y78.205
X63.801Y73.325
X30.861Y70.739
X30.861Y68.199
X33.401Y70.739
X33.401Y68.199
X35.941Y70.739
X35.941Y68.199
X38.481Y70.739
X38.481Y68.199
X35.7Y57.0
X35.7Y54.5
X20.965Y56.831
X20.965Y51.951
X28.89Y5.742
X28.89Y3.242
X12.192Y74.422
X12.192Y71.882
X12.192Y69.342
X12.192Y66.802
X14.732Y74.422
X14.732Y71.882
X14.732Y69.342
X14.732Y66.802
X58.166Y48.474
X58.166Y45.974
X44.216Y64.516
X46.716Y64.516
X70.358Y81.367
X70.358Y78.867
X27.386Y15.858
X29.886Y15.858
T5
X83.9Y84.445
X83.9Y81.905
X83.9Y79.365
X83.9Y76.825
X86.44Y83.175
X86.44Y80.635
X86.44Y78.095
X86.44Y75.555
X96.17Y86.325
X96.17Y76.215
X97.69Y83.785
X97.69Y73.675
T6
X92.31Y16.744
X92.31Y14.244
X94.31Y16.744
X94.31Y14.244
T7
X88.834Y34.146
X91.374Y34.146
X88.834Y36.686
X91.374Y36.686
X10.602Y23.478
X71.308Y89.264
X77.931Y4.334
X49.227Y87.864
X51.767Y87.864
X3.175Y85.725
X3.175Y83.185
X3.175Y80.645
X3.175Y78.105
X3.175Y75.565
X3.175Y73.025
X5.715Y85.725
X5.715Y83.185
X5.715Y80.645
X5.715Y78.105
X5.715Y75.565
X5.715Y73.025
X18.4Y28.2
X10.602Y33.384
X73.914Y96.647
X73.914Y94.107
X76.454Y96.647
X76.454Y94.107
X78.994Y96.647
X78.994Y94.107
X81.534Y96.647
X81.534Y94.107
X84.074Y96.647
X84.074Y94.107
X74.61Y89.264
X88.834Y31.606
X91.374Y31.606
X10.602Y26.78
X37.338Y96.647
X37.338Y94.107
X39.878Y96.647
X39.878Y94.107
X42.418Y96.647
X42.418Y94.107
X44.958Y96.647
X44.958Y94.107
X61.734Y89.104
X61.734Y86.564
X61.734Y84.024
X43.6Y83.1
X54.434Y87.864
X56.974Y87.864
X68.006Y89.264
X2.35Y12.036
X2.35Y9.496
X19.653Y46.525
X22.193Y46.525
X91.79Y66.137
X91.79Y63.597
X91.79Y61.057
X10.602Y20.176
X91.79Y51.913
X91.79Y49.373
X91.79Y46.833
X3.175Y29.083
X3.175Y26.543
X3.175Y24.003
X3.175Y21.463
X3.175Y18.923
X5.715Y29.083
X5.715Y26.543
X5.715Y24.003
X5.715Y21.463
X5.715Y18.923
X77.912Y89.264
X13.97Y96.647
X13.97Y94.107
X16.51Y96.647
X16.51Y94.107
X19.05Y96.647
X19.05Y94.107
X21.59Y96.647
X21.59Y94.107
X24.13Y96.647
X24.13Y94.107
X26.67Y96.647
X26.67Y94.107
X13.97Y37.592
X16.51Y37.592
X10.602Y30.082
X55.626Y96.647
X55.626Y94.107
X58.166Y96.647
X58.166Y94.107
X60.706Y96.647
X60.706Y94.107
X63.246Y96.647
X63.246Y94.107
X88.834Y29.066
X91.374Y29.066
X81.214Y89.264
X3.429Y62.611
X3.429Y60.071
X3.429Y57.531
X3.429Y54.991
X3.429Y52.451
X3.429Y49.911
X3.429Y47.371
X3.429Y44.831
X3.429Y42.291
X3.429Y39.751
X5.969Y62.611
X5.969Y60.071
X5.969Y57.531
X5.969Y54.991
X5.969Y52.451
X5.969Y49.911
X5.969Y47.371
X5.969Y44.831
X5.969Y42.291
X5.969Y39.751
T8
X89.74Y87.875
X89.74Y72.125
T9
X89.6Y21.514
X89.6Y9.474
T10
X69.707Y26.832
T11
X89.69Y68.197
X89.69Y58.997
X95.69Y63.597
X89.69Y53.973
X89.69Y44.773
X95.69Y49.373
T12
X95.0Y95.0
X92.79Y85.715
X92.79Y74.285
X5.0Y95.0
X95.0Y5.0
X5.0Y5.0
T7
G00X80.336Y4.334
M15
G01X81.876Y4.334
M16
G05
T0
M30
