G04 #@! TF.GenerationSoftware,KiCad,Pcbnew,(5.1.0)-1*
G04 #@! TF.CreationDate,2019-04-02T23:05:32+01:00*
G04 #@! TF.ProjectId,CoreOne-xCORE200-2.0,436f7265-4f6e-4652-9d78-434f52453230,2.0*
G04 #@! TF.SameCoordinates,PX660b0c0PY81b3200*
G04 #@! TF.FileFunction,Paste,Top*
G04 #@! TF.FilePolarity,Positive*
%FSLAX46Y46*%
G04 Gerber Fmt 4.6, Leading zero omitted, Abs format (unit mm)*
G04 Created by KiCad (PCBNEW (5.1.0)-1) date 2019-04-02 23:05:32*
%MOMM*%
%LPD*%
G04 APERTURE LIST*
%ADD10C,0.100000*%
%ADD11R,1.300000X0.900000*%
%ADD12R,0.900000X1.300000*%
%ADD13R,0.900000X0.900000*%
%ADD14R,1.200000X0.650000*%
%ADD15C,2.000000*%
%ADD16R,1.000000X1.000000*%
%ADD17R,0.300000X1.500000*%
%ADD18R,1.500000X0.300000*%
%ADD19R,0.800000X0.450000*%
%ADD20R,0.450000X0.800000*%
%ADD21R,2.200000X0.600000*%
%ADD22R,1.400000X2.100000*%
%ADD23C,1.500000*%
%ADD24C,1.000000*%
%ADD25R,2.500000X1.700000*%
%ADD26R,0.600000X2.200000*%
%ADD27R,1.100000X1.700000*%
%ADD28R,1.500000X0.230000*%
%ADD29R,0.230000X1.500000*%
%ADD30R,5.000000X5.000000*%
G04 APERTURE END LIST*
D10*
X0Y100000000D02*
X100000000Y100000000D01*
X15000000Y0D02*
X0Y0D01*
X100000000Y0D02*
X15000000Y0D01*
X100000000Y100000000D02*
X100000000Y0D01*
X0Y0D02*
X0Y100000000D01*
D11*
X11110000Y10608000D03*
X11110000Y8408000D03*
D12*
X20236000Y79248000D03*
X22436000Y79248000D03*
D13*
X71501000Y16190000D03*
X71501000Y14290000D03*
D14*
X44260000Y7476000D03*
X41460000Y8426000D03*
X41460000Y7476000D03*
X41460000Y6526000D03*
X44260000Y6526000D03*
X44260000Y8426000D03*
X17336000Y7476000D03*
X14536000Y8426000D03*
X14536000Y7476000D03*
X14536000Y6526000D03*
X17336000Y6526000D03*
X17336000Y8426000D03*
D15*
X25146000Y79248000D03*
D11*
X37338000Y30269000D03*
X37338000Y32469000D03*
D16*
X39480000Y15096000D03*
X36080000Y15096000D03*
X12634000Y13142000D03*
X12634000Y16542000D03*
D11*
X47432000Y10862000D03*
X47432000Y8662000D03*
X50226000Y10862000D03*
X50226000Y8662000D03*
D12*
X33124000Y7984000D03*
X35324000Y7984000D03*
X14836000Y11032000D03*
X17036000Y11032000D03*
X18712000Y66040000D03*
X20912000Y66040000D03*
X18712000Y69088000D03*
X20912000Y69088000D03*
X77828000Y74532000D03*
X80028000Y74532000D03*
X77850000Y71450000D03*
X80050000Y71450000D03*
D13*
X78994000Y38166000D03*
X78994000Y40066000D03*
D11*
X38100000Y3091000D03*
X38100000Y5291000D03*
D17*
X75371000Y70169000D03*
X74871000Y70169000D03*
X74371000Y70169000D03*
X73871000Y70169000D03*
X73371000Y70169000D03*
X72871000Y70169000D03*
X72371000Y70169000D03*
X71871000Y70169000D03*
X71371000Y70169000D03*
X70871000Y70169000D03*
X70371000Y70169000D03*
X69871000Y70169000D03*
D18*
X68271000Y68569000D03*
X68271000Y68069000D03*
X68271000Y67569000D03*
X68271000Y67069000D03*
X68271000Y66569000D03*
X68271000Y66069000D03*
X68271000Y65569000D03*
X68271000Y65069000D03*
X68271000Y64569000D03*
X68271000Y64069000D03*
X68271000Y63569000D03*
X68271000Y63069000D03*
D17*
X69871000Y61469000D03*
X70371000Y61469000D03*
X70871000Y61469000D03*
X71371000Y61469000D03*
X71871000Y61469000D03*
X72371000Y61469000D03*
X72871000Y61469000D03*
X73371000Y61469000D03*
X73871000Y61469000D03*
X74371000Y61469000D03*
X74871000Y61469000D03*
X75371000Y61469000D03*
D18*
X76971000Y63069000D03*
X76971000Y63569000D03*
X76971000Y64069000D03*
X76971000Y64569000D03*
X76971000Y65069000D03*
X76971000Y65569000D03*
X76971000Y66069000D03*
X76971000Y66569000D03*
X76971000Y67069000D03*
X76971000Y67569000D03*
X76971000Y68069000D03*
X76971000Y68569000D03*
D12*
X16426000Y87884000D03*
X18626000Y87884000D03*
X24722000Y87884000D03*
X22522000Y87884000D03*
X40216000Y83058000D03*
X38016000Y83058000D03*
X32174000Y83058000D03*
X34374000Y83058000D03*
X6200000Y9000000D03*
X8400000Y9000000D03*
X41760000Y11032000D03*
X43960000Y11032000D03*
X15852000Y3158000D03*
X18052000Y3158000D03*
X10772000Y3158000D03*
X12972000Y3158000D03*
X83777210Y46695890D03*
X85977210Y46695890D03*
D11*
X62164000Y61919000D03*
X62164000Y59719000D03*
X63434000Y57344000D03*
X63434000Y55144000D03*
X64958000Y61916000D03*
X64958000Y59716000D03*
X66482000Y57344000D03*
X66482000Y55144000D03*
X69530000Y57344000D03*
X69530000Y55144000D03*
X72578000Y57344000D03*
X72578000Y55144000D03*
X59690000Y42502000D03*
X59690000Y40302000D03*
D19*
X29250000Y50400000D03*
X29250000Y49750000D03*
X29250000Y49100000D03*
X31250000Y49100000D03*
X31250000Y49750000D03*
X31250000Y50400000D03*
D20*
X19924000Y82312000D03*
X20574000Y82312000D03*
X21224000Y82312000D03*
X21224000Y84312000D03*
X20574000Y84312000D03*
X19924000Y84312000D03*
D12*
X36848000Y49386000D03*
X34648000Y49386000D03*
D11*
X26045256Y54560824D03*
X26045256Y56760824D03*
D12*
X79527210Y46695890D03*
X81727210Y46695890D03*
D11*
X16764000Y84412000D03*
X16764000Y82212000D03*
X24384000Y84412000D03*
X24384000Y82212000D03*
D21*
X31076000Y22354000D03*
X31076000Y23624000D03*
X31076000Y24894000D03*
X31076000Y26164000D03*
X25876000Y26164000D03*
X25876000Y24894000D03*
X25876000Y23624000D03*
X25876000Y22354000D03*
D18*
X40476000Y47895000D03*
X45376000Y47895000D03*
X40476000Y48395000D03*
X45376000Y48395000D03*
X40476000Y48895000D03*
X45376000Y48895000D03*
X40476000Y49395000D03*
X45376000Y49395000D03*
X40476000Y49895000D03*
X45376000Y49895000D03*
D22*
X11466000Y63382000D03*
X15966000Y63382000D03*
X11466000Y54982000D03*
X15966000Y54982000D03*
D12*
X14054000Y48895000D03*
X11854000Y48895000D03*
D11*
X71816000Y45406000D03*
X71816000Y43206000D03*
X73340000Y49978000D03*
X73340000Y47778000D03*
X74610000Y45406000D03*
X74610000Y43206000D03*
X76134000Y49978000D03*
X76134000Y47778000D03*
D12*
X45890000Y30480000D03*
X48090000Y30480000D03*
X41064000Y28702000D03*
X43264000Y28702000D03*
X41064000Y32004000D03*
X43264000Y32004000D03*
D11*
X69022000Y45406000D03*
X69022000Y43206000D03*
X70546000Y49978000D03*
X70546000Y47778000D03*
X63246000Y42502000D03*
X63246000Y40302000D03*
X84389000Y27499000D03*
X84389000Y25299000D03*
D12*
X45636000Y34036000D03*
X47836000Y34036000D03*
X41064000Y35560000D03*
X43264000Y35560000D03*
X51224000Y33020000D03*
X53424000Y33020000D03*
X39728000Y25256000D03*
X41928000Y25256000D03*
X51224000Y35560000D03*
X53424000Y35560000D03*
X51224000Y38100000D03*
X53424000Y38100000D03*
X39728000Y18652000D03*
X41928000Y18652000D03*
X35410000Y20176000D03*
X37610000Y20176000D03*
X39728000Y21954000D03*
X41928000Y21954000D03*
X35410000Y23478000D03*
X37610000Y23478000D03*
D11*
X82296000Y37168000D03*
X82296000Y34968000D03*
X85344000Y37168000D03*
X85344000Y34968000D03*
D12*
X35410000Y26780000D03*
X37610000Y26780000D03*
D11*
X85344000Y43010000D03*
X85344000Y40810000D03*
X82296000Y43010000D03*
X82296000Y40810000D03*
D12*
X24214000Y35052000D03*
X22014000Y35052000D03*
X22014000Y38100000D03*
X24214000Y38100000D03*
X32342000Y39370000D03*
X30142000Y39370000D03*
X24214000Y32131000D03*
X22014000Y32131000D03*
D11*
X34036000Y30269000D03*
X34036000Y32469000D03*
D12*
X83777210Y55695890D03*
X85977210Y55695890D03*
X79527210Y55695890D03*
X81727210Y55695890D03*
X83777210Y58695890D03*
X85977210Y58695890D03*
X79527210Y58695890D03*
X81727210Y58695890D03*
X83777210Y52695890D03*
X85977210Y52695890D03*
X79527210Y52695890D03*
X81727210Y52695890D03*
X83777210Y49695890D03*
X85977210Y49695890D03*
X79527210Y49695890D03*
X81727210Y49695890D03*
X65221000Y67569000D03*
X63021000Y67569000D03*
X59021000Y55228000D03*
X61221000Y55228000D03*
X58521000Y51926000D03*
X60721000Y51926000D03*
D11*
X26045256Y44654824D03*
X26045256Y46854824D03*
X26045256Y49226824D03*
X26045256Y51426824D03*
X71308000Y84354000D03*
X71308000Y86554000D03*
X74610000Y84354000D03*
X74610000Y86554000D03*
X77912000Y84354000D03*
X77912000Y86554000D03*
D12*
X11854000Y41783000D03*
X14054000Y41783000D03*
X11854000Y45212000D03*
X14054000Y45212000D03*
D13*
X74422000Y38150613D03*
X74422000Y40050613D03*
X80518000Y25593000D03*
X80518000Y27493000D03*
X70546000Y38530000D03*
X70546000Y40430000D03*
X67190000Y16194000D03*
X67190000Y14294000D03*
X57780000Y30844000D03*
X55880000Y30844000D03*
X76708000Y38150613D03*
X76708000Y40050613D03*
X73914000Y16190000D03*
X73914000Y14290000D03*
D11*
X56896000Y40302000D03*
X56896000Y42502000D03*
D12*
X24214000Y29083000D03*
X22014000Y29083000D03*
X30056000Y36576000D03*
X27856000Y36576000D03*
X32936000Y36576000D03*
X35136000Y36576000D03*
X80097000Y68057500D03*
X82297000Y68057500D03*
X45400000Y45004500D03*
X43200000Y45004500D03*
D11*
X20762000Y10862000D03*
X20762000Y8662000D03*
X23556000Y3582000D03*
X23556000Y5782000D03*
X28448000Y88984000D03*
X28448000Y86784000D03*
D23*
X43600000Y83100000D03*
D24*
X11000000Y97000000D03*
X87000000Y96000000D03*
X95000000Y26000000D03*
D25*
X72546000Y3158000D03*
X68546000Y3158000D03*
D12*
X15512000Y33384000D03*
X13312000Y33384000D03*
D11*
X26350000Y10862000D03*
X26350000Y8662000D03*
X20762000Y3582000D03*
X20762000Y5782000D03*
X50000000Y60150000D03*
X50000000Y62350000D03*
D12*
X55984000Y58403000D03*
X58184000Y58403000D03*
X58184000Y61832000D03*
X55984000Y61832000D03*
D26*
X51259000Y68987500D03*
X52529000Y68987500D03*
X53799000Y68987500D03*
X55069000Y68987500D03*
X56339000Y68987500D03*
X57609000Y68987500D03*
X58879000Y68987500D03*
X51259000Y74737500D03*
X52529000Y74737500D03*
X53799000Y74737500D03*
X55069000Y74737500D03*
X56339000Y74737500D03*
X57609000Y74737500D03*
X58879000Y74737500D03*
D11*
X57609000Y78890500D03*
X57609000Y81090500D03*
D12*
X56804000Y84054500D03*
X54604000Y84054500D03*
D11*
X45290000Y78890500D03*
X45290000Y81090500D03*
X47432000Y3582000D03*
X47432000Y5782000D03*
D12*
X22624000Y22716000D03*
X20424000Y22716000D03*
D11*
X50226000Y3582000D03*
X50226000Y5782000D03*
D12*
X71732000Y6963298D03*
X73932000Y6963298D03*
D11*
X63688000Y9084000D03*
X63688000Y6884000D03*
X60640000Y9084000D03*
X60640000Y6884000D03*
X63688000Y2312000D03*
X63688000Y4512000D03*
X41656000Y86784000D03*
X41656000Y88984000D03*
X45212000Y86784000D03*
X45212000Y88984000D03*
X88834000Y4766000D03*
X88834000Y2566000D03*
D12*
X44026000Y3683000D03*
X41826000Y3683000D03*
D11*
X85532000Y4766000D03*
X85532000Y2566000D03*
D12*
X8400000Y12302000D03*
X6200000Y12302000D03*
D11*
X34290000Y5291000D03*
X34290000Y3091000D03*
D12*
X66652000Y6963298D03*
X68852000Y6963298D03*
X35324000Y11286000D03*
X33124000Y11286000D03*
D11*
X38034000Y10354000D03*
X38034000Y8154000D03*
X57750000Y9650000D03*
X57750000Y11850000D03*
X85700000Y61800000D03*
X85700000Y64000000D03*
X39370000Y65362000D03*
X39370000Y63162000D03*
X36322000Y65362000D03*
X36322000Y63162000D03*
X33020000Y65362000D03*
X33020000Y63162000D03*
X29972000Y65362000D03*
X29972000Y63162000D03*
D12*
X20912000Y75184000D03*
X18712000Y75184000D03*
X18712000Y72136000D03*
X20912000Y72136000D03*
D11*
X85700000Y69100000D03*
X85700000Y66900000D03*
D12*
X31260000Y53577000D03*
X29060000Y53577000D03*
D11*
X23556000Y10862000D03*
X23556000Y8662000D03*
D12*
X22624000Y25764000D03*
X20424000Y25764000D03*
D11*
X53020000Y10862000D03*
X53020000Y8662000D03*
D12*
X15512000Y23478000D03*
X13312000Y23478000D03*
X15512000Y26780000D03*
X13312000Y26780000D03*
X45296000Y52578000D03*
X43096000Y52578000D03*
X36848000Y46211000D03*
X34648000Y46211000D03*
X15512000Y30082000D03*
X13312000Y30082000D03*
D11*
X45400000Y57234000D03*
X45400000Y55034000D03*
X53147000Y45936500D03*
X53147000Y48136500D03*
X49530000Y45890000D03*
X49530000Y48090000D03*
X50497000Y78890500D03*
X50497000Y81090500D03*
X48211000Y76010500D03*
X48211000Y73810500D03*
X53672000Y81090500D03*
X53672000Y78890500D03*
D12*
X51597000Y84054500D03*
X49397000Y84054500D03*
D11*
X45290000Y73810500D03*
X45290000Y76010500D03*
D12*
X52529000Y65893500D03*
X50329000Y65893500D03*
D11*
X48211000Y71184500D03*
X48211000Y68984500D03*
D12*
X55984000Y64880000D03*
X58184000Y64880000D03*
D27*
X60250500Y11917000D03*
X63650500Y11917000D03*
D13*
X80500000Y19650000D03*
X80500000Y17750000D03*
X81026000Y32114000D03*
X82926000Y32114000D03*
D23*
X18400000Y28200000D03*
D11*
X53000000Y58900000D03*
X53000000Y61100000D03*
D20*
X52100000Y53750000D03*
X52750000Y53750000D03*
X53400000Y53750000D03*
X53400000Y55750000D03*
X52750000Y55750000D03*
X52100000Y55750000D03*
D11*
X63246000Y49614000D03*
X63246000Y47414000D03*
D12*
X29802000Y29083000D03*
X27602000Y29083000D03*
D14*
X30102000Y33020000D03*
X27302000Y33970000D03*
X27302000Y33020000D03*
X27302000Y32070000D03*
X30102000Y32070000D03*
X30102000Y33970000D03*
D28*
X61957012Y33032218D03*
X61957012Y32632218D03*
X61957012Y32232218D03*
X61957012Y31832218D03*
X61957012Y31432218D03*
X61957012Y31032218D03*
X61957012Y30632218D03*
X61957012Y30232218D03*
X61957012Y29832218D03*
X61957012Y29432218D03*
X61957012Y29032218D03*
X61957012Y28632218D03*
X61957012Y28232218D03*
X61957012Y27832218D03*
X61957012Y27432218D03*
X61957012Y27032218D03*
X61957012Y26632218D03*
X61957012Y26232218D03*
X61957012Y25832218D03*
X61957012Y25432218D03*
X61957012Y25032218D03*
X61957012Y24632218D03*
X61957012Y24232218D03*
X61957012Y23832218D03*
X61957012Y23432218D03*
X61957012Y23032218D03*
X61957012Y22632218D03*
X61957012Y22232218D03*
X61957012Y21832218D03*
X61957012Y21432218D03*
X61957012Y21032218D03*
X61957012Y20632218D03*
D29*
X63507012Y19082218D03*
X63907012Y19082218D03*
X64307012Y19082218D03*
X64707012Y19082218D03*
X65107012Y19082218D03*
X65507012Y19082218D03*
X65907012Y19082218D03*
X66307012Y19082218D03*
X66707012Y19082218D03*
X67107012Y19082218D03*
X67507012Y19082218D03*
X67907012Y19082218D03*
X68307012Y19082218D03*
X68707012Y19082218D03*
X69107012Y19082218D03*
X69507012Y19082218D03*
X69907012Y19082218D03*
X70307012Y19082218D03*
X70707012Y19082218D03*
X71107012Y19082218D03*
X71507012Y19082218D03*
X71907012Y19082218D03*
X72307012Y19082218D03*
X72707012Y19082218D03*
X73107012Y19082218D03*
X73507012Y19082218D03*
X73907012Y19082218D03*
X74307012Y19082218D03*
X74707012Y19082218D03*
X75107012Y19082218D03*
X75507012Y19082218D03*
X75907012Y19082218D03*
D28*
X77457012Y20632218D03*
X77457012Y21032218D03*
X77457012Y21432218D03*
X77457012Y21832218D03*
X77457012Y22232218D03*
X77457012Y22632218D03*
X77457012Y23032218D03*
X77457012Y23432218D03*
X77457012Y23832218D03*
X77457012Y24232218D03*
X77457012Y24632218D03*
X77457012Y25032218D03*
X77457012Y25432218D03*
X77457012Y25832218D03*
X77457012Y26232218D03*
X77457012Y26632218D03*
X77457012Y27032218D03*
X77457012Y27432218D03*
X77457012Y27832218D03*
X77457012Y28232218D03*
X77457012Y28632218D03*
X77457012Y29032218D03*
X77457012Y29432218D03*
X77457012Y29832218D03*
X77457012Y30232218D03*
X77457012Y30632218D03*
X77457012Y31032218D03*
X77457012Y31432218D03*
X77457012Y31832218D03*
X77457012Y32232218D03*
X77457012Y32632218D03*
X77457012Y33032218D03*
D29*
X75907012Y34582218D03*
X75507012Y34582218D03*
X75107012Y34582218D03*
X74707012Y34582218D03*
X74307012Y34582218D03*
X73907012Y34582218D03*
X73507012Y34582218D03*
X73107012Y34582218D03*
X72707012Y34582218D03*
X72307012Y34582218D03*
X71907012Y34582218D03*
X71507012Y34582218D03*
X71107012Y34582218D03*
X70707012Y34582218D03*
X70307012Y34582218D03*
X69907012Y34582218D03*
X69507012Y34582218D03*
X69107012Y34582218D03*
X68707012Y34582218D03*
X68307012Y34582218D03*
X67907012Y34582218D03*
X67507012Y34582218D03*
X67107012Y34582218D03*
X66707012Y34582218D03*
X66307012Y34582218D03*
X65907012Y34582218D03*
X65507012Y34582218D03*
X65107012Y34582218D03*
X64707012Y34582218D03*
X64307012Y34582218D03*
X63907012Y34582218D03*
X63507012Y34582218D03*
D30*
X69707012Y26832218D03*
D12*
X15512000Y20176000D03*
X13312000Y20176000D03*
D11*
X68006000Y84354000D03*
X68006000Y86554000D03*
D12*
X11092000Y85725000D03*
X13292000Y85725000D03*
X45890000Y27178000D03*
X48090000Y27178000D03*
D11*
X32004000Y79840000D03*
X32004000Y77640000D03*
X39878000Y79840000D03*
X39878000Y77640000D03*
D12*
X35560000Y74676000D03*
X37760000Y74676000D03*
X11092000Y81280000D03*
X13292000Y81280000D03*
X11092000Y77597000D03*
X13292000Y77597000D03*
D11*
X36576000Y88984000D03*
X36576000Y86784000D03*
X32893000Y88984000D03*
X32893000Y86784000D03*
X87100000Y26600000D03*
X87100000Y24400000D03*
D20*
X35418000Y77740000D03*
X36068000Y77740000D03*
X36718000Y77740000D03*
X36718000Y79740000D03*
X36068000Y79740000D03*
X35418000Y79740000D03*
D15*
X32004000Y74422000D03*
M02*
