G04 #@! TF.GenerationSoftware,KiCad,Pcbnew,(5.1.0)-1*
G04 #@! TF.CreationDate,2019-04-02T23:05:32+01:00*
G04 #@! TF.ProjectId,CoreOne-xCORE200-2.0,436f7265-4f6e-4652-9d78-434f52453230,2.0*
G04 #@! TF.SameCoordinates,PX660b0c0PY81b3200*
G04 #@! TF.FileFunction,Paste,Bot*
G04 #@! TF.FilePolarity,Positive*
%FSLAX46Y46*%
G04 Gerber Fmt 4.6, Leading zero omitted, Abs format (unit mm)*
G04 Created by KiCad (PCBNEW (5.1.0)-1) date 2019-04-02 23:05:32*
%MOMM*%
%LPD*%
G04 APERTURE LIST*
%ADD10C,0.100000*%
%ADD11R,0.900000X1.300000*%
%ADD12C,1.000000*%
%ADD13R,1.200000X0.650000*%
%ADD14R,0.650000X1.200000*%
%ADD15C,1.500000*%
%ADD16R,1.300000X0.900000*%
%ADD17R,0.900000X0.900000*%
%ADD18R,0.800000X0.450000*%
%ADD19R,1.000000X1.000000*%
G04 APERTURE END LIST*
D10*
X0Y100000000D02*
X100000000Y100000000D01*
X15000000Y0D02*
X0Y0D01*
X100000000Y0D02*
X15000000Y0D01*
X100000000Y100000000D02*
X100000000Y0D01*
X0Y0D02*
X0Y100000000D01*
D11*
X24275000Y31860000D03*
X22075000Y31860000D03*
D12*
X11000000Y97000000D03*
X87000000Y96000000D03*
X95000000Y26000000D03*
D13*
X20250000Y66548000D03*
X17850000Y65598000D03*
X17850000Y67498000D03*
D14*
X39370000Y62160000D03*
X40320000Y59760000D03*
X38420000Y59760000D03*
D13*
X20898000Y69088000D03*
X23298000Y70038000D03*
X23298000Y68138000D03*
D14*
X36576000Y62808000D03*
X35626000Y65208000D03*
X37526000Y65208000D03*
D13*
X20250000Y71882000D03*
X17850000Y70932000D03*
X17850000Y72832000D03*
D14*
X33782000Y62160000D03*
X34732000Y59760000D03*
X32832000Y59760000D03*
D13*
X20898000Y74422000D03*
X23298000Y75372000D03*
X23298000Y73472000D03*
D14*
X30734000Y62808000D03*
X29784000Y65208000D03*
X31684000Y65208000D03*
D15*
X68006000Y89264000D03*
X10602000Y20176000D03*
D16*
X68006000Y86554000D03*
X68006000Y84354000D03*
D11*
X13312000Y20176000D03*
X15512000Y20176000D03*
D17*
X81100000Y17950000D03*
X81100000Y16050000D03*
X68427600Y20193000D03*
X68427600Y22093000D03*
D11*
X83670000Y36686000D03*
X85870000Y36686000D03*
X83670000Y33384000D03*
X85870000Y33384000D03*
X86952000Y13335000D03*
X84752000Y13335000D03*
D16*
X73848000Y55906000D03*
X73848000Y58106000D03*
X68006000Y58106000D03*
X68006000Y55906000D03*
D11*
X72916000Y64118000D03*
X70716000Y64118000D03*
D16*
X76700000Y72950000D03*
X76700000Y75150000D03*
D11*
X72916000Y67166000D03*
X70716000Y67166000D03*
D17*
X76100000Y17950000D03*
X76100000Y16050000D03*
D11*
X71900000Y53450000D03*
X69700000Y53450000D03*
X69700000Y50148000D03*
X71900000Y50148000D03*
D15*
X81214000Y89264000D03*
X10602000Y33384000D03*
D18*
X46745000Y52724308D03*
X46745000Y52074308D03*
X46745000Y51424308D03*
X44745000Y51424308D03*
X44745000Y52074308D03*
X44745000Y52724308D03*
D12*
X74800000Y21200000D03*
D16*
X41910000Y56345000D03*
X41910000Y54145000D03*
D11*
X44863000Y55424308D03*
X47063000Y55424308D03*
X44874000Y58547000D03*
X47074000Y58547000D03*
D16*
X67300000Y76600000D03*
X67300000Y74400000D03*
X67300000Y81100000D03*
X67300000Y78900000D03*
X70350000Y76550000D03*
X70350000Y74350000D03*
X67300000Y72100000D03*
X67300000Y69900000D03*
X59484380Y73404704D03*
X59484380Y71204704D03*
D15*
X77912000Y89264000D03*
X71308000Y89264000D03*
X74610000Y89264000D03*
D11*
X67300000Y15600000D03*
X69500000Y15600000D03*
X83670000Y29828000D03*
X85870000Y29828000D03*
X55097500Y41275000D03*
X57297500Y41275000D03*
X82297000Y68057500D03*
X80097000Y68057500D03*
X37272000Y48751000D03*
X35072000Y48751000D03*
D16*
X81214000Y84354000D03*
X81214000Y86554000D03*
X71308000Y86554000D03*
X71308000Y84354000D03*
X74610000Y86554000D03*
X74610000Y84354000D03*
X77912000Y86554000D03*
X77912000Y84354000D03*
X55118000Y36047500D03*
X55118000Y38247500D03*
X37272000Y43587000D03*
X37272000Y45787000D03*
D19*
X82897000Y64438000D03*
X79497000Y64438000D03*
D17*
X70546000Y38530000D03*
X70546000Y40430000D03*
D11*
X68000000Y39000000D03*
X65800000Y39000000D03*
D17*
X65709800Y20193000D03*
X65709800Y22093000D03*
X62814200Y20167600D03*
X60914200Y20167600D03*
X78600000Y17950000D03*
X78600000Y16050000D03*
X71323200Y20193000D03*
X71323200Y22093000D03*
X76197500Y30607000D03*
X74297500Y30607000D03*
X76261000Y28003500D03*
X74361000Y28003500D03*
X75565000Y33511000D03*
X77465000Y33511000D03*
X75565000Y36178000D03*
X77465000Y36178000D03*
X68122800Y33502600D03*
X68122800Y31602600D03*
X71200000Y33450000D03*
X71200000Y31550000D03*
X63042800Y27990800D03*
X64942800Y27990800D03*
X63058000Y25400000D03*
X64958000Y25400000D03*
D16*
X61849000Y45974000D03*
X61849000Y48174000D03*
D11*
X59352000Y41275000D03*
X61552000Y41275000D03*
D17*
X64287400Y35077400D03*
X64287400Y36977400D03*
D11*
X78850000Y23200000D03*
X81050000Y23200000D03*
X30056000Y36576000D03*
X27856000Y36576000D03*
X81641000Y81092000D03*
X79441000Y81092000D03*
X81641000Y78342000D03*
X79441000Y78342000D03*
D16*
X59484380Y78316704D03*
X59484380Y80516704D03*
D11*
X45420500Y45004500D03*
X43220500Y45004500D03*
D16*
X38750000Y54500000D03*
X38750000Y56700000D03*
X32500000Y54500000D03*
X32500000Y56700000D03*
D11*
X33038000Y48751000D03*
X30838000Y48751000D03*
X84752000Y16891000D03*
X86952000Y16891000D03*
D16*
X88834000Y2566000D03*
X88834000Y4766000D03*
D11*
X57488000Y29464000D03*
X55288000Y29464000D03*
X46600000Y70850000D03*
X44400000Y70850000D03*
X46600000Y67700000D03*
X44400000Y67700000D03*
X88476000Y61722000D03*
X86276000Y61722000D03*
X92800000Y56500000D03*
X95000000Y56500000D03*
D16*
X50035500Y62975000D03*
X50035500Y60775000D03*
X88265000Y48557000D03*
X88265000Y50757000D03*
X53337500Y65410500D03*
X53337500Y67610500D03*
D11*
X86022000Y25781000D03*
X88222000Y25781000D03*
X37610000Y26780000D03*
X35410000Y26780000D03*
D16*
X50035500Y67610500D03*
X50035500Y65410500D03*
X17653000Y56812000D03*
X17653000Y59012000D03*
X17653000Y51900000D03*
X17653000Y49700000D03*
X61000000Y32450000D03*
X61000000Y34650000D03*
D11*
X13312000Y30082000D03*
X15512000Y30082000D03*
X13312000Y26780000D03*
X15512000Y26780000D03*
X13312000Y23478000D03*
X15512000Y23478000D03*
X2329000Y14986000D03*
X4529000Y14986000D03*
D17*
X63042800Y30581600D03*
X64942800Y30581600D03*
X76261000Y25273000D03*
X74361000Y25273000D03*
X58700000Y22350000D03*
X58700000Y24250000D03*
D15*
X10602000Y23478000D03*
X10602000Y26780000D03*
X10602000Y30082000D03*
D11*
X39540000Y50800000D03*
X41740000Y50800000D03*
X93480000Y78168500D03*
X91280000Y78168500D03*
X93480000Y81851500D03*
X91280000Y81851500D03*
X94300000Y11303000D03*
X96500000Y11303000D03*
D16*
X97100000Y14224000D03*
X97100000Y16424000D03*
D17*
X58450000Y26400000D03*
X56550000Y26400000D03*
M02*
