G04 #@! TF.GenerationSoftware,KiCad,Pcbnew,(5.1.0)-1*
G04 #@! TF.CreationDate,2019-04-02T23:05:32+01:00*
G04 #@! TF.ProjectId,CoreOne-xCORE200-2.0,436f7265-4f6e-4652-9d78-434f52453230,2.0*
G04 #@! TF.SameCoordinates,PX660b0c0PY81b3200*
G04 #@! TF.FileFunction,Soldermask,Bot*
G04 #@! TF.FilePolarity,Negative*
%FSLAX46Y46*%
G04 Gerber Fmt 4.6, Leading zero omitted, Abs format (unit mm)*
G04 Created by KiCad (PCBNEW (5.1.0)-1) date 2019-04-02 23:05:32*
%MOMM*%
%LPD*%
G04 APERTURE LIST*
%ADD10C,0.100000*%
%ADD11C,0.150000*%
G04 APERTURE END LIST*
D10*
X0Y100000000D02*
X100000000Y100000000D01*
X15000000Y0D02*
X0Y0D01*
X100000000Y0D02*
X15000000Y0D01*
X100000000Y100000000D02*
X100000000Y0D01*
X0Y0D02*
X0Y100000000D01*
D11*
G36*
X5604780Y8040435D02*
G01*
X5904237Y7980869D01*
X6468401Y7747185D01*
X6976135Y7407928D01*
X7407928Y6976135D01*
X7747185Y6468401D01*
X7980869Y5904237D01*
X8037793Y5618059D01*
X8060404Y5504387D01*
X8067517Y5480938D01*
X8079068Y5459327D01*
X8094613Y5440385D01*
X8113555Y5424840D01*
X8135166Y5413289D01*
X8158615Y5406176D01*
X8183001Y5403774D01*
X8207387Y5406176D01*
X8230836Y5413289D01*
X8252447Y5424840D01*
X8271389Y5440385D01*
X8286934Y5459327D01*
X8298485Y5480938D01*
X8305598Y5504387D01*
X8308000Y5528773D01*
X8308000Y6992000D01*
X9708000Y6992000D01*
X9708000Y1692000D01*
X8308000Y1692000D01*
X8308000Y4471227D01*
X8305598Y4495613D01*
X8298485Y4519062D01*
X8286934Y4540673D01*
X8271389Y4559615D01*
X8252447Y4575160D01*
X8230836Y4586711D01*
X8207387Y4593824D01*
X8183001Y4596226D01*
X8158615Y4593824D01*
X8135166Y4586711D01*
X8113555Y4575160D01*
X8094613Y4559615D01*
X8079068Y4540673D01*
X8067517Y4519062D01*
X8060404Y4495613D01*
X8055553Y4471227D01*
X7980869Y4095763D01*
X7747185Y3531599D01*
X7407928Y3023865D01*
X6976135Y2592072D01*
X6468401Y2252815D01*
X5904237Y2019131D01*
X5604780Y1959565D01*
X5305325Y1900000D01*
X4694675Y1900000D01*
X4395220Y1959565D01*
X4095763Y2019131D01*
X3531599Y2252815D01*
X3023865Y2592072D01*
X2592072Y3023865D01*
X2252815Y3531599D01*
X2019131Y4095763D01*
X1944447Y4471227D01*
X1900000Y4694675D01*
X1900000Y5305325D01*
X1959566Y5604780D01*
X2019131Y5904237D01*
X2252815Y6468401D01*
X2592072Y6976135D01*
X3023865Y7407928D01*
X3531599Y7747185D01*
X4095763Y7980869D01*
X4395220Y8040435D01*
X4694675Y8100000D01*
X5305325Y8100000D01*
X5604780Y8040435D01*
X5604780Y8040435D01*
G37*
G36*
X95604780Y8040435D02*
G01*
X95904237Y7980869D01*
X96468401Y7747185D01*
X96976135Y7407928D01*
X97407928Y6976135D01*
X97747185Y6468401D01*
X97980869Y5904237D01*
X98040434Y5604780D01*
X98100000Y5305325D01*
X98100000Y4694675D01*
X98055553Y4471227D01*
X97980869Y4095763D01*
X97747185Y3531599D01*
X97407928Y3023865D01*
X96976135Y2592072D01*
X96468401Y2252815D01*
X95904237Y2019131D01*
X95604780Y1959565D01*
X95305325Y1900000D01*
X94694675Y1900000D01*
X94395220Y1959565D01*
X94095763Y2019131D01*
X93531599Y2252815D01*
X93023865Y2592072D01*
X92592072Y3023865D01*
X92252815Y3531599D01*
X92019131Y4095763D01*
X91944447Y4471227D01*
X91900000Y4694675D01*
X91900000Y5305325D01*
X91959566Y5604780D01*
X92019131Y5904237D01*
X92252815Y6468401D01*
X92592072Y6976135D01*
X93023865Y7407928D01*
X93531599Y7747185D01*
X94095763Y7980869D01*
X94395220Y8040435D01*
X94694675Y8100000D01*
X95305325Y8100000D01*
X95604780Y8040435D01*
X95604780Y8040435D01*
G37*
G36*
X89484000Y2116000D02*
G01*
X88184000Y2116000D01*
X88184000Y3016000D01*
X89484000Y3016000D01*
X89484000Y2116000D01*
X89484000Y2116000D01*
G37*
G36*
X29137935Y4059336D02*
G01*
X29292624Y3995261D01*
X29292626Y3995260D01*
X29431844Y3902238D01*
X29550238Y3783844D01*
X29643260Y3644626D01*
X29643261Y3644624D01*
X29707336Y3489935D01*
X29740000Y3325719D01*
X29740000Y3158281D01*
X29707336Y2994065D01*
X29643261Y2839376D01*
X29643260Y2839374D01*
X29550238Y2700156D01*
X29431844Y2581762D01*
X29292626Y2488740D01*
X29292625Y2488739D01*
X29292624Y2488739D01*
X29137935Y2424664D01*
X28973719Y2392000D01*
X28806281Y2392000D01*
X28642065Y2424664D01*
X28487376Y2488739D01*
X28487375Y2488739D01*
X28487374Y2488740D01*
X28348156Y2581762D01*
X28229762Y2700156D01*
X28136740Y2839374D01*
X28136739Y2839376D01*
X28072664Y2994065D01*
X28040000Y3158281D01*
X28040000Y3325719D01*
X28072664Y3489935D01*
X28136739Y3644624D01*
X28136740Y3644626D01*
X28229762Y3783844D01*
X28348156Y3902238D01*
X28487374Y3995260D01*
X28487376Y3995261D01*
X28642065Y4059336D01*
X28806281Y4092000D01*
X28973719Y4092000D01*
X29137935Y4059336D01*
X29137935Y4059336D01*
G37*
G36*
X78164351Y5103257D02*
G01*
X78309941Y5042952D01*
X78440970Y4955401D01*
X78552401Y4843970D01*
X78639952Y4712941D01*
X78700257Y4567351D01*
X78731000Y4412794D01*
X78731000Y4255206D01*
X78700257Y4100649D01*
X78639952Y3955059D01*
X78552401Y3824030D01*
X78440970Y3712599D01*
X78309941Y3625048D01*
X78164351Y3564743D01*
X78009794Y3534000D01*
X77852206Y3534000D01*
X77697649Y3564743D01*
X77552059Y3625048D01*
X77421030Y3712599D01*
X77309599Y3824030D01*
X77222048Y3955059D01*
X77161743Y4100649D01*
X77131000Y4255206D01*
X77131000Y4412794D01*
X77161743Y4567351D01*
X77222048Y4712941D01*
X77309599Y4843970D01*
X77421030Y4955401D01*
X77552059Y5042952D01*
X77697649Y5103257D01*
X77852206Y5134000D01*
X78009794Y5134000D01*
X78164351Y5103257D01*
X78164351Y5103257D01*
G37*
G36*
X81984471Y5130141D02*
G01*
X82062827Y5122424D01*
X82213628Y5076679D01*
X82213630Y5076678D01*
X82352605Y5002394D01*
X82474422Y4902422D01*
X82574394Y4780605D01*
X82648678Y4641630D01*
X82648679Y4641628D01*
X82694424Y4490827D01*
X82709870Y4334000D01*
X82694424Y4177173D01*
X82658678Y4059335D01*
X82648678Y4026370D01*
X82574394Y3887395D01*
X82474422Y3765578D01*
X82352605Y3665606D01*
X82249818Y3610665D01*
X82213628Y3591321D01*
X82062827Y3545576D01*
X81984471Y3537859D01*
X81945294Y3534000D01*
X80266706Y3534000D01*
X80227529Y3537859D01*
X80149173Y3545576D01*
X79998372Y3591321D01*
X79962182Y3610665D01*
X79859395Y3665606D01*
X79737578Y3765578D01*
X79637606Y3887395D01*
X79563322Y4026370D01*
X79553322Y4059335D01*
X79517576Y4177173D01*
X79502130Y4334000D01*
X79517576Y4490827D01*
X79563321Y4641628D01*
X79563322Y4641630D01*
X79637606Y4780605D01*
X79737578Y4902422D01*
X79859395Y5002394D01*
X79998370Y5076678D01*
X79998372Y5076679D01*
X80149173Y5122424D01*
X80227529Y5130141D01*
X80266706Y5134000D01*
X81945294Y5134000D01*
X81984471Y5130141D01*
X81984471Y5130141D01*
G37*
G36*
X57819935Y5245336D02*
G01*
X57974624Y5181261D01*
X57974626Y5181260D01*
X58113844Y5088238D01*
X58232238Y4969844D01*
X58284251Y4892000D01*
X58325261Y4830624D01*
X58389336Y4675935D01*
X58422000Y4511719D01*
X58422000Y4344281D01*
X58389336Y4180065D01*
X58325673Y4026370D01*
X58325260Y4025374D01*
X58232238Y3886156D01*
X58113844Y3767762D01*
X57974626Y3674740D01*
X57974625Y3674739D01*
X57974624Y3674739D01*
X57819935Y3610664D01*
X57655719Y3578000D01*
X57488281Y3578000D01*
X57324065Y3610664D01*
X57169376Y3674739D01*
X57169375Y3674739D01*
X57169374Y3674740D01*
X57030156Y3767762D01*
X56911762Y3886156D01*
X56818740Y4025374D01*
X56818327Y4026370D01*
X56754664Y4180065D01*
X56722000Y4344281D01*
X56722000Y4511719D01*
X56754664Y4675935D01*
X56818739Y4830624D01*
X56859749Y4892000D01*
X56911762Y4969844D01*
X57030156Y5088238D01*
X57169374Y5181260D01*
X57169376Y5181261D01*
X57324065Y5245336D01*
X57488281Y5278000D01*
X57655719Y5278000D01*
X57819935Y5245336D01*
X57819935Y5245336D01*
G37*
G36*
X55319935Y5245336D02*
G01*
X55474624Y5181261D01*
X55474626Y5181260D01*
X55613844Y5088238D01*
X55732238Y4969844D01*
X55784251Y4892000D01*
X55825261Y4830624D01*
X55889336Y4675935D01*
X55922000Y4511719D01*
X55922000Y4344281D01*
X55889336Y4180065D01*
X55825673Y4026370D01*
X55825260Y4025374D01*
X55732238Y3886156D01*
X55613844Y3767762D01*
X55474626Y3674740D01*
X55474625Y3674739D01*
X55474624Y3674739D01*
X55319935Y3610664D01*
X55155719Y3578000D01*
X54988281Y3578000D01*
X54824065Y3610664D01*
X54669376Y3674739D01*
X54669375Y3674739D01*
X54669374Y3674740D01*
X54530156Y3767762D01*
X54411762Y3886156D01*
X54318740Y4025374D01*
X54318327Y4026370D01*
X54254664Y4180065D01*
X54222000Y4344281D01*
X54222000Y4511719D01*
X54254664Y4675935D01*
X54318739Y4830624D01*
X54359749Y4892000D01*
X54411762Y4969844D01*
X54530156Y5088238D01*
X54669374Y5181260D01*
X54669376Y5181261D01*
X54824065Y5245336D01*
X54988281Y5278000D01*
X55155719Y5278000D01*
X55319935Y5245336D01*
X55319935Y5245336D01*
G37*
G36*
X89484000Y4316000D02*
G01*
X88184000Y4316000D01*
X88184000Y5216000D01*
X89484000Y5216000D01*
X89484000Y4316000D01*
X89484000Y4316000D01*
G37*
G36*
X29137935Y6559336D02*
G01*
X29292624Y6495261D01*
X29292626Y6495260D01*
X29431844Y6402238D01*
X29550238Y6283844D01*
X29643260Y6144626D01*
X29643261Y6144624D01*
X29707336Y5989935D01*
X29740000Y5825719D01*
X29740000Y5658281D01*
X29707336Y5494065D01*
X29643261Y5339376D01*
X29643260Y5339374D01*
X29550238Y5200156D01*
X29431844Y5081762D01*
X29292626Y4988740D01*
X29292625Y4988739D01*
X29292624Y4988739D01*
X29137935Y4924664D01*
X28973719Y4892000D01*
X28806281Y4892000D01*
X28642065Y4924664D01*
X28487376Y4988739D01*
X28487375Y4988739D01*
X28487374Y4988740D01*
X28348156Y5081762D01*
X28229762Y5200156D01*
X28136740Y5339374D01*
X28136739Y5339376D01*
X28072664Y5494065D01*
X28040000Y5658281D01*
X28040000Y5825719D01*
X28072664Y5989935D01*
X28136739Y6144624D01*
X28136740Y6144626D01*
X28229762Y6283844D01*
X28348156Y6402238D01*
X28487374Y6495260D01*
X28487376Y6495261D01*
X28642065Y6559336D01*
X28806281Y6592000D01*
X28973719Y6592000D01*
X29137935Y6559336D01*
X29137935Y6559336D01*
G37*
G36*
X89807874Y11114977D02*
G01*
X90081287Y11060592D01*
X90381568Y10936211D01*
X90651814Y10755639D01*
X90881639Y10525814D01*
X91062211Y10255568D01*
X91186592Y9955287D01*
X91250000Y9636511D01*
X91250000Y9311489D01*
X91186592Y8992713D01*
X91062211Y8692432D01*
X90881639Y8422186D01*
X90651814Y8192361D01*
X90381568Y8011789D01*
X90081287Y7887408D01*
X89807874Y7833023D01*
X89762512Y7824000D01*
X89437488Y7824000D01*
X89392126Y7833023D01*
X89118713Y7887408D01*
X88818432Y8011789D01*
X88548186Y8192361D01*
X88318361Y8422186D01*
X88137789Y8692432D01*
X88013408Y8992713D01*
X87950000Y9311489D01*
X87950000Y9636511D01*
X88013408Y9955287D01*
X88137789Y10255568D01*
X88318361Y10525814D01*
X88548186Y10755639D01*
X88818432Y10936211D01*
X89118713Y11060592D01*
X89392126Y11114977D01*
X89437488Y11124000D01*
X89762512Y11124000D01*
X89807874Y11114977D01*
X89807874Y11114977D01*
G37*
G36*
X2583851Y10265257D02*
G01*
X2729441Y10204952D01*
X2860470Y10117401D01*
X2971901Y10005970D01*
X3059452Y9874941D01*
X3119757Y9729351D01*
X3150500Y9574794D01*
X3150500Y9417206D01*
X3119757Y9262649D01*
X3059452Y9117059D01*
X2971901Y8986030D01*
X2860470Y8874599D01*
X2729441Y8787048D01*
X2583851Y8726743D01*
X2429294Y8696000D01*
X2271706Y8696000D01*
X2117149Y8726743D01*
X1971559Y8787048D01*
X1840530Y8874599D01*
X1729099Y8986030D01*
X1641548Y9117059D01*
X1581243Y9262649D01*
X1550500Y9417206D01*
X1550500Y9574794D01*
X1581243Y9729351D01*
X1641548Y9874941D01*
X1729099Y10005970D01*
X1840530Y10117401D01*
X1971559Y10204952D01*
X2117149Y10265257D01*
X2271706Y10296000D01*
X2429294Y10296000D01*
X2583851Y10265257D01*
X2583851Y10265257D01*
G37*
G36*
X96950000Y10653000D02*
G01*
X96050000Y10653000D01*
X96050000Y11953000D01*
X96950000Y11953000D01*
X96950000Y10653000D01*
X96950000Y10653000D01*
G37*
G36*
X94750000Y10653000D02*
G01*
X93850000Y10653000D01*
X93850000Y11953000D01*
X94750000Y11953000D01*
X94750000Y10653000D01*
X94750000Y10653000D01*
G37*
G36*
X2583851Y12805257D02*
G01*
X2729441Y12744952D01*
X2860470Y12657401D01*
X2971901Y12545970D01*
X3059452Y12414941D01*
X3119757Y12269351D01*
X3150500Y12114794D01*
X3150500Y11957206D01*
X3119757Y11802649D01*
X3059452Y11657059D01*
X2971901Y11526030D01*
X2860470Y11414599D01*
X2729441Y11327048D01*
X2583851Y11266743D01*
X2429294Y11236000D01*
X2271706Y11236000D01*
X2117149Y11266743D01*
X1971559Y11327048D01*
X1840530Y11414599D01*
X1729099Y11526030D01*
X1641548Y11657059D01*
X1581243Y11802649D01*
X1550500Y11957206D01*
X1550500Y12114794D01*
X1581243Y12269351D01*
X1641548Y12414941D01*
X1729099Y12545970D01*
X1840530Y12657401D01*
X1971559Y12744952D01*
X2117149Y12805257D01*
X2271706Y12836000D01*
X2429294Y12836000D01*
X2583851Y12805257D01*
X2583851Y12805257D01*
G37*
G36*
X87402000Y12685000D02*
G01*
X86502000Y12685000D01*
X86502000Y13985000D01*
X87402000Y13985000D01*
X87402000Y12685000D01*
X87402000Y12685000D01*
G37*
G36*
X85202000Y12685000D02*
G01*
X84302000Y12685000D01*
X84302000Y13985000D01*
X85202000Y13985000D01*
X85202000Y12685000D01*
X85202000Y12685000D01*
G37*
G36*
X94543351Y15013257D02*
G01*
X94688941Y14952952D01*
X94819970Y14865401D01*
X94931401Y14753970D01*
X95018952Y14622941D01*
X95079257Y14477351D01*
X95110000Y14322794D01*
X95110000Y14165206D01*
X95079257Y14010649D01*
X95018952Y13865059D01*
X94931401Y13734030D01*
X94819970Y13622599D01*
X94688941Y13535048D01*
X94543351Y13474743D01*
X94388794Y13444000D01*
X94231206Y13444000D01*
X94076649Y13474743D01*
X93931059Y13535048D01*
X93800030Y13622599D01*
X93688599Y13734030D01*
X93601048Y13865059D01*
X93540743Y14010649D01*
X93510000Y14165206D01*
X93510000Y14322794D01*
X93540743Y14477351D01*
X93601048Y14622941D01*
X93688599Y14753970D01*
X93800030Y14865401D01*
X93931059Y14952952D01*
X94076649Y15013257D01*
X94231206Y15044000D01*
X94388794Y15044000D01*
X94543351Y15013257D01*
X94543351Y15013257D01*
G37*
G36*
X92543351Y15013257D02*
G01*
X92688941Y14952952D01*
X92819970Y14865401D01*
X92931401Y14753970D01*
X93018952Y14622941D01*
X93079257Y14477351D01*
X93110000Y14322794D01*
X93110000Y14165206D01*
X93079257Y14010649D01*
X93018952Y13865059D01*
X92931401Y13734030D01*
X92819970Y13622599D01*
X92688941Y13535048D01*
X92543351Y13474743D01*
X92388794Y13444000D01*
X92231206Y13444000D01*
X92076649Y13474743D01*
X91931059Y13535048D01*
X91800030Y13622599D01*
X91688599Y13734030D01*
X91601048Y13865059D01*
X91540743Y14010649D01*
X91510000Y14165206D01*
X91510000Y14322794D01*
X91540743Y14477351D01*
X91601048Y14622941D01*
X91688599Y14753970D01*
X91800030Y14865401D01*
X91931059Y14952952D01*
X92076649Y15013257D01*
X92231206Y15044000D01*
X92388794Y15044000D01*
X92543351Y15013257D01*
X92543351Y15013257D01*
G37*
G36*
X97750000Y13774000D02*
G01*
X96450000Y13774000D01*
X96450000Y14674000D01*
X97750000Y14674000D01*
X97750000Y13774000D01*
X97750000Y13774000D01*
G37*
G36*
X2779000Y14336000D02*
G01*
X1879000Y14336000D01*
X1879000Y15636000D01*
X2779000Y15636000D01*
X2779000Y14336000D01*
X2779000Y14336000D01*
G37*
G36*
X4979000Y14336000D02*
G01*
X4079000Y14336000D01*
X4079000Y15636000D01*
X4979000Y15636000D01*
X4979000Y14336000D01*
X4979000Y14336000D01*
G37*
G36*
X69950000Y14950000D02*
G01*
X69050000Y14950000D01*
X69050000Y16250000D01*
X69950000Y16250000D01*
X69950000Y14950000D01*
X69950000Y14950000D01*
G37*
G36*
X67750000Y14950000D02*
G01*
X66850000Y14950000D01*
X66850000Y16250000D01*
X67750000Y16250000D01*
X67750000Y14950000D01*
X67750000Y14950000D01*
G37*
G36*
X53287935Y16675336D02*
G01*
X53442624Y16611261D01*
X53442626Y16611260D01*
X53581844Y16518238D01*
X53700238Y16399844D01*
X53721535Y16367970D01*
X53793261Y16260624D01*
X53857336Y16105935D01*
X53890000Y15941719D01*
X53890000Y15774281D01*
X53857336Y15610065D01*
X53793261Y15455376D01*
X53793260Y15455374D01*
X53700238Y15316156D01*
X53581844Y15197762D01*
X53442626Y15104740D01*
X53442625Y15104739D01*
X53442624Y15104739D01*
X53287935Y15040664D01*
X53123719Y15008000D01*
X52956281Y15008000D01*
X52792065Y15040664D01*
X52637376Y15104739D01*
X52637375Y15104739D01*
X52637374Y15104740D01*
X52498156Y15197762D01*
X52379762Y15316156D01*
X52286740Y15455374D01*
X52286739Y15455376D01*
X52222664Y15610065D01*
X52190000Y15774281D01*
X52190000Y15941719D01*
X52222664Y16105935D01*
X52286739Y16260624D01*
X52358465Y16367970D01*
X52379762Y16399844D01*
X52498156Y16518238D01*
X52637374Y16611260D01*
X52637376Y16611261D01*
X52792065Y16675336D01*
X52956281Y16708000D01*
X53123719Y16708000D01*
X53287935Y16675336D01*
X53287935Y16675336D01*
G37*
G36*
X55787935Y16675336D02*
G01*
X55942624Y16611261D01*
X55942626Y16611260D01*
X56081844Y16518238D01*
X56200238Y16399844D01*
X56221535Y16367970D01*
X56293261Y16260624D01*
X56357336Y16105935D01*
X56390000Y15941719D01*
X56390000Y15774281D01*
X56357336Y15610065D01*
X56293261Y15455376D01*
X56293260Y15455374D01*
X56200238Y15316156D01*
X56081844Y15197762D01*
X55942626Y15104740D01*
X55942625Y15104739D01*
X55942624Y15104739D01*
X55787935Y15040664D01*
X55623719Y15008000D01*
X55456281Y15008000D01*
X55292065Y15040664D01*
X55137376Y15104739D01*
X55137375Y15104739D01*
X55137374Y15104740D01*
X54998156Y15197762D01*
X54879762Y15316156D01*
X54786740Y15455374D01*
X54786739Y15455376D01*
X54722664Y15610065D01*
X54690000Y15774281D01*
X54690000Y15941719D01*
X54722664Y16105935D01*
X54786739Y16260624D01*
X54858465Y16367970D01*
X54879762Y16399844D01*
X54998156Y16518238D01*
X55137374Y16611260D01*
X55137376Y16611261D01*
X55292065Y16675336D01*
X55456281Y16708000D01*
X55623719Y16708000D01*
X55787935Y16675336D01*
X55787935Y16675336D01*
G37*
G36*
X27633935Y16675336D02*
G01*
X27788624Y16611261D01*
X27788626Y16611260D01*
X27927844Y16518238D01*
X28046238Y16399844D01*
X28067535Y16367970D01*
X28139261Y16260624D01*
X28203336Y16105935D01*
X28236000Y15941719D01*
X28236000Y15774281D01*
X28203336Y15610065D01*
X28139261Y15455376D01*
X28139260Y15455374D01*
X28046238Y15316156D01*
X27927844Y15197762D01*
X27788626Y15104740D01*
X27788625Y15104739D01*
X27788624Y15104739D01*
X27633935Y15040664D01*
X27469719Y15008000D01*
X27302281Y15008000D01*
X27138065Y15040664D01*
X26983376Y15104739D01*
X26983375Y15104739D01*
X26983374Y15104740D01*
X26844156Y15197762D01*
X26725762Y15316156D01*
X26632740Y15455374D01*
X26632739Y15455376D01*
X26568664Y15610065D01*
X26536000Y15774281D01*
X26536000Y15941719D01*
X26568664Y16105935D01*
X26632739Y16260624D01*
X26704465Y16367970D01*
X26725762Y16399844D01*
X26844156Y16518238D01*
X26983374Y16611260D01*
X26983376Y16611261D01*
X27138065Y16675336D01*
X27302281Y16708000D01*
X27469719Y16708000D01*
X27633935Y16675336D01*
X27633935Y16675336D01*
G37*
G36*
X30133935Y16675336D02*
G01*
X30288624Y16611261D01*
X30288626Y16611260D01*
X30427844Y16518238D01*
X30546238Y16399844D01*
X30567535Y16367970D01*
X30639261Y16260624D01*
X30703336Y16105935D01*
X30736000Y15941719D01*
X30736000Y15774281D01*
X30703336Y15610065D01*
X30639261Y15455376D01*
X30639260Y15455374D01*
X30546238Y15316156D01*
X30427844Y15197762D01*
X30288626Y15104740D01*
X30288625Y15104739D01*
X30288624Y15104739D01*
X30133935Y15040664D01*
X29969719Y15008000D01*
X29802281Y15008000D01*
X29638065Y15040664D01*
X29483376Y15104739D01*
X29483375Y15104739D01*
X29483374Y15104740D01*
X29344156Y15197762D01*
X29225762Y15316156D01*
X29132740Y15455374D01*
X29132739Y15455376D01*
X29068664Y15610065D01*
X29036000Y15774281D01*
X29036000Y15941719D01*
X29068664Y16105935D01*
X29132739Y16260624D01*
X29204465Y16367970D01*
X29225762Y16399844D01*
X29344156Y16518238D01*
X29483374Y16611260D01*
X29483376Y16611261D01*
X29638065Y16675336D01*
X29802281Y16708000D01*
X29969719Y16708000D01*
X30133935Y16675336D01*
X30133935Y16675336D01*
G37*
G36*
X45153351Y16627257D02*
G01*
X45298941Y16566952D01*
X45429970Y16479401D01*
X45541401Y16367970D01*
X45628952Y16236941D01*
X45689257Y16091351D01*
X45720000Y15936794D01*
X45720000Y15779206D01*
X45689257Y15624649D01*
X45628952Y15479059D01*
X45541401Y15348030D01*
X45429970Y15236599D01*
X45298941Y15149048D01*
X45153351Y15088743D01*
X44998794Y15058000D01*
X44841206Y15058000D01*
X44686649Y15088743D01*
X44541059Y15149048D01*
X44410030Y15236599D01*
X44298599Y15348030D01*
X44211048Y15479059D01*
X44150743Y15624649D01*
X44120000Y15779206D01*
X44120000Y15936794D01*
X44150743Y16091351D01*
X44211048Y16236941D01*
X44298599Y16367970D01*
X44410030Y16479401D01*
X44541059Y16566952D01*
X44686649Y16627257D01*
X44841206Y16658000D01*
X44998794Y16658000D01*
X45153351Y16627257D01*
X45153351Y16627257D01*
G37*
G36*
X19499351Y16627257D02*
G01*
X19644941Y16566952D01*
X19775970Y16479401D01*
X19887401Y16367970D01*
X19974952Y16236941D01*
X20035257Y16091351D01*
X20066000Y15936794D01*
X20066000Y15779206D01*
X20035257Y15624649D01*
X19974952Y15479059D01*
X19887401Y15348030D01*
X19775970Y15236599D01*
X19644941Y15149048D01*
X19499351Y15088743D01*
X19344794Y15058000D01*
X19187206Y15058000D01*
X19032649Y15088743D01*
X18887059Y15149048D01*
X18756030Y15236599D01*
X18644599Y15348030D01*
X18557048Y15479059D01*
X18496743Y15624649D01*
X18466000Y15779206D01*
X18466000Y15936794D01*
X18496743Y16091351D01*
X18557048Y16236941D01*
X18644599Y16367970D01*
X18756030Y16479401D01*
X18887059Y16566952D01*
X19032649Y16627257D01*
X19187206Y16658000D01*
X19344794Y16658000D01*
X19499351Y16627257D01*
X19499351Y16627257D01*
G37*
G36*
X22999351Y16627257D02*
G01*
X23144941Y16566952D01*
X23275970Y16479401D01*
X23387401Y16367970D01*
X23474952Y16236941D01*
X23535257Y16091351D01*
X23566000Y15936794D01*
X23566000Y15779206D01*
X23535257Y15624649D01*
X23474952Y15479059D01*
X23387401Y15348030D01*
X23275970Y15236599D01*
X23144941Y15149048D01*
X22999351Y15088743D01*
X22844794Y15058000D01*
X22687206Y15058000D01*
X22532649Y15088743D01*
X22387059Y15149048D01*
X22256030Y15236599D01*
X22144599Y15348030D01*
X22057048Y15479059D01*
X21996743Y15624649D01*
X21966000Y15779206D01*
X21966000Y15936794D01*
X21996743Y16091351D01*
X22057048Y16236941D01*
X22144599Y16367970D01*
X22256030Y16479401D01*
X22387059Y16566952D01*
X22532649Y16627257D01*
X22687206Y16658000D01*
X22844794Y16658000D01*
X22999351Y16627257D01*
X22999351Y16627257D01*
G37*
G36*
X48653351Y16627257D02*
G01*
X48798941Y16566952D01*
X48929970Y16479401D01*
X49041401Y16367970D01*
X49128952Y16236941D01*
X49189257Y16091351D01*
X49220000Y15936794D01*
X49220000Y15779206D01*
X49189257Y15624649D01*
X49128952Y15479059D01*
X49041401Y15348030D01*
X48929970Y15236599D01*
X48798941Y15149048D01*
X48653351Y15088743D01*
X48498794Y15058000D01*
X48341206Y15058000D01*
X48186649Y15088743D01*
X48041059Y15149048D01*
X47910030Y15236599D01*
X47798599Y15348030D01*
X47711048Y15479059D01*
X47650743Y15624649D01*
X47620000Y15779206D01*
X47620000Y15936794D01*
X47650743Y16091351D01*
X47711048Y16236941D01*
X47798599Y16367970D01*
X47910030Y16479401D01*
X48041059Y16566952D01*
X48186649Y16627257D01*
X48341206Y16658000D01*
X48498794Y16658000D01*
X48653351Y16627257D01*
X48653351Y16627257D01*
G37*
G36*
X79050000Y15600000D02*
G01*
X78150000Y15600000D01*
X78150000Y16500000D01*
X79050000Y16500000D01*
X79050000Y15600000D01*
X79050000Y15600000D01*
G37*
G36*
X81550000Y15600000D02*
G01*
X80650000Y15600000D01*
X80650000Y16500000D01*
X81550000Y16500000D01*
X81550000Y15600000D01*
X81550000Y15600000D01*
G37*
G36*
X76550000Y15600000D02*
G01*
X75650000Y15600000D01*
X75650000Y16500000D01*
X76550000Y16500000D01*
X76550000Y15600000D01*
X76550000Y15600000D01*
G37*
G36*
X94543351Y17513257D02*
G01*
X94688941Y17452952D01*
X94819970Y17365401D01*
X94931401Y17253970D01*
X95018952Y17122941D01*
X95079257Y16977351D01*
X95110000Y16822794D01*
X95110000Y16665206D01*
X95079257Y16510649D01*
X95018952Y16365059D01*
X94931401Y16234030D01*
X94819970Y16122599D01*
X94688941Y16035048D01*
X94543351Y15974743D01*
X94388794Y15944000D01*
X94231206Y15944000D01*
X94076649Y15974743D01*
X93931059Y16035048D01*
X93800030Y16122599D01*
X93688599Y16234030D01*
X93601048Y16365059D01*
X93540743Y16510649D01*
X93510000Y16665206D01*
X93510000Y16822794D01*
X93540743Y16977351D01*
X93601048Y17122941D01*
X93688599Y17253970D01*
X93800030Y17365401D01*
X93931059Y17452952D01*
X94076649Y17513257D01*
X94231206Y17544000D01*
X94388794Y17544000D01*
X94543351Y17513257D01*
X94543351Y17513257D01*
G37*
G36*
X92543351Y17513257D02*
G01*
X92688941Y17452952D01*
X92819970Y17365401D01*
X92931401Y17253970D01*
X93018952Y17122941D01*
X93079257Y16977351D01*
X93110000Y16822794D01*
X93110000Y16665206D01*
X93079257Y16510649D01*
X93018952Y16365059D01*
X92931401Y16234030D01*
X92819970Y16122599D01*
X92688941Y16035048D01*
X92543351Y15974743D01*
X92388794Y15944000D01*
X92231206Y15944000D01*
X92076649Y15974743D01*
X91931059Y16035048D01*
X91800030Y16122599D01*
X91688599Y16234030D01*
X91601048Y16365059D01*
X91540743Y16510649D01*
X91510000Y16665206D01*
X91510000Y16822794D01*
X91540743Y16977351D01*
X91601048Y17122941D01*
X91688599Y17253970D01*
X91800030Y17365401D01*
X91931059Y17452952D01*
X92076649Y17513257D01*
X92231206Y17544000D01*
X92388794Y17544000D01*
X92543351Y17513257D01*
X92543351Y17513257D01*
G37*
G36*
X97750000Y15974000D02*
G01*
X96450000Y15974000D01*
X96450000Y16874000D01*
X97750000Y16874000D01*
X97750000Y15974000D01*
X97750000Y15974000D01*
G37*
G36*
X87402000Y16241000D02*
G01*
X86502000Y16241000D01*
X86502000Y17541000D01*
X87402000Y17541000D01*
X87402000Y16241000D01*
X87402000Y16241000D01*
G37*
G36*
X85202000Y16241000D02*
G01*
X84302000Y16241000D01*
X84302000Y17541000D01*
X85202000Y17541000D01*
X85202000Y16241000D01*
X85202000Y16241000D01*
G37*
G36*
X81550000Y17500000D02*
G01*
X80650000Y17500000D01*
X80650000Y18400000D01*
X81550000Y18400000D01*
X81550000Y17500000D01*
X81550000Y17500000D01*
G37*
G36*
X76550000Y17500000D02*
G01*
X75650000Y17500000D01*
X75650000Y18400000D01*
X76550000Y18400000D01*
X76550000Y17500000D01*
X76550000Y17500000D01*
G37*
G36*
X79050000Y17500000D02*
G01*
X78150000Y17500000D01*
X78150000Y18400000D01*
X79050000Y18400000D01*
X79050000Y17500000D01*
X79050000Y17500000D01*
G37*
G36*
X3408351Y19692257D02*
G01*
X3553941Y19631952D01*
X3684970Y19544401D01*
X3796401Y19432970D01*
X3883952Y19301941D01*
X3944257Y19156351D01*
X3975000Y19001794D01*
X3975000Y18844206D01*
X3944257Y18689649D01*
X3883952Y18544059D01*
X3796401Y18413030D01*
X3684970Y18301599D01*
X3553941Y18214048D01*
X3408351Y18153743D01*
X3253794Y18123000D01*
X3096206Y18123000D01*
X2941649Y18153743D01*
X2796059Y18214048D01*
X2665030Y18301599D01*
X2553599Y18413030D01*
X2466048Y18544059D01*
X2405743Y18689649D01*
X2375000Y18844206D01*
X2375000Y19001794D01*
X2405743Y19156351D01*
X2466048Y19301941D01*
X2553599Y19432970D01*
X2665030Y19544401D01*
X2796059Y19631952D01*
X2941649Y19692257D01*
X3096206Y19723000D01*
X3253794Y19723000D01*
X3408351Y19692257D01*
X3408351Y19692257D01*
G37*
G36*
X5948351Y19692257D02*
G01*
X6093941Y19631952D01*
X6224970Y19544401D01*
X6336401Y19432970D01*
X6423952Y19301941D01*
X6484257Y19156351D01*
X6515000Y19001794D01*
X6515000Y18844206D01*
X6484257Y18689649D01*
X6423952Y18544059D01*
X6336401Y18413030D01*
X6224970Y18301599D01*
X6093941Y18214048D01*
X5948351Y18153743D01*
X5793794Y18123000D01*
X5636206Y18123000D01*
X5481649Y18153743D01*
X5336059Y18214048D01*
X5205030Y18301599D01*
X5093599Y18413030D01*
X5006048Y18544059D01*
X4945743Y18689649D01*
X4915000Y18844206D01*
X4915000Y19001794D01*
X4945743Y19156351D01*
X5006048Y19301941D01*
X5093599Y19432970D01*
X5205030Y19544401D01*
X5336059Y19631952D01*
X5481649Y19692257D01*
X5636206Y19723000D01*
X5793794Y19723000D01*
X5948351Y19692257D01*
X5948351Y19692257D01*
G37*
G36*
X10820766Y20897179D02*
G01*
X10957257Y20840642D01*
X11080097Y20758563D01*
X11184563Y20654097D01*
X11266642Y20531257D01*
X11323179Y20394766D01*
X11352000Y20249870D01*
X11352000Y20102130D01*
X11323179Y19957234D01*
X11266642Y19820743D01*
X11184563Y19697903D01*
X11080097Y19593437D01*
X10957257Y19511358D01*
X10820766Y19454821D01*
X10675870Y19426000D01*
X10528130Y19426000D01*
X10383234Y19454821D01*
X10246743Y19511358D01*
X10123903Y19593437D01*
X10019437Y19697903D01*
X9937358Y19820743D01*
X9880821Y19957234D01*
X9852000Y20102130D01*
X9852000Y20249870D01*
X9880821Y20394766D01*
X9937358Y20531257D01*
X10019437Y20654097D01*
X10123903Y20758563D01*
X10246743Y20840642D01*
X10383234Y20897179D01*
X10528130Y20926000D01*
X10675870Y20926000D01*
X10820766Y20897179D01*
X10820766Y20897179D01*
G37*
G36*
X15962000Y19526000D02*
G01*
X15062000Y19526000D01*
X15062000Y20826000D01*
X15962000Y20826000D01*
X15962000Y19526000D01*
X15962000Y19526000D01*
G37*
G36*
X13762000Y19526000D02*
G01*
X12862000Y19526000D01*
X12862000Y20826000D01*
X13762000Y20826000D01*
X13762000Y19526000D01*
X13762000Y19526000D01*
G37*
G36*
X61364200Y19717600D02*
G01*
X60464200Y19717600D01*
X60464200Y20617600D01*
X61364200Y20617600D01*
X61364200Y19717600D01*
X61364200Y19717600D01*
G37*
G36*
X63264200Y19717600D02*
G01*
X62364200Y19717600D01*
X62364200Y20617600D01*
X63264200Y20617600D01*
X63264200Y19717600D01*
X63264200Y19717600D01*
G37*
G36*
X66159800Y19743000D02*
G01*
X65259800Y19743000D01*
X65259800Y20643000D01*
X66159800Y20643000D01*
X66159800Y19743000D01*
X66159800Y19743000D01*
G37*
G36*
X71773200Y19743000D02*
G01*
X70873200Y19743000D01*
X70873200Y20643000D01*
X71773200Y20643000D01*
X71773200Y19743000D01*
X71773200Y19743000D01*
G37*
G36*
X68877600Y19743000D02*
G01*
X67977600Y19743000D01*
X67977600Y20643000D01*
X68877600Y20643000D01*
X68877600Y19743000D01*
X68877600Y19743000D01*
G37*
G36*
X89807874Y23154977D02*
G01*
X90081287Y23100592D01*
X90381568Y22976211D01*
X90651814Y22795639D01*
X90881639Y22565814D01*
X91062211Y22295568D01*
X91186592Y21995287D01*
X91217094Y21841941D01*
X91250000Y21676512D01*
X91250000Y21351488D01*
X91248877Y21345843D01*
X91186592Y21032713D01*
X91062211Y20732432D01*
X90881639Y20462186D01*
X90651814Y20232361D01*
X90381568Y20051789D01*
X90081287Y19927408D01*
X89807874Y19873023D01*
X89762512Y19864000D01*
X89437488Y19864000D01*
X89392126Y19873023D01*
X89118713Y19927408D01*
X88818432Y20051789D01*
X88548186Y20232361D01*
X88318361Y20462186D01*
X88137789Y20732432D01*
X88013408Y21032713D01*
X87951123Y21345843D01*
X87950000Y21351488D01*
X87950000Y21676512D01*
X87982906Y21841941D01*
X88013408Y21995287D01*
X88137789Y22295568D01*
X88318361Y22565814D01*
X88548186Y22795639D01*
X88818432Y22976211D01*
X89118713Y23100592D01*
X89392126Y23154977D01*
X89437488Y23164000D01*
X89762512Y23164000D01*
X89807874Y23154977D01*
X89807874Y23154977D01*
G37*
G36*
X5948351Y22232257D02*
G01*
X6093941Y22171952D01*
X6224970Y22084401D01*
X6336401Y21972970D01*
X6423952Y21841941D01*
X6484257Y21696351D01*
X6515000Y21541794D01*
X6515000Y21384206D01*
X6484257Y21229649D01*
X6423952Y21084059D01*
X6336401Y20953030D01*
X6224970Y20841599D01*
X6093941Y20754048D01*
X5948351Y20693743D01*
X5793794Y20663000D01*
X5636206Y20663000D01*
X5481649Y20693743D01*
X5336059Y20754048D01*
X5205030Y20841599D01*
X5093599Y20953030D01*
X5006048Y21084059D01*
X4945743Y21229649D01*
X4915000Y21384206D01*
X4915000Y21541794D01*
X4945743Y21696351D01*
X5006048Y21841941D01*
X5093599Y21972970D01*
X5205030Y22084401D01*
X5336059Y22171952D01*
X5481649Y22232257D01*
X5636206Y22263000D01*
X5793794Y22263000D01*
X5948351Y22232257D01*
X5948351Y22232257D01*
G37*
G36*
X3408351Y22232257D02*
G01*
X3553941Y22171952D01*
X3684970Y22084401D01*
X3796401Y21972970D01*
X3883952Y21841941D01*
X3944257Y21696351D01*
X3975000Y21541794D01*
X3975000Y21384206D01*
X3944257Y21229649D01*
X3883952Y21084059D01*
X3796401Y20953030D01*
X3684970Y20841599D01*
X3553941Y20754048D01*
X3408351Y20693743D01*
X3253794Y20663000D01*
X3096206Y20663000D01*
X2941649Y20693743D01*
X2796059Y20754048D01*
X2665030Y20841599D01*
X2553599Y20953030D01*
X2466048Y21084059D01*
X2405743Y21229649D01*
X2375000Y21384206D01*
X2375000Y21541794D01*
X2405743Y21696351D01*
X2466048Y21841941D01*
X2553599Y21972970D01*
X2665030Y22084401D01*
X2796059Y22171952D01*
X2941649Y22232257D01*
X3096206Y22263000D01*
X3253794Y22263000D01*
X3408351Y22232257D01*
X3408351Y22232257D01*
G37*
G36*
X74945843Y21680786D02*
G01*
X75036837Y21643095D01*
X75036839Y21643094D01*
X75078063Y21615549D01*
X75118730Y21588376D01*
X75188376Y21518730D01*
X75243095Y21436837D01*
X75280786Y21345843D01*
X75300000Y21249247D01*
X75300000Y21150753D01*
X75280786Y21054157D01*
X75243095Y20963163D01*
X75243094Y20963161D01*
X75188375Y20881269D01*
X75118731Y20811625D01*
X75036839Y20756906D01*
X75036838Y20756905D01*
X75036837Y20756905D01*
X74945843Y20719214D01*
X74849247Y20700000D01*
X74750753Y20700000D01*
X74654157Y20719214D01*
X74563163Y20756905D01*
X74563162Y20756905D01*
X74563161Y20756906D01*
X74481269Y20811625D01*
X74411625Y20881269D01*
X74356906Y20963161D01*
X74356905Y20963163D01*
X74319214Y21054157D01*
X74300000Y21150753D01*
X74300000Y21249247D01*
X74319214Y21345843D01*
X74356905Y21436837D01*
X74411624Y21518730D01*
X74481270Y21588376D01*
X74521937Y21615549D01*
X74563161Y21643094D01*
X74563163Y21643095D01*
X74654157Y21680786D01*
X74750753Y21700000D01*
X74849247Y21700000D01*
X74945843Y21680786D01*
X74945843Y21680786D01*
G37*
G36*
X68877600Y21643000D02*
G01*
X67977600Y21643000D01*
X67977600Y22543000D01*
X68877600Y22543000D01*
X68877600Y21643000D01*
X68877600Y21643000D01*
G37*
G36*
X66159800Y21643000D02*
G01*
X65259800Y21643000D01*
X65259800Y22543000D01*
X66159800Y22543000D01*
X66159800Y21643000D01*
X66159800Y21643000D01*
G37*
G36*
X71773200Y21643000D02*
G01*
X70873200Y21643000D01*
X70873200Y22543000D01*
X71773200Y22543000D01*
X71773200Y21643000D01*
X71773200Y21643000D01*
G37*
G36*
X59150000Y21900000D02*
G01*
X58250000Y21900000D01*
X58250000Y22800000D01*
X59150000Y22800000D01*
X59150000Y21900000D01*
X59150000Y21900000D01*
G37*
G36*
X81500000Y22550000D02*
G01*
X80600000Y22550000D01*
X80600000Y23850000D01*
X81500000Y23850000D01*
X81500000Y22550000D01*
X81500000Y22550000D01*
G37*
G36*
X79300000Y22550000D02*
G01*
X78400000Y22550000D01*
X78400000Y23850000D01*
X79300000Y23850000D01*
X79300000Y22550000D01*
X79300000Y22550000D01*
G37*
G36*
X10820766Y24199179D02*
G01*
X10957257Y24142642D01*
X11080097Y24060563D01*
X11184563Y23956097D01*
X11266642Y23833257D01*
X11323179Y23696766D01*
X11352000Y23551870D01*
X11352000Y23404130D01*
X11323179Y23259234D01*
X11266642Y23122743D01*
X11184563Y22999903D01*
X11080097Y22895437D01*
X10957257Y22813358D01*
X10820766Y22756821D01*
X10675870Y22728000D01*
X10528130Y22728000D01*
X10383234Y22756821D01*
X10246743Y22813358D01*
X10123903Y22895437D01*
X10019437Y22999903D01*
X9937358Y23122743D01*
X9880821Y23259234D01*
X9852000Y23404130D01*
X9852000Y23551870D01*
X9880821Y23696766D01*
X9937358Y23833257D01*
X10019437Y23956097D01*
X10123903Y24060563D01*
X10246743Y24142642D01*
X10383234Y24199179D01*
X10528130Y24228000D01*
X10675870Y24228000D01*
X10820766Y24199179D01*
X10820766Y24199179D01*
G37*
G36*
X15962000Y22828000D02*
G01*
X15062000Y22828000D01*
X15062000Y24128000D01*
X15962000Y24128000D01*
X15962000Y22828000D01*
X15962000Y22828000D01*
G37*
G36*
X13762000Y22828000D02*
G01*
X12862000Y22828000D01*
X12862000Y24128000D01*
X13762000Y24128000D01*
X13762000Y22828000D01*
X13762000Y22828000D01*
G37*
G36*
X3408351Y24772257D02*
G01*
X3553941Y24711952D01*
X3684970Y24624401D01*
X3796401Y24512970D01*
X3883952Y24381941D01*
X3944257Y24236351D01*
X3975000Y24081794D01*
X3975000Y23924206D01*
X3944257Y23769649D01*
X3883952Y23624059D01*
X3796401Y23493030D01*
X3684970Y23381599D01*
X3553941Y23294048D01*
X3408351Y23233743D01*
X3253794Y23203000D01*
X3096206Y23203000D01*
X2941649Y23233743D01*
X2796059Y23294048D01*
X2665030Y23381599D01*
X2553599Y23493030D01*
X2466048Y23624059D01*
X2405743Y23769649D01*
X2375000Y23924206D01*
X2375000Y24081794D01*
X2405743Y24236351D01*
X2466048Y24381941D01*
X2553599Y24512970D01*
X2665030Y24624401D01*
X2796059Y24711952D01*
X2941649Y24772257D01*
X3096206Y24803000D01*
X3253794Y24803000D01*
X3408351Y24772257D01*
X3408351Y24772257D01*
G37*
G36*
X5948351Y24772257D02*
G01*
X6093941Y24711952D01*
X6224970Y24624401D01*
X6336401Y24512970D01*
X6423952Y24381941D01*
X6484257Y24236351D01*
X6515000Y24081794D01*
X6515000Y23924206D01*
X6484257Y23769649D01*
X6423952Y23624059D01*
X6336401Y23493030D01*
X6224970Y23381599D01*
X6093941Y23294048D01*
X5948351Y23233743D01*
X5793794Y23203000D01*
X5636206Y23203000D01*
X5481649Y23233743D01*
X5336059Y23294048D01*
X5205030Y23381599D01*
X5093599Y23493030D01*
X5006048Y23624059D01*
X4945743Y23769649D01*
X4915000Y23924206D01*
X4915000Y24081794D01*
X4945743Y24236351D01*
X5006048Y24381941D01*
X5093599Y24512970D01*
X5205030Y24624401D01*
X5336059Y24711952D01*
X5481649Y24772257D01*
X5636206Y24803000D01*
X5793794Y24803000D01*
X5948351Y24772257D01*
X5948351Y24772257D01*
G37*
G36*
X59150000Y23800000D02*
G01*
X58250000Y23800000D01*
X58250000Y24700000D01*
X59150000Y24700000D01*
X59150000Y23800000D01*
X59150000Y23800000D01*
G37*
G36*
X67805027Y29324984D02*
G01*
X67899282Y29296392D01*
X67986140Y29249965D01*
X68062276Y29187482D01*
X68124759Y29111346D01*
X68171187Y29024487D01*
X68173556Y29016676D01*
X68182933Y28994037D01*
X68196547Y28973662D01*
X68213874Y28956335D01*
X68234248Y28942721D01*
X68256887Y28933344D01*
X68280920Y28928563D01*
X68305424Y28928563D01*
X68329457Y28933343D01*
X68352097Y28942721D01*
X68745672Y29153091D01*
X68745674Y29153092D01*
X69216926Y29296045D01*
X69400562Y29314131D01*
X69584197Y29332218D01*
X69829827Y29332218D01*
X70013462Y29314131D01*
X70197098Y29296045D01*
X70668350Y29153092D01*
X70668352Y29153091D01*
X71061927Y28942721D01*
X71084566Y28933343D01*
X71108599Y28928563D01*
X71133103Y28928563D01*
X71157136Y28933343D01*
X71179775Y28942721D01*
X71200150Y28956334D01*
X71217477Y28973661D01*
X71231090Y28994036D01*
X71240468Y29016676D01*
X71242837Y29024487D01*
X71289265Y29111346D01*
X71351748Y29187482D01*
X71427884Y29249965D01*
X71514742Y29296392D01*
X71608997Y29324984D01*
X71682448Y29332218D01*
X71731576Y29332218D01*
X71805027Y29324984D01*
X71899282Y29296392D01*
X71986140Y29249965D01*
X72062276Y29187482D01*
X72124759Y29111346D01*
X72171186Y29024488D01*
X72199778Y28930233D01*
X72209431Y28832218D01*
X72199778Y28734203D01*
X72171186Y28639948D01*
X72124759Y28553090D01*
X72062276Y28476954D01*
X71986140Y28414471D01*
X71899281Y28368043D01*
X71891470Y28365674D01*
X71868831Y28356297D01*
X71848456Y28342683D01*
X71831129Y28325356D01*
X71817515Y28304982D01*
X71808138Y28282343D01*
X71803357Y28258310D01*
X71803357Y28233806D01*
X71808137Y28209773D01*
X71817515Y28187133D01*
X72027885Y27793558D01*
X72027886Y27793556D01*
X72170839Y27322304D01*
X72219108Y26832218D01*
X72170839Y26342132D01*
X72043271Y25921599D01*
X72027885Y25870878D01*
X71817515Y25477303D01*
X71808137Y25454664D01*
X71803357Y25430631D01*
X71803357Y25406127D01*
X71808137Y25382094D01*
X71817515Y25359455D01*
X71831128Y25339080D01*
X71848455Y25321753D01*
X71868830Y25308140D01*
X71891470Y25298762D01*
X71899281Y25296393D01*
X71986140Y25249965D01*
X72062276Y25187482D01*
X72124759Y25111346D01*
X72171186Y25024488D01*
X72199778Y24930233D01*
X72209431Y24832218D01*
X72199778Y24734203D01*
X72171186Y24639948D01*
X72124759Y24553090D01*
X72062276Y24476954D01*
X71986140Y24414471D01*
X71899282Y24368044D01*
X71805027Y24339452D01*
X71731576Y24332218D01*
X71682448Y24332218D01*
X71608997Y24339452D01*
X71514742Y24368044D01*
X71427884Y24414471D01*
X71351748Y24476954D01*
X71289265Y24553090D01*
X71242837Y24639949D01*
X71240468Y24647760D01*
X71231091Y24670399D01*
X71217477Y24690774D01*
X71200150Y24708101D01*
X71179776Y24721715D01*
X71157137Y24731092D01*
X71133104Y24735873D01*
X71108600Y24735873D01*
X71084567Y24731093D01*
X71061927Y24721715D01*
X70671392Y24512970D01*
X70668350Y24511344D01*
X70197098Y24368391D01*
X70013461Y24350304D01*
X69829827Y24332218D01*
X69584197Y24332218D01*
X69400563Y24350304D01*
X69216926Y24368391D01*
X68745674Y24511344D01*
X68742632Y24512970D01*
X68352097Y24721715D01*
X68329458Y24731093D01*
X68305425Y24735873D01*
X68280921Y24735873D01*
X68256888Y24731093D01*
X68234249Y24721715D01*
X68213874Y24708102D01*
X68196547Y24690775D01*
X68182934Y24670400D01*
X68173556Y24647760D01*
X68171187Y24639949D01*
X68124759Y24553090D01*
X68062276Y24476954D01*
X67986140Y24414471D01*
X67899282Y24368044D01*
X67805027Y24339452D01*
X67731576Y24332218D01*
X67682448Y24332218D01*
X67608997Y24339452D01*
X67514742Y24368044D01*
X67427884Y24414471D01*
X67351748Y24476954D01*
X67289265Y24553090D01*
X67242838Y24639948D01*
X67214246Y24734203D01*
X67204593Y24832218D01*
X67214246Y24930233D01*
X67242838Y25024488D01*
X67289265Y25111346D01*
X67351748Y25187482D01*
X67427884Y25249965D01*
X67514743Y25296393D01*
X67522554Y25298762D01*
X67545193Y25308139D01*
X67565568Y25321753D01*
X67582895Y25339080D01*
X67596509Y25359454D01*
X67605886Y25382093D01*
X67610667Y25406126D01*
X67610667Y25430630D01*
X67605887Y25454663D01*
X67596509Y25477303D01*
X67386139Y25870878D01*
X67370753Y25921599D01*
X67243185Y26342132D01*
X67194916Y26832218D01*
X67243185Y27322304D01*
X67386138Y27793556D01*
X67386139Y27793558D01*
X67596509Y28187133D01*
X67605887Y28209772D01*
X67610667Y28233805D01*
X67610667Y28258309D01*
X67605887Y28282342D01*
X67596509Y28304981D01*
X67582896Y28325356D01*
X67565569Y28342683D01*
X67545194Y28356296D01*
X67522554Y28365674D01*
X67514743Y28368043D01*
X67427884Y28414471D01*
X67351748Y28476954D01*
X67289265Y28553090D01*
X67242838Y28639948D01*
X67214246Y28734203D01*
X67204593Y28832218D01*
X67214246Y28930233D01*
X67242838Y29024488D01*
X67289265Y29111346D01*
X67351748Y29187482D01*
X67427884Y29249965D01*
X67514742Y29296392D01*
X67608997Y29324984D01*
X67682448Y29332218D01*
X67731576Y29332218D01*
X67805027Y29324984D01*
X67805027Y29324984D01*
G37*
G36*
X95437534Y27442357D02*
G01*
X95710515Y27329284D01*
X95710517Y27329283D01*
X95735998Y27312257D01*
X95956193Y27165127D01*
X96165127Y26956193D01*
X96329284Y26710515D01*
X96442357Y26437534D01*
X96500000Y26147738D01*
X96500000Y25852262D01*
X96442357Y25562466D01*
X96329284Y25289485D01*
X96165127Y25043807D01*
X95956193Y24834873D01*
X95862482Y24772257D01*
X95710517Y24670717D01*
X95710516Y24670716D01*
X95710515Y24670716D01*
X95437534Y24557643D01*
X95147738Y24500000D01*
X94852262Y24500000D01*
X94562466Y24557643D01*
X94289485Y24670716D01*
X94289484Y24670716D01*
X94289483Y24670717D01*
X94137518Y24772257D01*
X94043807Y24834873D01*
X93834873Y25043807D01*
X93670716Y25289485D01*
X93557643Y25562466D01*
X93500000Y25852262D01*
X93500000Y26147738D01*
X93557643Y26437534D01*
X93670716Y26710515D01*
X93834873Y26956193D01*
X94043807Y27165127D01*
X94264002Y27312257D01*
X94289483Y27329283D01*
X94289485Y27329284D01*
X94562466Y27442357D01*
X94852262Y27500000D01*
X95147738Y27500000D01*
X95437534Y27442357D01*
X95437534Y27442357D01*
G37*
G36*
X76711000Y24823000D02*
G01*
X75811000Y24823000D01*
X75811000Y25723000D01*
X76711000Y25723000D01*
X76711000Y24823000D01*
X76711000Y24823000D01*
G37*
G36*
X74811000Y24823000D02*
G01*
X73911000Y24823000D01*
X73911000Y25723000D01*
X74811000Y25723000D01*
X74811000Y24823000D01*
X74811000Y24823000D01*
G37*
G36*
X63508000Y24950000D02*
G01*
X62608000Y24950000D01*
X62608000Y25850000D01*
X63508000Y25850000D01*
X63508000Y24950000D01*
X63508000Y24950000D01*
G37*
G36*
X65408000Y24950000D02*
G01*
X64508000Y24950000D01*
X64508000Y25850000D01*
X65408000Y25850000D01*
X65408000Y24950000D01*
X65408000Y24950000D01*
G37*
G36*
X86472000Y25131000D02*
G01*
X85572000Y25131000D01*
X85572000Y26431000D01*
X86472000Y26431000D01*
X86472000Y25131000D01*
X86472000Y25131000D01*
G37*
G36*
X88672000Y25131000D02*
G01*
X87772000Y25131000D01*
X87772000Y26431000D01*
X88672000Y26431000D01*
X88672000Y25131000D01*
X88672000Y25131000D01*
G37*
G36*
X3408351Y27312257D02*
G01*
X3553941Y27251952D01*
X3684970Y27164401D01*
X3796401Y27052970D01*
X3883952Y26921941D01*
X3944257Y26776351D01*
X3975000Y26621794D01*
X3975000Y26464206D01*
X3944257Y26309649D01*
X3883952Y26164059D01*
X3796401Y26033030D01*
X3684970Y25921599D01*
X3553941Y25834048D01*
X3408351Y25773743D01*
X3253794Y25743000D01*
X3096206Y25743000D01*
X2941649Y25773743D01*
X2796059Y25834048D01*
X2665030Y25921599D01*
X2553599Y26033030D01*
X2466048Y26164059D01*
X2405743Y26309649D01*
X2375000Y26464206D01*
X2375000Y26621794D01*
X2405743Y26776351D01*
X2466048Y26921941D01*
X2553599Y27052970D01*
X2665030Y27164401D01*
X2796059Y27251952D01*
X2941649Y27312257D01*
X3096206Y27343000D01*
X3253794Y27343000D01*
X3408351Y27312257D01*
X3408351Y27312257D01*
G37*
G36*
X5948351Y27312257D02*
G01*
X6093941Y27251952D01*
X6224970Y27164401D01*
X6336401Y27052970D01*
X6423952Y26921941D01*
X6484257Y26776351D01*
X6515000Y26621794D01*
X6515000Y26464206D01*
X6484257Y26309649D01*
X6423952Y26164059D01*
X6336401Y26033030D01*
X6224970Y25921599D01*
X6093941Y25834048D01*
X5948351Y25773743D01*
X5793794Y25743000D01*
X5636206Y25743000D01*
X5481649Y25773743D01*
X5336059Y25834048D01*
X5205030Y25921599D01*
X5093599Y26033030D01*
X5006048Y26164059D01*
X4945743Y26309649D01*
X4915000Y26464206D01*
X4915000Y26621794D01*
X4945743Y26776351D01*
X5006048Y26921941D01*
X5093599Y27052970D01*
X5205030Y27164401D01*
X5336059Y27251952D01*
X5481649Y27312257D01*
X5636206Y27343000D01*
X5793794Y27343000D01*
X5948351Y27312257D01*
X5948351Y27312257D01*
G37*
G36*
X57000000Y25950000D02*
G01*
X56100000Y25950000D01*
X56100000Y26850000D01*
X57000000Y26850000D01*
X57000000Y25950000D01*
X57000000Y25950000D01*
G37*
G36*
X58900000Y25950000D02*
G01*
X58000000Y25950000D01*
X58000000Y26850000D01*
X58900000Y26850000D01*
X58900000Y25950000D01*
X58900000Y25950000D01*
G37*
G36*
X10820766Y27501179D02*
G01*
X10957257Y27444642D01*
X11080097Y27362563D01*
X11184563Y27258097D01*
X11266642Y27135257D01*
X11323179Y26998766D01*
X11352000Y26853870D01*
X11352000Y26706130D01*
X11323179Y26561234D01*
X11266642Y26424743D01*
X11184563Y26301903D01*
X11080097Y26197437D01*
X10957257Y26115358D01*
X10820766Y26058821D01*
X10675870Y26030000D01*
X10528130Y26030000D01*
X10383234Y26058821D01*
X10246743Y26115358D01*
X10123903Y26197437D01*
X10019437Y26301903D01*
X9937358Y26424743D01*
X9880821Y26561234D01*
X9852000Y26706130D01*
X9852000Y26853870D01*
X9880821Y26998766D01*
X9937358Y27135257D01*
X10019437Y27258097D01*
X10123903Y27362563D01*
X10246743Y27444642D01*
X10383234Y27501179D01*
X10528130Y27530000D01*
X10675870Y27530000D01*
X10820766Y27501179D01*
X10820766Y27501179D01*
G37*
G36*
X38060000Y26130000D02*
G01*
X37160000Y26130000D01*
X37160000Y27430000D01*
X38060000Y27430000D01*
X38060000Y26130000D01*
X38060000Y26130000D01*
G37*
G36*
X13762000Y26130000D02*
G01*
X12862000Y26130000D01*
X12862000Y27430000D01*
X13762000Y27430000D01*
X13762000Y26130000D01*
X13762000Y26130000D01*
G37*
G36*
X15962000Y26130000D02*
G01*
X15062000Y26130000D01*
X15062000Y27430000D01*
X15962000Y27430000D01*
X15962000Y26130000D01*
X15962000Y26130000D01*
G37*
G36*
X35860000Y26130000D02*
G01*
X34960000Y26130000D01*
X34960000Y27430000D01*
X35860000Y27430000D01*
X35860000Y26130000D01*
X35860000Y26130000D01*
G37*
G36*
X18618766Y28921179D02*
G01*
X18755257Y28864642D01*
X18878097Y28782563D01*
X18982563Y28678097D01*
X19064642Y28555257D01*
X19121179Y28418766D01*
X19150000Y28273870D01*
X19150000Y28126130D01*
X19121179Y27981234D01*
X19064642Y27844743D01*
X18982563Y27721903D01*
X18878097Y27617437D01*
X18755257Y27535358D01*
X18618766Y27478821D01*
X18473870Y27450000D01*
X18326130Y27450000D01*
X18181234Y27478821D01*
X18044743Y27535358D01*
X17921903Y27617437D01*
X17817437Y27721903D01*
X17735358Y27844743D01*
X17678821Y27981234D01*
X17650000Y28126130D01*
X17650000Y28273870D01*
X17678821Y28418766D01*
X17735358Y28555257D01*
X17817437Y28678097D01*
X17921903Y28782563D01*
X18044743Y28864642D01*
X18181234Y28921179D01*
X18326130Y28950000D01*
X18473870Y28950000D01*
X18618766Y28921179D01*
X18618766Y28921179D01*
G37*
G36*
X65392800Y27540800D02*
G01*
X64492800Y27540800D01*
X64492800Y28440800D01*
X65392800Y28440800D01*
X65392800Y27540800D01*
X65392800Y27540800D01*
G37*
G36*
X63492800Y27540800D02*
G01*
X62592800Y27540800D01*
X62592800Y28440800D01*
X63492800Y28440800D01*
X63492800Y27540800D01*
X63492800Y27540800D01*
G37*
G36*
X76711000Y27553500D02*
G01*
X75811000Y27553500D01*
X75811000Y28453500D01*
X76711000Y28453500D01*
X76711000Y27553500D01*
X76711000Y27553500D01*
G37*
G36*
X74811000Y27553500D02*
G01*
X73911000Y27553500D01*
X73911000Y28453500D01*
X74811000Y28453500D01*
X74811000Y27553500D01*
X74811000Y27553500D01*
G37*
G36*
X89067351Y29835257D02*
G01*
X89212941Y29774952D01*
X89343970Y29687401D01*
X89455401Y29575970D01*
X89542952Y29444941D01*
X89603257Y29299351D01*
X89634000Y29144794D01*
X89634000Y28987206D01*
X89603257Y28832649D01*
X89542952Y28687059D01*
X89455401Y28556030D01*
X89343970Y28444599D01*
X89212941Y28357048D01*
X89067351Y28296743D01*
X88912794Y28266000D01*
X88755206Y28266000D01*
X88600649Y28296743D01*
X88455059Y28357048D01*
X88324030Y28444599D01*
X88212599Y28556030D01*
X88125048Y28687059D01*
X88064743Y28832649D01*
X88034000Y28987206D01*
X88034000Y29144794D01*
X88064743Y29299351D01*
X88125048Y29444941D01*
X88212599Y29575970D01*
X88324030Y29687401D01*
X88455059Y29774952D01*
X88600649Y29835257D01*
X88755206Y29866000D01*
X88912794Y29866000D01*
X89067351Y29835257D01*
X89067351Y29835257D01*
G37*
G36*
X91607351Y29835257D02*
G01*
X91752941Y29774952D01*
X91883970Y29687401D01*
X91995401Y29575970D01*
X92082952Y29444941D01*
X92143257Y29299351D01*
X92174000Y29144794D01*
X92174000Y28987206D01*
X92143257Y28832649D01*
X92082952Y28687059D01*
X91995401Y28556030D01*
X91883970Y28444599D01*
X91752941Y28357048D01*
X91607351Y28296743D01*
X91452794Y28266000D01*
X91295206Y28266000D01*
X91140649Y28296743D01*
X90995059Y28357048D01*
X90864030Y28444599D01*
X90752599Y28556030D01*
X90665048Y28687059D01*
X90604743Y28832649D01*
X90574000Y28987206D01*
X90574000Y29144794D01*
X90604743Y29299351D01*
X90665048Y29444941D01*
X90752599Y29575970D01*
X90864030Y29687401D01*
X90995059Y29774952D01*
X91140649Y29835257D01*
X91295206Y29866000D01*
X91452794Y29866000D01*
X91607351Y29835257D01*
X91607351Y29835257D01*
G37*
G36*
X5948351Y29852257D02*
G01*
X6093941Y29791952D01*
X6224970Y29704401D01*
X6336401Y29592970D01*
X6423952Y29461941D01*
X6484257Y29316351D01*
X6515000Y29161794D01*
X6515000Y29004206D01*
X6484257Y28849649D01*
X6423952Y28704059D01*
X6336401Y28573030D01*
X6224970Y28461599D01*
X6093941Y28374048D01*
X5948351Y28313743D01*
X5793794Y28283000D01*
X5636206Y28283000D01*
X5481649Y28313743D01*
X5336059Y28374048D01*
X5205030Y28461599D01*
X5093599Y28573030D01*
X5006048Y28704059D01*
X4945743Y28849649D01*
X4915000Y29004206D01*
X4915000Y29161794D01*
X4945743Y29316351D01*
X5006048Y29461941D01*
X5093599Y29592970D01*
X5205030Y29704401D01*
X5336059Y29791952D01*
X5481649Y29852257D01*
X5636206Y29883000D01*
X5793794Y29883000D01*
X5948351Y29852257D01*
X5948351Y29852257D01*
G37*
G36*
X3975000Y28283000D02*
G01*
X2375000Y28283000D01*
X2375000Y29883000D01*
X3975000Y29883000D01*
X3975000Y28283000D01*
X3975000Y28283000D01*
G37*
G36*
X55738000Y28814000D02*
G01*
X54838000Y28814000D01*
X54838000Y30114000D01*
X55738000Y30114000D01*
X55738000Y28814000D01*
X55738000Y28814000D01*
G37*
G36*
X57938000Y28814000D02*
G01*
X57038000Y28814000D01*
X57038000Y30114000D01*
X57938000Y30114000D01*
X57938000Y28814000D01*
X57938000Y28814000D01*
G37*
G36*
X84120000Y29178000D02*
G01*
X83220000Y29178000D01*
X83220000Y30478000D01*
X84120000Y30478000D01*
X84120000Y29178000D01*
X84120000Y29178000D01*
G37*
G36*
X86320000Y29178000D02*
G01*
X85420000Y29178000D01*
X85420000Y30478000D01*
X86320000Y30478000D01*
X86320000Y29178000D01*
X86320000Y29178000D01*
G37*
G36*
X10820766Y30803179D02*
G01*
X10957257Y30746642D01*
X11080097Y30664563D01*
X11184563Y30560097D01*
X11266642Y30437257D01*
X11323179Y30300766D01*
X11352000Y30155870D01*
X11352000Y30008130D01*
X11323179Y29863234D01*
X11266642Y29726743D01*
X11184563Y29603903D01*
X11080097Y29499437D01*
X10957257Y29417358D01*
X10820766Y29360821D01*
X10675870Y29332000D01*
X10528130Y29332000D01*
X10383234Y29360821D01*
X10246743Y29417358D01*
X10123903Y29499437D01*
X10019437Y29603903D01*
X9937358Y29726743D01*
X9880821Y29863234D01*
X9852000Y30008130D01*
X9852000Y30155870D01*
X9880821Y30300766D01*
X9937358Y30437257D01*
X10019437Y30560097D01*
X10123903Y30664563D01*
X10246743Y30746642D01*
X10383234Y30803179D01*
X10528130Y30832000D01*
X10675870Y30832000D01*
X10820766Y30803179D01*
X10820766Y30803179D01*
G37*
G36*
X13762000Y29432000D02*
G01*
X12862000Y29432000D01*
X12862000Y30732000D01*
X13762000Y30732000D01*
X13762000Y29432000D01*
X13762000Y29432000D01*
G37*
G36*
X15962000Y29432000D02*
G01*
X15062000Y29432000D01*
X15062000Y30732000D01*
X15962000Y30732000D01*
X15962000Y29432000D01*
X15962000Y29432000D01*
G37*
G36*
X65392800Y30131600D02*
G01*
X64492800Y30131600D01*
X64492800Y31031600D01*
X65392800Y31031600D01*
X65392800Y30131600D01*
X65392800Y30131600D01*
G37*
G36*
X63492800Y30131600D02*
G01*
X62592800Y30131600D01*
X62592800Y31031600D01*
X63492800Y31031600D01*
X63492800Y30131600D01*
X63492800Y30131600D01*
G37*
G36*
X74747500Y30157000D02*
G01*
X73847500Y30157000D01*
X73847500Y31057000D01*
X74747500Y31057000D01*
X74747500Y30157000D01*
X74747500Y30157000D01*
G37*
G36*
X76647500Y30157000D02*
G01*
X75747500Y30157000D01*
X75747500Y31057000D01*
X76647500Y31057000D01*
X76647500Y30157000D01*
X76647500Y30157000D01*
G37*
G36*
X89067351Y32375257D02*
G01*
X89212941Y32314952D01*
X89343970Y32227401D01*
X89455401Y32115970D01*
X89542952Y31984941D01*
X89603257Y31839351D01*
X89634000Y31684794D01*
X89634000Y31527206D01*
X89603257Y31372649D01*
X89542952Y31227059D01*
X89455401Y31096030D01*
X89343970Y30984599D01*
X89212941Y30897048D01*
X89067351Y30836743D01*
X88912794Y30806000D01*
X88755206Y30806000D01*
X88600649Y30836743D01*
X88455059Y30897048D01*
X88324030Y30984599D01*
X88212599Y31096030D01*
X88125048Y31227059D01*
X88064743Y31372649D01*
X88034000Y31527206D01*
X88034000Y31684794D01*
X88064743Y31839351D01*
X88125048Y31984941D01*
X88212599Y32115970D01*
X88324030Y32227401D01*
X88455059Y32314952D01*
X88600649Y32375257D01*
X88755206Y32406000D01*
X88912794Y32406000D01*
X89067351Y32375257D01*
X89067351Y32375257D01*
G37*
G36*
X91607351Y32375257D02*
G01*
X91752941Y32314952D01*
X91883970Y32227401D01*
X91995401Y32115970D01*
X92082952Y31984941D01*
X92143257Y31839351D01*
X92174000Y31684794D01*
X92174000Y31527206D01*
X92143257Y31372649D01*
X92082952Y31227059D01*
X91995401Y31096030D01*
X91883970Y30984599D01*
X91752941Y30897048D01*
X91607351Y30836743D01*
X91452794Y30806000D01*
X91295206Y30806000D01*
X91140649Y30836743D01*
X90995059Y30897048D01*
X90864030Y30984599D01*
X90752599Y31096030D01*
X90665048Y31227059D01*
X90604743Y31372649D01*
X90574000Y31527206D01*
X90574000Y31684794D01*
X90604743Y31839351D01*
X90665048Y31984941D01*
X90752599Y32115970D01*
X90864030Y32227401D01*
X90995059Y32314952D01*
X91140649Y32375257D01*
X91295206Y32406000D01*
X91452794Y32406000D01*
X91607351Y32375257D01*
X91607351Y32375257D01*
G37*
G36*
X71650000Y31100000D02*
G01*
X70750000Y31100000D01*
X70750000Y32000000D01*
X71650000Y32000000D01*
X71650000Y31100000D01*
X71650000Y31100000D01*
G37*
G36*
X68572800Y31152600D02*
G01*
X67672800Y31152600D01*
X67672800Y32052600D01*
X68572800Y32052600D01*
X68572800Y31152600D01*
X68572800Y31152600D01*
G37*
G36*
X22525000Y31210000D02*
G01*
X21625000Y31210000D01*
X21625000Y32510000D01*
X22525000Y32510000D01*
X22525000Y31210000D01*
X22525000Y31210000D01*
G37*
G36*
X24725000Y31210000D02*
G01*
X23825000Y31210000D01*
X23825000Y32510000D01*
X24725000Y32510000D01*
X24725000Y31210000D01*
X24725000Y31210000D01*
G37*
G36*
X61650000Y32000000D02*
G01*
X60350000Y32000000D01*
X60350000Y32900000D01*
X61650000Y32900000D01*
X61650000Y32000000D01*
X61650000Y32000000D01*
G37*
G36*
X10820766Y34105179D02*
G01*
X10957257Y34048642D01*
X11080097Y33966563D01*
X11184563Y33862097D01*
X11266642Y33739257D01*
X11323179Y33602766D01*
X11352000Y33457870D01*
X11352000Y33310130D01*
X11323179Y33165234D01*
X11266642Y33028743D01*
X11184563Y32905903D01*
X11080097Y32801437D01*
X10957257Y32719358D01*
X10820766Y32662821D01*
X10675870Y32634000D01*
X10528130Y32634000D01*
X10383234Y32662821D01*
X10246743Y32719358D01*
X10123903Y32801437D01*
X10019437Y32905903D01*
X9937358Y33028743D01*
X9880821Y33165234D01*
X9852000Y33310130D01*
X9852000Y33457870D01*
X9880821Y33602766D01*
X9937358Y33739257D01*
X10019437Y33862097D01*
X10123903Y33966563D01*
X10246743Y34048642D01*
X10383234Y34105179D01*
X10528130Y34134000D01*
X10675870Y34134000D01*
X10820766Y34105179D01*
X10820766Y34105179D01*
G37*
G36*
X86320000Y32734000D02*
G01*
X85420000Y32734000D01*
X85420000Y34034000D01*
X86320000Y34034000D01*
X86320000Y32734000D01*
X86320000Y32734000D01*
G37*
G36*
X84120000Y32734000D02*
G01*
X83220000Y32734000D01*
X83220000Y34034000D01*
X84120000Y34034000D01*
X84120000Y32734000D01*
X84120000Y32734000D01*
G37*
G36*
X71650000Y33000000D02*
G01*
X70750000Y33000000D01*
X70750000Y33900000D01*
X71650000Y33900000D01*
X71650000Y33000000D01*
X71650000Y33000000D01*
G37*
G36*
X68572800Y33052600D02*
G01*
X67672800Y33052600D01*
X67672800Y33952600D01*
X68572800Y33952600D01*
X68572800Y33052600D01*
X68572800Y33052600D01*
G37*
G36*
X76015000Y33061000D02*
G01*
X75115000Y33061000D01*
X75115000Y33961000D01*
X76015000Y33961000D01*
X76015000Y33061000D01*
X76015000Y33061000D01*
G37*
G36*
X77915000Y33061000D02*
G01*
X77015000Y33061000D01*
X77015000Y33961000D01*
X77915000Y33961000D01*
X77915000Y33061000D01*
X77915000Y33061000D01*
G37*
G36*
X91607351Y34915257D02*
G01*
X91752941Y34854952D01*
X91883970Y34767401D01*
X91995401Y34655970D01*
X92082952Y34524941D01*
X92143257Y34379351D01*
X92174000Y34224794D01*
X92174000Y34067206D01*
X92143257Y33912649D01*
X92082952Y33767059D01*
X91995401Y33636030D01*
X91883970Y33524599D01*
X91752941Y33437048D01*
X91607351Y33376743D01*
X91452794Y33346000D01*
X91295206Y33346000D01*
X91140649Y33376743D01*
X90995059Y33437048D01*
X90864030Y33524599D01*
X90752599Y33636030D01*
X90665048Y33767059D01*
X90604743Y33912649D01*
X90574000Y34067206D01*
X90574000Y34224794D01*
X90604743Y34379351D01*
X90665048Y34524941D01*
X90752599Y34655970D01*
X90864030Y34767401D01*
X90995059Y34854952D01*
X91140649Y34915257D01*
X91295206Y34946000D01*
X91452794Y34946000D01*
X91607351Y34915257D01*
X91607351Y34915257D01*
G37*
G36*
X89067351Y34915257D02*
G01*
X89212941Y34854952D01*
X89343970Y34767401D01*
X89455401Y34655970D01*
X89542952Y34524941D01*
X89603257Y34379351D01*
X89634000Y34224794D01*
X89634000Y34067206D01*
X89603257Y33912649D01*
X89542952Y33767059D01*
X89455401Y33636030D01*
X89343970Y33524599D01*
X89212941Y33437048D01*
X89067351Y33376743D01*
X88912794Y33346000D01*
X88755206Y33346000D01*
X88600649Y33376743D01*
X88455059Y33437048D01*
X88324030Y33524599D01*
X88212599Y33636030D01*
X88125048Y33767059D01*
X88064743Y33912649D01*
X88034000Y34067206D01*
X88034000Y34224794D01*
X88064743Y34379351D01*
X88125048Y34524941D01*
X88212599Y34655970D01*
X88324030Y34767401D01*
X88455059Y34854952D01*
X88600649Y34915257D01*
X88755206Y34946000D01*
X88912794Y34946000D01*
X89067351Y34915257D01*
X89067351Y34915257D01*
G37*
G36*
X61650000Y34200000D02*
G01*
X60350000Y34200000D01*
X60350000Y35100000D01*
X61650000Y35100000D01*
X61650000Y34200000D01*
X61650000Y34200000D01*
G37*
G36*
X64737400Y34627400D02*
G01*
X63837400Y34627400D01*
X63837400Y35527400D01*
X64737400Y35527400D01*
X64737400Y34627400D01*
X64737400Y34627400D01*
G37*
G36*
X55768000Y35597500D02*
G01*
X54468000Y35597500D01*
X54468000Y36497500D01*
X55768000Y36497500D01*
X55768000Y35597500D01*
X55768000Y35597500D01*
G37*
G36*
X77915000Y35728000D02*
G01*
X77015000Y35728000D01*
X77015000Y36628000D01*
X77915000Y36628000D01*
X77915000Y35728000D01*
X77915000Y35728000D01*
G37*
G36*
X76015000Y35728000D02*
G01*
X75115000Y35728000D01*
X75115000Y36628000D01*
X76015000Y36628000D01*
X76015000Y35728000D01*
X76015000Y35728000D01*
G37*
G36*
X89067351Y37455257D02*
G01*
X89212941Y37394952D01*
X89343970Y37307401D01*
X89455401Y37195970D01*
X89542952Y37064941D01*
X89603257Y36919351D01*
X89634000Y36764794D01*
X89634000Y36607206D01*
X89603257Y36452649D01*
X89542952Y36307059D01*
X89455401Y36176030D01*
X89343970Y36064599D01*
X89212941Y35977048D01*
X89067351Y35916743D01*
X88912794Y35886000D01*
X88755206Y35886000D01*
X88600649Y35916743D01*
X88455059Y35977048D01*
X88324030Y36064599D01*
X88212599Y36176030D01*
X88125048Y36307059D01*
X88064743Y36452649D01*
X88034000Y36607206D01*
X88034000Y36764794D01*
X88064743Y36919351D01*
X88125048Y37064941D01*
X88212599Y37195970D01*
X88324030Y37307401D01*
X88455059Y37394952D01*
X88600649Y37455257D01*
X88755206Y37486000D01*
X88912794Y37486000D01*
X89067351Y37455257D01*
X89067351Y37455257D01*
G37*
G36*
X91607351Y37455257D02*
G01*
X91752941Y37394952D01*
X91883970Y37307401D01*
X91995401Y37195970D01*
X92082952Y37064941D01*
X92143257Y36919351D01*
X92174000Y36764794D01*
X92174000Y36607206D01*
X92143257Y36452649D01*
X92082952Y36307059D01*
X91995401Y36176030D01*
X91883970Y36064599D01*
X91752941Y35977048D01*
X91607351Y35916743D01*
X91452794Y35886000D01*
X91295206Y35886000D01*
X91140649Y35916743D01*
X90995059Y35977048D01*
X90864030Y36064599D01*
X90752599Y36176030D01*
X90665048Y36307059D01*
X90604743Y36452649D01*
X90574000Y36607206D01*
X90574000Y36764794D01*
X90604743Y36919351D01*
X90665048Y37064941D01*
X90752599Y37195970D01*
X90864030Y37307401D01*
X90995059Y37394952D01*
X91140649Y37455257D01*
X91295206Y37486000D01*
X91452794Y37486000D01*
X91607351Y37455257D01*
X91607351Y37455257D01*
G37*
G36*
X30506000Y35926000D02*
G01*
X29606000Y35926000D01*
X29606000Y37226000D01*
X30506000Y37226000D01*
X30506000Y35926000D01*
X30506000Y35926000D01*
G37*
G36*
X28306000Y35926000D02*
G01*
X27406000Y35926000D01*
X27406000Y37226000D01*
X28306000Y37226000D01*
X28306000Y35926000D01*
X28306000Y35926000D01*
G37*
G36*
X86320000Y36036000D02*
G01*
X85420000Y36036000D01*
X85420000Y37336000D01*
X86320000Y37336000D01*
X86320000Y36036000D01*
X86320000Y36036000D01*
G37*
G36*
X84120000Y36036000D02*
G01*
X83220000Y36036000D01*
X83220000Y37336000D01*
X84120000Y37336000D01*
X84120000Y36036000D01*
X84120000Y36036000D01*
G37*
G36*
X64737400Y36527400D02*
G01*
X63837400Y36527400D01*
X63837400Y37427400D01*
X64737400Y37427400D01*
X64737400Y36527400D01*
X64737400Y36527400D01*
G37*
G36*
X14203351Y38361257D02*
G01*
X14348941Y38300952D01*
X14479970Y38213401D01*
X14591401Y38101970D01*
X14678952Y37970941D01*
X14739257Y37825351D01*
X14770000Y37670794D01*
X14770000Y37513206D01*
X14739257Y37358649D01*
X14678952Y37213059D01*
X14591401Y37082030D01*
X14479970Y36970599D01*
X14348941Y36883048D01*
X14203351Y36822743D01*
X14048794Y36792000D01*
X13891206Y36792000D01*
X13736649Y36822743D01*
X13591059Y36883048D01*
X13460030Y36970599D01*
X13348599Y37082030D01*
X13261048Y37213059D01*
X13200743Y37358649D01*
X13170000Y37513206D01*
X13170000Y37670794D01*
X13200743Y37825351D01*
X13261048Y37970941D01*
X13348599Y38101970D01*
X13460030Y38213401D01*
X13591059Y38300952D01*
X13736649Y38361257D01*
X13891206Y38392000D01*
X14048794Y38392000D01*
X14203351Y38361257D01*
X14203351Y38361257D01*
G37*
G36*
X16743351Y38361257D02*
G01*
X16888941Y38300952D01*
X17019970Y38213401D01*
X17131401Y38101970D01*
X17218952Y37970941D01*
X17279257Y37825351D01*
X17310000Y37670794D01*
X17310000Y37513206D01*
X17279257Y37358649D01*
X17218952Y37213059D01*
X17131401Y37082030D01*
X17019970Y36970599D01*
X16888941Y36883048D01*
X16743351Y36822743D01*
X16588794Y36792000D01*
X16431206Y36792000D01*
X16276649Y36822743D01*
X16131059Y36883048D01*
X16000030Y36970599D01*
X15888599Y37082030D01*
X15801048Y37213059D01*
X15740743Y37358649D01*
X15710000Y37513206D01*
X15710000Y37670794D01*
X15740743Y37825351D01*
X15801048Y37970941D01*
X15888599Y38101970D01*
X16000030Y38213401D01*
X16131059Y38300952D01*
X16276649Y38361257D01*
X16431206Y38392000D01*
X16588794Y38392000D01*
X16743351Y38361257D01*
X16743351Y38361257D01*
G37*
G36*
X55768000Y37797500D02*
G01*
X54468000Y37797500D01*
X54468000Y38697500D01*
X55768000Y38697500D01*
X55768000Y37797500D01*
X55768000Y37797500D01*
G37*
G36*
X70996000Y38080000D02*
G01*
X70096000Y38080000D01*
X70096000Y38980000D01*
X70996000Y38980000D01*
X70996000Y38080000D01*
X70996000Y38080000D01*
G37*
G36*
X68450000Y38350000D02*
G01*
X67550000Y38350000D01*
X67550000Y39650000D01*
X68450000Y39650000D01*
X68450000Y38350000D01*
X68450000Y38350000D01*
G37*
G36*
X66250000Y38350000D02*
G01*
X65350000Y38350000D01*
X65350000Y39650000D01*
X66250000Y39650000D01*
X66250000Y38350000D01*
X66250000Y38350000D01*
G37*
G36*
X3662351Y40520257D02*
G01*
X3807941Y40459952D01*
X3938970Y40372401D01*
X4050401Y40260970D01*
X4137952Y40129941D01*
X4198257Y39984351D01*
X4229000Y39829794D01*
X4229000Y39672206D01*
X4198257Y39517649D01*
X4137952Y39372059D01*
X4050401Y39241030D01*
X3938970Y39129599D01*
X3807941Y39042048D01*
X3662351Y38981743D01*
X3507794Y38951000D01*
X3350206Y38951000D01*
X3195649Y38981743D01*
X3050059Y39042048D01*
X2919030Y39129599D01*
X2807599Y39241030D01*
X2720048Y39372059D01*
X2659743Y39517649D01*
X2629000Y39672206D01*
X2629000Y39829794D01*
X2659743Y39984351D01*
X2720048Y40129941D01*
X2807599Y40260970D01*
X2919030Y40372401D01*
X3050059Y40459952D01*
X3195649Y40520257D01*
X3350206Y40551000D01*
X3507794Y40551000D01*
X3662351Y40520257D01*
X3662351Y40520257D01*
G37*
G36*
X6202351Y40520257D02*
G01*
X6347941Y40459952D01*
X6478970Y40372401D01*
X6590401Y40260970D01*
X6677952Y40129941D01*
X6738257Y39984351D01*
X6769000Y39829794D01*
X6769000Y39672206D01*
X6738257Y39517649D01*
X6677952Y39372059D01*
X6590401Y39241030D01*
X6478970Y39129599D01*
X6347941Y39042048D01*
X6202351Y38981743D01*
X6047794Y38951000D01*
X5890206Y38951000D01*
X5735649Y38981743D01*
X5590059Y39042048D01*
X5459030Y39129599D01*
X5347599Y39241030D01*
X5260048Y39372059D01*
X5199743Y39517649D01*
X5169000Y39672206D01*
X5169000Y39829794D01*
X5199743Y39984351D01*
X5260048Y40129941D01*
X5347599Y40260970D01*
X5459030Y40372401D01*
X5590059Y40459952D01*
X5735649Y40520257D01*
X5890206Y40551000D01*
X6047794Y40551000D01*
X6202351Y40520257D01*
X6202351Y40520257D01*
G37*
G36*
X70996000Y39980000D02*
G01*
X70096000Y39980000D01*
X70096000Y40880000D01*
X70996000Y40880000D01*
X70996000Y39980000D01*
X70996000Y39980000D01*
G37*
G36*
X59802000Y40625000D02*
G01*
X58902000Y40625000D01*
X58902000Y41925000D01*
X59802000Y41925000D01*
X59802000Y40625000D01*
X59802000Y40625000D01*
G37*
G36*
X62002000Y40625000D02*
G01*
X61102000Y40625000D01*
X61102000Y41925000D01*
X62002000Y41925000D01*
X62002000Y40625000D01*
X62002000Y40625000D01*
G37*
G36*
X57747500Y40625000D02*
G01*
X56847500Y40625000D01*
X56847500Y41925000D01*
X57747500Y41925000D01*
X57747500Y40625000D01*
X57747500Y40625000D01*
G37*
G36*
X55547500Y40625000D02*
G01*
X54647500Y40625000D01*
X54647500Y41925000D01*
X55547500Y41925000D01*
X55547500Y40625000D01*
X55547500Y40625000D01*
G37*
G36*
X6202351Y43060257D02*
G01*
X6347941Y42999952D01*
X6478970Y42912401D01*
X6590401Y42800970D01*
X6677952Y42669941D01*
X6738257Y42524351D01*
X6769000Y42369794D01*
X6769000Y42212206D01*
X6738257Y42057649D01*
X6677952Y41912059D01*
X6590401Y41781030D01*
X6478970Y41669599D01*
X6347941Y41582048D01*
X6202351Y41521743D01*
X6047794Y41491000D01*
X5890206Y41491000D01*
X5735649Y41521743D01*
X5590059Y41582048D01*
X5459030Y41669599D01*
X5347599Y41781030D01*
X5260048Y41912059D01*
X5199743Y42057649D01*
X5169000Y42212206D01*
X5169000Y42369794D01*
X5199743Y42524351D01*
X5260048Y42669941D01*
X5347599Y42800970D01*
X5459030Y42912401D01*
X5590059Y42999952D01*
X5735649Y43060257D01*
X5890206Y43091000D01*
X6047794Y43091000D01*
X6202351Y43060257D01*
X6202351Y43060257D01*
G37*
G36*
X3662351Y43060257D02*
G01*
X3807941Y42999952D01*
X3938970Y42912401D01*
X4050401Y42800970D01*
X4137952Y42669941D01*
X4198257Y42524351D01*
X4229000Y42369794D01*
X4229000Y42212206D01*
X4198257Y42057649D01*
X4137952Y41912059D01*
X4050401Y41781030D01*
X3938970Y41669599D01*
X3807941Y41582048D01*
X3662351Y41521743D01*
X3507794Y41491000D01*
X3350206Y41491000D01*
X3195649Y41521743D01*
X3050059Y41582048D01*
X2919030Y41669599D01*
X2807599Y41781030D01*
X2720048Y41912059D01*
X2659743Y42057649D01*
X2629000Y42212206D01*
X2629000Y42369794D01*
X2659743Y42524351D01*
X2720048Y42669941D01*
X2807599Y42800970D01*
X2919030Y42912401D01*
X3050059Y42999952D01*
X3195649Y43060257D01*
X3350206Y43091000D01*
X3507794Y43091000D01*
X3662351Y43060257D01*
X3662351Y43060257D01*
G37*
G36*
X37922000Y43137000D02*
G01*
X36622000Y43137000D01*
X36622000Y44037000D01*
X37922000Y44037000D01*
X37922000Y43137000D01*
X37922000Y43137000D01*
G37*
G36*
X89876134Y45755567D02*
G01*
X89981689Y45734571D01*
X90163678Y45659189D01*
X90327463Y45549751D01*
X90466751Y45410463D01*
X90576189Y45246678D01*
X90651571Y45064689D01*
X90651571Y45064688D01*
X90682382Y44909793D01*
X90690000Y44871491D01*
X90690000Y44674509D01*
X90651571Y44481311D01*
X90576189Y44299322D01*
X90466751Y44135537D01*
X90327463Y43996249D01*
X90163678Y43886811D01*
X89981689Y43811429D01*
X89917290Y43798619D01*
X89788493Y43773000D01*
X89591507Y43773000D01*
X89462710Y43798619D01*
X89398311Y43811429D01*
X89216322Y43886811D01*
X89052537Y43996249D01*
X88913249Y44135537D01*
X88803811Y44299322D01*
X88728429Y44481311D01*
X88690000Y44674509D01*
X88690000Y44871491D01*
X88697619Y44909793D01*
X88728429Y45064688D01*
X88728429Y45064689D01*
X88803811Y45246678D01*
X88913249Y45410463D01*
X89052537Y45549751D01*
X89216322Y45659189D01*
X89398311Y45734571D01*
X89503866Y45755567D01*
X89591507Y45773000D01*
X89788493Y45773000D01*
X89876134Y45755567D01*
X89876134Y45755567D01*
G37*
G36*
X3662351Y45600257D02*
G01*
X3807941Y45539952D01*
X3938970Y45452401D01*
X4050401Y45340970D01*
X4137952Y45209941D01*
X4198257Y45064351D01*
X4229000Y44909794D01*
X4229000Y44752206D01*
X4198257Y44597649D01*
X4137952Y44452059D01*
X4050401Y44321030D01*
X3938970Y44209599D01*
X3807941Y44122048D01*
X3662351Y44061743D01*
X3507794Y44031000D01*
X3350206Y44031000D01*
X3195649Y44061743D01*
X3050059Y44122048D01*
X2919030Y44209599D01*
X2807599Y44321030D01*
X2720048Y44452059D01*
X2659743Y44597649D01*
X2629000Y44752206D01*
X2629000Y44909794D01*
X2659743Y45064351D01*
X2720048Y45209941D01*
X2807599Y45340970D01*
X2919030Y45452401D01*
X3050059Y45539952D01*
X3195649Y45600257D01*
X3350206Y45631000D01*
X3507794Y45631000D01*
X3662351Y45600257D01*
X3662351Y45600257D01*
G37*
G36*
X6202351Y45600257D02*
G01*
X6347941Y45539952D01*
X6478970Y45452401D01*
X6590401Y45340970D01*
X6677952Y45209941D01*
X6738257Y45064351D01*
X6769000Y44909794D01*
X6769000Y44752206D01*
X6738257Y44597649D01*
X6677952Y44452059D01*
X6590401Y44321030D01*
X6478970Y44209599D01*
X6347941Y44122048D01*
X6202351Y44061743D01*
X6047794Y44031000D01*
X5890206Y44031000D01*
X5735649Y44061743D01*
X5590059Y44122048D01*
X5459030Y44209599D01*
X5347599Y44321030D01*
X5260048Y44452059D01*
X5199743Y44597649D01*
X5169000Y44752206D01*
X5169000Y44909794D01*
X5199743Y45064351D01*
X5260048Y45209941D01*
X5347599Y45340970D01*
X5459030Y45452401D01*
X5590059Y45539952D01*
X5735649Y45600257D01*
X5890206Y45631000D01*
X6047794Y45631000D01*
X6202351Y45600257D01*
X6202351Y45600257D01*
G37*
G36*
X45870500Y44354500D02*
G01*
X44970500Y44354500D01*
X44970500Y45654500D01*
X45870500Y45654500D01*
X45870500Y44354500D01*
X45870500Y44354500D01*
G37*
G36*
X43670500Y44354500D02*
G01*
X42770500Y44354500D01*
X42770500Y45654500D01*
X43670500Y45654500D01*
X43670500Y44354500D01*
X43670500Y44354500D01*
G37*
G36*
X58413935Y46791336D02*
G01*
X58527353Y46744356D01*
X58568626Y46727260D01*
X58707844Y46634238D01*
X58826238Y46515844D01*
X58899172Y46406690D01*
X58919261Y46376624D01*
X58983336Y46221935D01*
X59016000Y46057719D01*
X59016000Y45890281D01*
X58983336Y45726065D01*
X58953692Y45654500D01*
X58919260Y45571374D01*
X58826238Y45432156D01*
X58707844Y45313762D01*
X58568626Y45220740D01*
X58568625Y45220739D01*
X58568624Y45220739D01*
X58413935Y45156664D01*
X58249719Y45124000D01*
X58082281Y45124000D01*
X57918065Y45156664D01*
X57763376Y45220739D01*
X57763375Y45220739D01*
X57763374Y45220740D01*
X57624156Y45313762D01*
X57505762Y45432156D01*
X57412740Y45571374D01*
X57378308Y45654500D01*
X57348664Y45726065D01*
X57316000Y45890281D01*
X57316000Y46057719D01*
X57348664Y46221935D01*
X57412739Y46376624D01*
X57432828Y46406690D01*
X57505762Y46515844D01*
X57624156Y46634238D01*
X57763374Y46727260D01*
X57804647Y46744356D01*
X57918065Y46791336D01*
X58082281Y46824000D01*
X58249719Y46824000D01*
X58413935Y46791336D01*
X58413935Y46791336D01*
G37*
G36*
X37922000Y45337000D02*
G01*
X36622000Y45337000D01*
X36622000Y46237000D01*
X37922000Y46237000D01*
X37922000Y45337000D01*
X37922000Y45337000D01*
G37*
G36*
X62499000Y45524000D02*
G01*
X61199000Y45524000D01*
X61199000Y46424000D01*
X62499000Y46424000D01*
X62499000Y45524000D01*
X62499000Y45524000D01*
G37*
G36*
X22426607Y47294081D02*
G01*
X22572197Y47233776D01*
X22703226Y47146225D01*
X22814657Y47034794D01*
X22902208Y46903765D01*
X22962513Y46758175D01*
X22993256Y46603618D01*
X22993256Y46446030D01*
X22962513Y46291473D01*
X22902208Y46145883D01*
X22814657Y46014854D01*
X22703226Y45903423D01*
X22572197Y45815872D01*
X22426607Y45755567D01*
X22272050Y45724824D01*
X22114462Y45724824D01*
X21959905Y45755567D01*
X21814315Y45815872D01*
X21683286Y45903423D01*
X21571855Y46014854D01*
X21484304Y46145883D01*
X21423999Y46291473D01*
X21393256Y46446030D01*
X21393256Y46603618D01*
X21423999Y46758175D01*
X21484304Y46903765D01*
X21571855Y47034794D01*
X21683286Y47146225D01*
X21814315Y47233776D01*
X21959905Y47294081D01*
X22114462Y47324824D01*
X22272050Y47324824D01*
X22426607Y47294081D01*
X22426607Y47294081D01*
G37*
G36*
X19886607Y47294081D02*
G01*
X20032197Y47233776D01*
X20163226Y47146225D01*
X20274657Y47034794D01*
X20362208Y46903765D01*
X20422513Y46758175D01*
X20453256Y46603618D01*
X20453256Y46446030D01*
X20422513Y46291473D01*
X20362208Y46145883D01*
X20274657Y46014854D01*
X20163226Y45903423D01*
X20032197Y45815872D01*
X19886607Y45755567D01*
X19732050Y45724824D01*
X19574462Y45724824D01*
X19419905Y45755567D01*
X19274315Y45815872D01*
X19143286Y45903423D01*
X19031855Y46014854D01*
X18944304Y46145883D01*
X18883999Y46291473D01*
X18853256Y46446030D01*
X18853256Y46603618D01*
X18883999Y46758175D01*
X18944304Y46903765D01*
X19031855Y47034794D01*
X19143286Y47146225D01*
X19274315Y47233776D01*
X19419905Y47294081D01*
X19574462Y47324824D01*
X19732050Y47324824D01*
X19886607Y47294081D01*
X19886607Y47294081D01*
G37*
G36*
X92052520Y47698414D02*
G01*
X92153314Y47656664D01*
X92216310Y47630570D01*
X92363717Y47532076D01*
X92489076Y47406717D01*
X92587570Y47259310D01*
X92587571Y47259308D01*
X92655414Y47095520D01*
X92690000Y46921644D01*
X92690000Y46744356D01*
X92662005Y46603617D01*
X92655414Y46570480D01*
X92587570Y46406690D01*
X92489076Y46259283D01*
X92363717Y46133924D01*
X92216310Y46035430D01*
X92216309Y46035429D01*
X92216308Y46035429D01*
X92052520Y45967586D01*
X91878644Y45933000D01*
X91701356Y45933000D01*
X91527480Y45967586D01*
X91363692Y46035429D01*
X91363691Y46035429D01*
X91363690Y46035430D01*
X91216283Y46133924D01*
X91090924Y46259283D01*
X90992430Y46406690D01*
X90924586Y46570480D01*
X90917995Y46603617D01*
X90890000Y46744356D01*
X90890000Y46921644D01*
X90924586Y47095520D01*
X90992429Y47259308D01*
X90992430Y47259310D01*
X91090924Y47406717D01*
X91216283Y47532076D01*
X91363690Y47630570D01*
X91426687Y47656664D01*
X91527480Y47698414D01*
X91701356Y47733000D01*
X91878644Y47733000D01*
X92052520Y47698414D01*
X92052520Y47698414D01*
G37*
G36*
X3662351Y48140257D02*
G01*
X3807941Y48079952D01*
X3938970Y47992401D01*
X4050401Y47880970D01*
X4137952Y47749941D01*
X4198257Y47604351D01*
X4229000Y47449794D01*
X4229000Y47292206D01*
X4198257Y47137649D01*
X4137952Y46992059D01*
X4050401Y46861030D01*
X3938970Y46749599D01*
X3807941Y46662048D01*
X3662351Y46601743D01*
X3507794Y46571000D01*
X3350206Y46571000D01*
X3195649Y46601743D01*
X3050059Y46662048D01*
X2919030Y46749599D01*
X2807599Y46861030D01*
X2720048Y46992059D01*
X2659743Y47137649D01*
X2629000Y47292206D01*
X2629000Y47449794D01*
X2659743Y47604351D01*
X2720048Y47749941D01*
X2807599Y47880970D01*
X2919030Y47992401D01*
X3050059Y48079952D01*
X3195649Y48140257D01*
X3350206Y48171000D01*
X3507794Y48171000D01*
X3662351Y48140257D01*
X3662351Y48140257D01*
G37*
G36*
X6202351Y48140257D02*
G01*
X6347941Y48079952D01*
X6478970Y47992401D01*
X6590401Y47880970D01*
X6677952Y47749941D01*
X6738257Y47604351D01*
X6769000Y47449794D01*
X6769000Y47292206D01*
X6738257Y47137649D01*
X6677952Y46992059D01*
X6590401Y46861030D01*
X6478970Y46749599D01*
X6347941Y46662048D01*
X6202351Y46601743D01*
X6047794Y46571000D01*
X5890206Y46571000D01*
X5735649Y46601743D01*
X5590059Y46662048D01*
X5459030Y46749599D01*
X5347599Y46861030D01*
X5260048Y46992059D01*
X5199743Y47137649D01*
X5169000Y47292206D01*
X5169000Y47449794D01*
X5199743Y47604351D01*
X5260048Y47749941D01*
X5347599Y47880970D01*
X5459030Y47992401D01*
X5590059Y48079952D01*
X5735649Y48140257D01*
X5890206Y48171000D01*
X6047794Y48171000D01*
X6202351Y48140257D01*
X6202351Y48140257D01*
G37*
G36*
X58413935Y49291336D02*
G01*
X58568624Y49227261D01*
X58568626Y49227260D01*
X58707844Y49134238D01*
X58826238Y49015844D01*
X58904095Y48899322D01*
X58919261Y48876624D01*
X58983336Y48721935D01*
X59016000Y48557719D01*
X59016000Y48390281D01*
X58983336Y48226065D01*
X58934017Y48107000D01*
X58919260Y48071374D01*
X58826238Y47932156D01*
X58707844Y47813762D01*
X58568626Y47720740D01*
X58568625Y47720739D01*
X58568624Y47720739D01*
X58413935Y47656664D01*
X58249719Y47624000D01*
X58082281Y47624000D01*
X57918065Y47656664D01*
X57763376Y47720739D01*
X57763375Y47720739D01*
X57763374Y47720740D01*
X57624156Y47813762D01*
X57505762Y47932156D01*
X57412740Y48071374D01*
X57397983Y48107000D01*
X57348664Y48226065D01*
X57316000Y48390281D01*
X57316000Y48557719D01*
X57348664Y48721935D01*
X57412739Y48876624D01*
X57427905Y48899322D01*
X57505762Y49015844D01*
X57624156Y49134238D01*
X57763374Y49227260D01*
X57763376Y49227261D01*
X57918065Y49291336D01*
X58082281Y49324000D01*
X58249719Y49324000D01*
X58413935Y49291336D01*
X58413935Y49291336D01*
G37*
G36*
X62499000Y47724000D02*
G01*
X61199000Y47724000D01*
X61199000Y48624000D01*
X62499000Y48624000D01*
X62499000Y47724000D01*
X62499000Y47724000D01*
G37*
G36*
X33488000Y48101000D02*
G01*
X32588000Y48101000D01*
X32588000Y49401000D01*
X33488000Y49401000D01*
X33488000Y48101000D01*
X33488000Y48101000D01*
G37*
G36*
X31288000Y48101000D02*
G01*
X30388000Y48101000D01*
X30388000Y49401000D01*
X31288000Y49401000D01*
X31288000Y48101000D01*
X31288000Y48101000D01*
G37*
G36*
X35522000Y48101000D02*
G01*
X34622000Y48101000D01*
X34622000Y49401000D01*
X35522000Y49401000D01*
X35522000Y48101000D01*
X35522000Y48101000D01*
G37*
G36*
X37722000Y48101000D02*
G01*
X36822000Y48101000D01*
X36822000Y49401000D01*
X37722000Y49401000D01*
X37722000Y48101000D01*
X37722000Y48101000D01*
G37*
G36*
X88915000Y48107000D02*
G01*
X87615000Y48107000D01*
X87615000Y49007000D01*
X88915000Y49007000D01*
X88915000Y48107000D01*
X88915000Y48107000D01*
G37*
G36*
X95917290Y50347381D02*
G01*
X95981689Y50334571D01*
X96163678Y50259189D01*
X96327463Y50149751D01*
X96466751Y50010463D01*
X96576189Y49846678D01*
X96651571Y49664689D01*
X96651571Y49664688D01*
X96677953Y49532059D01*
X96690000Y49471491D01*
X96690000Y49274509D01*
X96651571Y49081311D01*
X96576189Y48899322D01*
X96466751Y48735537D01*
X96327463Y48596249D01*
X96163678Y48486811D01*
X95981689Y48411429D01*
X95917290Y48398619D01*
X95788493Y48373000D01*
X95591507Y48373000D01*
X95462710Y48398619D01*
X95398311Y48411429D01*
X95216322Y48486811D01*
X95052537Y48596249D01*
X94913249Y48735537D01*
X94803811Y48899322D01*
X94728429Y49081311D01*
X94690000Y49274509D01*
X94690000Y49471491D01*
X94702048Y49532059D01*
X94728429Y49664688D01*
X94728429Y49664689D01*
X94803811Y49846678D01*
X94913249Y50010463D01*
X95052537Y50149751D01*
X95216322Y50259189D01*
X95398311Y50334571D01*
X95462710Y50347381D01*
X95591507Y50373000D01*
X95788493Y50373000D01*
X95917290Y50347381D01*
X95917290Y50347381D01*
G37*
G36*
X92052520Y50238414D02*
G01*
X92216310Y50170570D01*
X92363717Y50072076D01*
X92489076Y49946717D01*
X92587570Y49799310D01*
X92587571Y49799308D01*
X92655414Y49635520D01*
X92675994Y49532059D01*
X92690000Y49461642D01*
X92690000Y49284358D01*
X92655414Y49110480D01*
X92587570Y48946690D01*
X92489076Y48799283D01*
X92363717Y48673924D01*
X92216310Y48575430D01*
X92216309Y48575429D01*
X92216308Y48575429D01*
X92052520Y48507586D01*
X91878644Y48473000D01*
X91701356Y48473000D01*
X91527480Y48507586D01*
X91363692Y48575429D01*
X91363691Y48575429D01*
X91363690Y48575430D01*
X91216283Y48673924D01*
X91090924Y48799283D01*
X90992430Y48946690D01*
X90924586Y49110480D01*
X90890000Y49284358D01*
X90890000Y49461642D01*
X90904007Y49532059D01*
X90924586Y49635520D01*
X90992429Y49799308D01*
X90992430Y49799310D01*
X91090924Y49946717D01*
X91216283Y50072076D01*
X91363690Y50170570D01*
X91527480Y50238414D01*
X91701356Y50273000D01*
X91878644Y50273000D01*
X92052520Y50238414D01*
X92052520Y50238414D01*
G37*
G36*
X3662351Y50680257D02*
G01*
X3807941Y50619952D01*
X3938970Y50532401D01*
X4050401Y50420970D01*
X4137952Y50289941D01*
X4198257Y50144351D01*
X4229000Y49989794D01*
X4229000Y49832206D01*
X4198257Y49677649D01*
X4137952Y49532059D01*
X4050401Y49401030D01*
X3938970Y49289599D01*
X3807941Y49202048D01*
X3662351Y49141743D01*
X3507794Y49111000D01*
X3350206Y49111000D01*
X3195649Y49141743D01*
X3050059Y49202048D01*
X2919030Y49289599D01*
X2807599Y49401030D01*
X2720048Y49532059D01*
X2659743Y49677649D01*
X2629000Y49832206D01*
X2629000Y49989794D01*
X2659743Y50144351D01*
X2720048Y50289941D01*
X2807599Y50420970D01*
X2919030Y50532401D01*
X3050059Y50619952D01*
X3195649Y50680257D01*
X3350206Y50711000D01*
X3507794Y50711000D01*
X3662351Y50680257D01*
X3662351Y50680257D01*
G37*
G36*
X6202351Y50680257D02*
G01*
X6347941Y50619952D01*
X6478970Y50532401D01*
X6590401Y50420970D01*
X6677952Y50289941D01*
X6738257Y50144351D01*
X6769000Y49989794D01*
X6769000Y49832206D01*
X6738257Y49677649D01*
X6677952Y49532059D01*
X6590401Y49401030D01*
X6478970Y49289599D01*
X6347941Y49202048D01*
X6202351Y49141743D01*
X6047794Y49111000D01*
X5890206Y49111000D01*
X5735649Y49141743D01*
X5590059Y49202048D01*
X5459030Y49289599D01*
X5347599Y49401030D01*
X5260048Y49532059D01*
X5199743Y49677649D01*
X5169000Y49832206D01*
X5169000Y49989794D01*
X5199743Y50144351D01*
X5260048Y50289941D01*
X5347599Y50420970D01*
X5459030Y50532401D01*
X5590059Y50619952D01*
X5735649Y50680257D01*
X5890206Y50711000D01*
X6047794Y50711000D01*
X6202351Y50680257D01*
X6202351Y50680257D01*
G37*
G36*
X18303000Y49250000D02*
G01*
X17003000Y49250000D01*
X17003000Y50150000D01*
X18303000Y50150000D01*
X18303000Y49250000D01*
X18303000Y49250000D01*
G37*
G36*
X72350000Y49498000D02*
G01*
X71450000Y49498000D01*
X71450000Y50798000D01*
X72350000Y50798000D01*
X72350000Y49498000D01*
X72350000Y49498000D01*
G37*
G36*
X70150000Y49498000D02*
G01*
X69250000Y49498000D01*
X69250000Y50798000D01*
X70150000Y50798000D01*
X70150000Y49498000D01*
X70150000Y49498000D01*
G37*
G36*
X39990000Y50150000D02*
G01*
X39090000Y50150000D01*
X39090000Y51450000D01*
X39990000Y51450000D01*
X39990000Y50150000D01*
X39990000Y50150000D01*
G37*
G36*
X42190000Y50150000D02*
G01*
X41290000Y50150000D01*
X41290000Y51450000D01*
X42190000Y51450000D01*
X42190000Y50150000D01*
X42190000Y50150000D01*
G37*
G36*
X88915000Y50307000D02*
G01*
X87615000Y50307000D01*
X87615000Y51207000D01*
X88915000Y51207000D01*
X88915000Y50307000D01*
X88915000Y50307000D01*
G37*
G36*
X92052520Y52778414D02*
G01*
X92193349Y52720081D01*
X92216310Y52710570D01*
X92363717Y52612076D01*
X92489076Y52486717D01*
X92580427Y52350000D01*
X92587571Y52339308D01*
X92655414Y52175520D01*
X92684436Y52029618D01*
X92690000Y52001642D01*
X92690000Y51824358D01*
X92655414Y51650480D01*
X92587570Y51486690D01*
X92489076Y51339283D01*
X92363717Y51213924D01*
X92216310Y51115430D01*
X92216309Y51115429D01*
X92216308Y51115429D01*
X92052520Y51047586D01*
X91878644Y51013000D01*
X91701356Y51013000D01*
X91527480Y51047586D01*
X91363692Y51115429D01*
X91363691Y51115429D01*
X91363690Y51115430D01*
X91216283Y51213924D01*
X91090924Y51339283D01*
X90992430Y51486690D01*
X90924586Y51650480D01*
X90890000Y51824358D01*
X90890000Y52001642D01*
X90895565Y52029618D01*
X90924586Y52175520D01*
X90992429Y52339308D01*
X90999573Y52350000D01*
X91090924Y52486717D01*
X91216283Y52612076D01*
X91363690Y52710570D01*
X91386652Y52720081D01*
X91527480Y52778414D01*
X91701356Y52813000D01*
X91878644Y52813000D01*
X92052520Y52778414D01*
X92052520Y52778414D01*
G37*
G36*
X21198607Y52720081D02*
G01*
X21344197Y52659776D01*
X21475226Y52572225D01*
X21586657Y52460794D01*
X21674208Y52329765D01*
X21734513Y52184175D01*
X21765256Y52029618D01*
X21765256Y51872030D01*
X21734513Y51717473D01*
X21674208Y51571883D01*
X21586657Y51440854D01*
X21475226Y51329423D01*
X21344197Y51241872D01*
X21198607Y51181567D01*
X21044050Y51150824D01*
X20886462Y51150824D01*
X20731905Y51181567D01*
X20586315Y51241872D01*
X20455286Y51329423D01*
X20343855Y51440854D01*
X20256304Y51571883D01*
X20195999Y51717473D01*
X20165256Y51872030D01*
X20165256Y52029618D01*
X20195999Y52184175D01*
X20256304Y52329765D01*
X20343855Y52460794D01*
X20455286Y52572225D01*
X20586315Y52659776D01*
X20731905Y52720081D01*
X20886462Y52750824D01*
X21044050Y52750824D01*
X21198607Y52720081D01*
X21198607Y52720081D01*
G37*
G36*
X45145000Y51199308D02*
G01*
X44345000Y51199308D01*
X44345000Y52949308D01*
X45145000Y52949308D01*
X45145000Y51199308D01*
X45145000Y51199308D01*
G37*
G36*
X47145000Y51199308D02*
G01*
X46345000Y51199308D01*
X46345000Y52949308D01*
X47145000Y52949308D01*
X47145000Y51199308D01*
X47145000Y51199308D01*
G37*
G36*
X18303000Y51450000D02*
G01*
X17003000Y51450000D01*
X17003000Y52350000D01*
X18303000Y52350000D01*
X18303000Y51450000D01*
X18303000Y51450000D01*
G37*
G36*
X3662351Y53220257D02*
G01*
X3807941Y53159952D01*
X3938970Y53072401D01*
X4050401Y52960970D01*
X4137952Y52829941D01*
X4198257Y52684351D01*
X4229000Y52529794D01*
X4229000Y52372206D01*
X4198257Y52217649D01*
X4137952Y52072059D01*
X4050401Y51941030D01*
X3938970Y51829599D01*
X3807941Y51742048D01*
X3662351Y51681743D01*
X3507794Y51651000D01*
X3350206Y51651000D01*
X3195649Y51681743D01*
X3050059Y51742048D01*
X2919030Y51829599D01*
X2807599Y51941030D01*
X2720048Y52072059D01*
X2659743Y52217649D01*
X2629000Y52372206D01*
X2629000Y52529794D01*
X2659743Y52684351D01*
X2720048Y52829941D01*
X2807599Y52960970D01*
X2919030Y53072401D01*
X3050059Y53159952D01*
X3195649Y53220257D01*
X3350206Y53251000D01*
X3507794Y53251000D01*
X3662351Y53220257D01*
X3662351Y53220257D01*
G37*
G36*
X6202351Y53220257D02*
G01*
X6347941Y53159952D01*
X6478970Y53072401D01*
X6590401Y52960970D01*
X6677952Y52829941D01*
X6738257Y52684351D01*
X6769000Y52529794D01*
X6769000Y52372206D01*
X6738257Y52217649D01*
X6677952Y52072059D01*
X6590401Y51941030D01*
X6478970Y51829599D01*
X6347941Y51742048D01*
X6202351Y51681743D01*
X6047794Y51651000D01*
X5890206Y51651000D01*
X5735649Y51681743D01*
X5590059Y51742048D01*
X5459030Y51829599D01*
X5347599Y51941030D01*
X5260048Y52072059D01*
X5199743Y52217649D01*
X5169000Y52372206D01*
X5169000Y52529794D01*
X5199743Y52684351D01*
X5260048Y52829941D01*
X5347599Y52960970D01*
X5459030Y53072401D01*
X5590059Y53159952D01*
X5735649Y53220257D01*
X5890206Y53251000D01*
X6047794Y53251000D01*
X6202351Y53220257D01*
X6202351Y53220257D01*
G37*
G36*
X70150000Y52800000D02*
G01*
X69250000Y52800000D01*
X69250000Y54100000D01*
X70150000Y54100000D01*
X70150000Y52800000D01*
X70150000Y52800000D01*
G37*
G36*
X72350000Y52800000D02*
G01*
X71450000Y52800000D01*
X71450000Y54100000D01*
X72350000Y54100000D01*
X72350000Y52800000D01*
X72350000Y52800000D01*
G37*
G36*
X89904121Y54950000D02*
G01*
X89981689Y54934571D01*
X90163678Y54859189D01*
X90327463Y54749751D01*
X90466751Y54610463D01*
X90576189Y54446678D01*
X90651571Y54264689D01*
X90651571Y54264688D01*
X90690000Y54071493D01*
X90690000Y53874507D01*
X90664585Y53746740D01*
X90651571Y53681311D01*
X90576189Y53499322D01*
X90466751Y53335537D01*
X90327463Y53196249D01*
X90163678Y53086811D01*
X89981689Y53011429D01*
X89917290Y52998619D01*
X89788493Y52973000D01*
X89591507Y52973000D01*
X89462710Y52998619D01*
X89398311Y53011429D01*
X89216322Y53086811D01*
X89052537Y53196249D01*
X88913249Y53335537D01*
X88803811Y53499322D01*
X88728429Y53681311D01*
X88715415Y53746740D01*
X88690000Y53874507D01*
X88690000Y54071493D01*
X88728429Y54264688D01*
X88728429Y54264689D01*
X88803811Y54446678D01*
X88913249Y54610463D01*
X89052537Y54749751D01*
X89216322Y54859189D01*
X89398311Y54934571D01*
X89475879Y54950000D01*
X89591507Y54973000D01*
X89788493Y54973000D01*
X89904121Y54950000D01*
X89904121Y54950000D01*
G37*
G36*
X35947935Y55317336D02*
G01*
X36102624Y55253261D01*
X36102626Y55253260D01*
X36241844Y55160238D01*
X36360238Y55041844D01*
X36431915Y54934571D01*
X36453261Y54902624D01*
X36517336Y54747935D01*
X36550000Y54583719D01*
X36550000Y54416281D01*
X36517336Y54252065D01*
X36454348Y54100000D01*
X36453260Y54097374D01*
X36360238Y53958156D01*
X36241844Y53839762D01*
X36102626Y53746740D01*
X36102625Y53746739D01*
X36102624Y53746739D01*
X35947935Y53682664D01*
X35783719Y53650000D01*
X35616281Y53650000D01*
X35452065Y53682664D01*
X35297376Y53746739D01*
X35297375Y53746739D01*
X35297374Y53746740D01*
X35158156Y53839762D01*
X35039762Y53958156D01*
X34946740Y54097374D01*
X34945652Y54100000D01*
X34882664Y54252065D01*
X34850000Y54416281D01*
X34850000Y54583719D01*
X34882664Y54747935D01*
X34946739Y54902624D01*
X34968085Y54934571D01*
X35039762Y55041844D01*
X35158156Y55160238D01*
X35297374Y55253260D01*
X35297376Y55253261D01*
X35452065Y55317336D01*
X35616281Y55350000D01*
X35783719Y55350000D01*
X35947935Y55317336D01*
X35947935Y55317336D01*
G37*
G36*
X42560000Y53695000D02*
G01*
X41260000Y53695000D01*
X41260000Y54595000D01*
X42560000Y54595000D01*
X42560000Y53695000D01*
X42560000Y53695000D01*
G37*
G36*
X39400000Y54050000D02*
G01*
X38100000Y54050000D01*
X38100000Y54950000D01*
X39400000Y54950000D01*
X39400000Y54050000D01*
X39400000Y54050000D01*
G37*
G36*
X33150000Y54050000D02*
G01*
X31850000Y54050000D01*
X31850000Y54950000D01*
X33150000Y54950000D01*
X33150000Y54050000D01*
X33150000Y54050000D01*
G37*
G36*
X3662351Y55760257D02*
G01*
X3807941Y55699952D01*
X3938970Y55612401D01*
X4050401Y55500970D01*
X4137952Y55369941D01*
X4198257Y55224351D01*
X4229000Y55069794D01*
X4229000Y54912206D01*
X4198257Y54757649D01*
X4137952Y54612059D01*
X4050401Y54481030D01*
X3938970Y54369599D01*
X3807941Y54282048D01*
X3662351Y54221743D01*
X3507794Y54191000D01*
X3350206Y54191000D01*
X3195649Y54221743D01*
X3050059Y54282048D01*
X2919030Y54369599D01*
X2807599Y54481030D01*
X2720048Y54612059D01*
X2659743Y54757649D01*
X2629000Y54912206D01*
X2629000Y55069794D01*
X2659743Y55224351D01*
X2720048Y55369941D01*
X2807599Y55500970D01*
X2919030Y55612401D01*
X3050059Y55699952D01*
X3195649Y55760257D01*
X3350206Y55791000D01*
X3507794Y55791000D01*
X3662351Y55760257D01*
X3662351Y55760257D01*
G37*
G36*
X6202351Y55760257D02*
G01*
X6347941Y55699952D01*
X6478970Y55612401D01*
X6590401Y55500970D01*
X6677952Y55369941D01*
X6738257Y55224351D01*
X6769000Y55069794D01*
X6769000Y54912206D01*
X6738257Y54757649D01*
X6677952Y54612059D01*
X6590401Y54481030D01*
X6478970Y54369599D01*
X6347941Y54282048D01*
X6202351Y54221743D01*
X6047794Y54191000D01*
X5890206Y54191000D01*
X5735649Y54221743D01*
X5590059Y54282048D01*
X5459030Y54369599D01*
X5347599Y54481030D01*
X5260048Y54612059D01*
X5199743Y54757649D01*
X5169000Y54912206D01*
X5169000Y55069794D01*
X5199743Y55224351D01*
X5260048Y55369941D01*
X5347599Y55500970D01*
X5459030Y55612401D01*
X5590059Y55699952D01*
X5735649Y55760257D01*
X5890206Y55791000D01*
X6047794Y55791000D01*
X6202351Y55760257D01*
X6202351Y55760257D01*
G37*
G36*
X45313000Y54774308D02*
G01*
X44413000Y54774308D01*
X44413000Y56074308D01*
X45313000Y56074308D01*
X45313000Y54774308D01*
X45313000Y54774308D01*
G37*
G36*
X47513000Y54774308D02*
G01*
X46613000Y54774308D01*
X46613000Y56074308D01*
X47513000Y56074308D01*
X47513000Y54774308D01*
X47513000Y54774308D01*
G37*
G36*
X68656000Y55456000D02*
G01*
X67356000Y55456000D01*
X67356000Y56356000D01*
X68656000Y56356000D01*
X68656000Y55456000D01*
X68656000Y55456000D01*
G37*
G36*
X74498000Y55456000D02*
G01*
X73198000Y55456000D01*
X73198000Y56356000D01*
X74498000Y56356000D01*
X74498000Y55456000D01*
X74498000Y55456000D01*
G37*
G36*
X93250000Y55850000D02*
G01*
X92350000Y55850000D01*
X92350000Y57150000D01*
X93250000Y57150000D01*
X93250000Y55850000D01*
X93250000Y55850000D01*
G37*
G36*
X95450000Y55850000D02*
G01*
X94550000Y55850000D01*
X94550000Y57150000D01*
X95450000Y57150000D01*
X95450000Y55850000D01*
X95450000Y55850000D01*
G37*
G36*
X42560000Y55895000D02*
G01*
X41260000Y55895000D01*
X41260000Y56795000D01*
X42560000Y56795000D01*
X42560000Y55895000D01*
X42560000Y55895000D01*
G37*
G36*
X21198607Y57600081D02*
G01*
X21344197Y57539776D01*
X21475226Y57452225D01*
X21586657Y57340794D01*
X21674208Y57209765D01*
X21734513Y57064175D01*
X21765256Y56909618D01*
X21765256Y56752030D01*
X21734513Y56597473D01*
X21674208Y56451883D01*
X21586657Y56320854D01*
X21475226Y56209423D01*
X21344197Y56121872D01*
X21198607Y56061567D01*
X21044050Y56030824D01*
X20886462Y56030824D01*
X20731905Y56061567D01*
X20586315Y56121872D01*
X20455286Y56209423D01*
X20343855Y56320854D01*
X20256304Y56451883D01*
X20195999Y56597473D01*
X20165256Y56752030D01*
X20165256Y56909618D01*
X20195999Y57064175D01*
X20256304Y57209765D01*
X20343855Y57340794D01*
X20455286Y57452225D01*
X20586315Y57539776D01*
X20731905Y57600081D01*
X20886462Y57630824D01*
X21044050Y57630824D01*
X21198607Y57600081D01*
X21198607Y57600081D01*
G37*
G36*
X35947935Y57817336D02*
G01*
X36102624Y57753261D01*
X36102626Y57753260D01*
X36241844Y57660238D01*
X36360238Y57541844D01*
X36453260Y57402626D01*
X36453261Y57402624D01*
X36517336Y57247935D01*
X36550000Y57083719D01*
X36550000Y56916281D01*
X36517336Y56752065D01*
X36508610Y56731000D01*
X36453260Y56597374D01*
X36360238Y56458156D01*
X36241844Y56339762D01*
X36102626Y56246740D01*
X36102625Y56246739D01*
X36102624Y56246739D01*
X35947935Y56182664D01*
X35783719Y56150000D01*
X35616281Y56150000D01*
X35452065Y56182664D01*
X35297376Y56246739D01*
X35297375Y56246739D01*
X35297374Y56246740D01*
X35158156Y56339762D01*
X35039762Y56458156D01*
X34946740Y56597374D01*
X34891390Y56731000D01*
X34882664Y56752065D01*
X34850000Y56916281D01*
X34850000Y57083719D01*
X34882664Y57247935D01*
X34946739Y57402624D01*
X34946740Y57402626D01*
X35039762Y57541844D01*
X35158156Y57660238D01*
X35297374Y57753260D01*
X35297376Y57753261D01*
X35452065Y57817336D01*
X35616281Y57850000D01*
X35783719Y57850000D01*
X35947935Y57817336D01*
X35947935Y57817336D01*
G37*
G36*
X39400000Y56250000D02*
G01*
X38100000Y56250000D01*
X38100000Y57150000D01*
X39400000Y57150000D01*
X39400000Y56250000D01*
X39400000Y56250000D01*
G37*
G36*
X33150000Y56250000D02*
G01*
X31850000Y56250000D01*
X31850000Y57150000D01*
X33150000Y57150000D01*
X33150000Y56250000D01*
X33150000Y56250000D01*
G37*
G36*
X18303000Y56362000D02*
G01*
X17003000Y56362000D01*
X17003000Y57262000D01*
X18303000Y57262000D01*
X18303000Y56362000D01*
X18303000Y56362000D01*
G37*
G36*
X6202351Y58300257D02*
G01*
X6347941Y58239952D01*
X6478970Y58152401D01*
X6590401Y58040970D01*
X6677952Y57909941D01*
X6738257Y57764351D01*
X6769000Y57609794D01*
X6769000Y57452206D01*
X6738257Y57297649D01*
X6677952Y57152059D01*
X6590401Y57021030D01*
X6478970Y56909599D01*
X6347941Y56822048D01*
X6202351Y56761743D01*
X6047794Y56731000D01*
X5890206Y56731000D01*
X5735649Y56761743D01*
X5590059Y56822048D01*
X5459030Y56909599D01*
X5347599Y57021030D01*
X5260048Y57152059D01*
X5199743Y57297649D01*
X5169000Y57452206D01*
X5169000Y57609794D01*
X5199743Y57764351D01*
X5260048Y57909941D01*
X5347599Y58040970D01*
X5459030Y58152401D01*
X5590059Y58239952D01*
X5735649Y58300257D01*
X5890206Y58331000D01*
X6047794Y58331000D01*
X6202351Y58300257D01*
X6202351Y58300257D01*
G37*
G36*
X3662351Y58300257D02*
G01*
X3807941Y58239952D01*
X3938970Y58152401D01*
X4050401Y58040970D01*
X4137952Y57909941D01*
X4198257Y57764351D01*
X4229000Y57609794D01*
X4229000Y57452206D01*
X4198257Y57297649D01*
X4137952Y57152059D01*
X4050401Y57021030D01*
X3938970Y56909599D01*
X3807941Y56822048D01*
X3662351Y56761743D01*
X3507794Y56731000D01*
X3350206Y56731000D01*
X3195649Y56761743D01*
X3050059Y56822048D01*
X2919030Y56909599D01*
X2807599Y57021030D01*
X2720048Y57152059D01*
X2659743Y57297649D01*
X2629000Y57452206D01*
X2629000Y57609794D01*
X2659743Y57764351D01*
X2720048Y57909941D01*
X2807599Y58040970D01*
X2919030Y58152401D01*
X3050059Y58239952D01*
X3195649Y58300257D01*
X3350206Y58331000D01*
X3507794Y58331000D01*
X3662351Y58300257D01*
X3662351Y58300257D01*
G37*
G36*
X74498000Y57656000D02*
G01*
X73198000Y57656000D01*
X73198000Y58556000D01*
X74498000Y58556000D01*
X74498000Y57656000D01*
X74498000Y57656000D01*
G37*
G36*
X68656000Y57656000D02*
G01*
X67356000Y57656000D01*
X67356000Y58556000D01*
X68656000Y58556000D01*
X68656000Y57656000D01*
X68656000Y57656000D01*
G37*
G36*
X47524000Y57897000D02*
G01*
X46624000Y57897000D01*
X46624000Y59197000D01*
X47524000Y59197000D01*
X47524000Y57897000D01*
X47524000Y57897000D01*
G37*
G36*
X45324000Y57897000D02*
G01*
X44424000Y57897000D01*
X44424000Y59197000D01*
X45324000Y59197000D01*
X45324000Y57897000D01*
X45324000Y57897000D01*
G37*
G36*
X89917290Y59971381D02*
G01*
X89981689Y59958571D01*
X90163678Y59883189D01*
X90327463Y59773751D01*
X90466751Y59634463D01*
X90576189Y59470678D01*
X90651571Y59288689D01*
X90690000Y59095491D01*
X90690000Y58898509D01*
X90651571Y58705311D01*
X90576189Y58523322D01*
X90466751Y58359537D01*
X90327463Y58220249D01*
X90163678Y58110811D01*
X89981689Y58035429D01*
X89917290Y58022619D01*
X89788493Y57997000D01*
X89591507Y57997000D01*
X89462710Y58022619D01*
X89398311Y58035429D01*
X89216322Y58110811D01*
X89052537Y58220249D01*
X88913249Y58359537D01*
X88803811Y58523322D01*
X88728429Y58705311D01*
X88690000Y58898509D01*
X88690000Y59095491D01*
X88728429Y59288689D01*
X88803811Y59470678D01*
X88913249Y59634463D01*
X89052537Y59773751D01*
X89216322Y59883189D01*
X89398311Y59958571D01*
X89462710Y59971381D01*
X89591507Y59997000D01*
X89788493Y59997000D01*
X89917290Y59971381D01*
X89917290Y59971381D01*
G37*
G36*
X18303000Y58562000D02*
G01*
X17003000Y58562000D01*
X17003000Y59462000D01*
X18303000Y59462000D01*
X18303000Y58562000D01*
X18303000Y58562000D01*
G37*
G36*
X38745000Y59160000D02*
G01*
X38095000Y59160000D01*
X38095000Y60360000D01*
X38745000Y60360000D01*
X38745000Y59160000D01*
X38745000Y59160000D01*
G37*
G36*
X40645000Y59160000D02*
G01*
X39995000Y59160000D01*
X39995000Y60360000D01*
X40645000Y60360000D01*
X40645000Y59160000D01*
X40645000Y59160000D01*
G37*
G36*
X35057000Y59160000D02*
G01*
X34407000Y59160000D01*
X34407000Y60360000D01*
X35057000Y60360000D01*
X35057000Y59160000D01*
X35057000Y59160000D01*
G37*
G36*
X33157000Y59160000D02*
G01*
X32507000Y59160000D01*
X32507000Y60360000D01*
X33157000Y60360000D01*
X33157000Y59160000D01*
X33157000Y59160000D01*
G37*
G36*
X3662351Y60840257D02*
G01*
X3807941Y60779952D01*
X3938970Y60692401D01*
X4050401Y60580970D01*
X4137952Y60449941D01*
X4198257Y60304351D01*
X4229000Y60149794D01*
X4229000Y59992206D01*
X4198257Y59837649D01*
X4137952Y59692059D01*
X4050401Y59561030D01*
X3938970Y59449599D01*
X3807941Y59362048D01*
X3662351Y59301743D01*
X3507794Y59271000D01*
X3350206Y59271000D01*
X3195649Y59301743D01*
X3050059Y59362048D01*
X2919030Y59449599D01*
X2807599Y59561030D01*
X2720048Y59692059D01*
X2659743Y59837649D01*
X2629000Y59992206D01*
X2629000Y60149794D01*
X2659743Y60304351D01*
X2720048Y60449941D01*
X2807599Y60580970D01*
X2919030Y60692401D01*
X3050059Y60779952D01*
X3195649Y60840257D01*
X3350206Y60871000D01*
X3507794Y60871000D01*
X3662351Y60840257D01*
X3662351Y60840257D01*
G37*
G36*
X6202351Y60840257D02*
G01*
X6347941Y60779952D01*
X6478970Y60692401D01*
X6590401Y60580970D01*
X6677952Y60449941D01*
X6738257Y60304351D01*
X6769000Y60149794D01*
X6769000Y59992206D01*
X6738257Y59837649D01*
X6677952Y59692059D01*
X6590401Y59561030D01*
X6478970Y59449599D01*
X6347941Y59362048D01*
X6202351Y59301743D01*
X6047794Y59271000D01*
X5890206Y59271000D01*
X5735649Y59301743D01*
X5590059Y59362048D01*
X5459030Y59449599D01*
X5347599Y59561030D01*
X5260048Y59692059D01*
X5199743Y59837649D01*
X5169000Y59992206D01*
X5169000Y60149794D01*
X5199743Y60304351D01*
X5260048Y60449941D01*
X5347599Y60580970D01*
X5459030Y60692401D01*
X5590059Y60779952D01*
X5735649Y60840257D01*
X5890206Y60871000D01*
X6047794Y60871000D01*
X6202351Y60840257D01*
X6202351Y60840257D01*
G37*
G36*
X92052520Y61922414D02*
G01*
X92101686Y61902049D01*
X92216310Y61854570D01*
X92363717Y61756076D01*
X92489076Y61630717D01*
X92536327Y61560000D01*
X92587571Y61483308D01*
X92655414Y61319520D01*
X92690000Y61145644D01*
X92690000Y60968356D01*
X92655414Y60794480D01*
X92587570Y60630690D01*
X92489076Y60483283D01*
X92363717Y60357924D01*
X92216310Y60259430D01*
X92216309Y60259429D01*
X92216308Y60259429D01*
X92052520Y60191586D01*
X91878644Y60157000D01*
X91701356Y60157000D01*
X91527480Y60191586D01*
X91363692Y60259429D01*
X91363691Y60259429D01*
X91363690Y60259430D01*
X91216283Y60357924D01*
X91090924Y60483283D01*
X90992430Y60630690D01*
X90924586Y60794480D01*
X90890000Y60968356D01*
X90890000Y61145644D01*
X90924586Y61319520D01*
X90992429Y61483308D01*
X91043673Y61560000D01*
X91090924Y61630717D01*
X91216283Y61756076D01*
X91363690Y61854570D01*
X91478315Y61902049D01*
X91527480Y61922414D01*
X91701356Y61957000D01*
X91878644Y61957000D01*
X92052520Y61922414D01*
X92052520Y61922414D01*
G37*
G36*
X50685500Y60325000D02*
G01*
X49385500Y60325000D01*
X49385500Y61225000D01*
X50685500Y61225000D01*
X50685500Y60325000D01*
X50685500Y60325000D01*
G37*
G36*
X88926000Y61072000D02*
G01*
X88026000Y61072000D01*
X88026000Y62372000D01*
X88926000Y62372000D01*
X88926000Y61072000D01*
X88926000Y61072000D01*
G37*
G36*
X86726000Y61072000D02*
G01*
X85826000Y61072000D01*
X85826000Y62372000D01*
X86726000Y62372000D01*
X86726000Y61072000D01*
X86726000Y61072000D01*
G37*
G36*
X34107000Y61560000D02*
G01*
X33457000Y61560000D01*
X33457000Y62760000D01*
X34107000Y62760000D01*
X34107000Y61560000D01*
X34107000Y61560000D01*
G37*
G36*
X39695000Y61560000D02*
G01*
X39045000Y61560000D01*
X39045000Y62760000D01*
X39695000Y62760000D01*
X39695000Y61560000D01*
X39695000Y61560000D01*
G37*
G36*
X4229000Y61811000D02*
G01*
X2629000Y61811000D01*
X2629000Y63411000D01*
X4229000Y63411000D01*
X4229000Y61811000D01*
X4229000Y61811000D01*
G37*
G36*
X6202351Y63380257D02*
G01*
X6347941Y63319952D01*
X6478970Y63232401D01*
X6590401Y63120970D01*
X6677952Y62989941D01*
X6738257Y62844351D01*
X6769000Y62689794D01*
X6769000Y62532206D01*
X6738257Y62377649D01*
X6677952Y62232059D01*
X6590401Y62101030D01*
X6478970Y61989599D01*
X6347941Y61902048D01*
X6202351Y61841743D01*
X6047794Y61811000D01*
X5890206Y61811000D01*
X5735649Y61841743D01*
X5590059Y61902048D01*
X5459030Y61989599D01*
X5347599Y62101030D01*
X5260048Y62232059D01*
X5199743Y62377649D01*
X5169000Y62532206D01*
X5169000Y62689794D01*
X5199743Y62844351D01*
X5260048Y62989941D01*
X5347599Y63120970D01*
X5459030Y63232401D01*
X5590059Y63319952D01*
X5735649Y63380257D01*
X5890206Y63411000D01*
X6047794Y63411000D01*
X6202351Y63380257D01*
X6202351Y63380257D01*
G37*
G36*
X36901000Y62208000D02*
G01*
X36251000Y62208000D01*
X36251000Y63408000D01*
X36901000Y63408000D01*
X36901000Y62208000D01*
X36901000Y62208000D01*
G37*
G36*
X31059000Y62208000D02*
G01*
X30409000Y62208000D01*
X30409000Y63408000D01*
X31059000Y63408000D01*
X31059000Y62208000D01*
X31059000Y62208000D01*
G37*
G36*
X50685500Y62525000D02*
G01*
X49385500Y62525000D01*
X49385500Y63425000D01*
X50685500Y63425000D01*
X50685500Y62525000D01*
X50685500Y62525000D01*
G37*
G36*
X95917290Y64571381D02*
G01*
X95981689Y64558571D01*
X96163678Y64483189D01*
X96327463Y64373751D01*
X96466751Y64234463D01*
X96576189Y64070678D01*
X96651571Y63888689D01*
X96664381Y63824290D01*
X96690000Y63695493D01*
X96690000Y63498507D01*
X96672594Y63411000D01*
X96651571Y63305311D01*
X96576189Y63123322D01*
X96466751Y62959537D01*
X96327463Y62820249D01*
X96163678Y62710811D01*
X95981689Y62635429D01*
X95917290Y62622619D01*
X95788493Y62597000D01*
X95591507Y62597000D01*
X95462710Y62622619D01*
X95398311Y62635429D01*
X95216322Y62710811D01*
X95052537Y62820249D01*
X94913249Y62959537D01*
X94803811Y63123322D01*
X94728429Y63305311D01*
X94707406Y63411000D01*
X94690000Y63498507D01*
X94690000Y63695493D01*
X94715619Y63824290D01*
X94728429Y63888689D01*
X94803811Y64070678D01*
X94913249Y64234463D01*
X95052537Y64373751D01*
X95216322Y64483189D01*
X95398311Y64558571D01*
X95462710Y64571381D01*
X95591507Y64597000D01*
X95788493Y64597000D01*
X95917290Y64571381D01*
X95917290Y64571381D01*
G37*
G36*
X92052520Y64462414D02*
G01*
X92216310Y64394570D01*
X92363717Y64296076D01*
X92489076Y64170717D01*
X92555921Y64070676D01*
X92587571Y64023308D01*
X92655414Y63859520D01*
X92690000Y63685644D01*
X92690000Y63508356D01*
X92655414Y63334480D01*
X92587570Y63170690D01*
X92489076Y63023283D01*
X92363717Y62897924D01*
X92216310Y62799430D01*
X92216309Y62799429D01*
X92216308Y62799429D01*
X92052520Y62731586D01*
X91878644Y62697000D01*
X91701356Y62697000D01*
X91527480Y62731586D01*
X91363692Y62799429D01*
X91363691Y62799429D01*
X91363690Y62799430D01*
X91216283Y62897924D01*
X91090924Y63023283D01*
X90992430Y63170690D01*
X90924586Y63334480D01*
X90890000Y63508356D01*
X90890000Y63685644D01*
X90924586Y63859520D01*
X90992429Y64023308D01*
X91024079Y64070676D01*
X91090924Y64170717D01*
X91216283Y64296076D01*
X91363690Y64394570D01*
X91527480Y64462414D01*
X91701356Y64497000D01*
X91878644Y64497000D01*
X92052520Y64462414D01*
X92052520Y64462414D01*
G37*
G36*
X73366000Y63468000D02*
G01*
X72466000Y63468000D01*
X72466000Y64768000D01*
X73366000Y64768000D01*
X73366000Y63468000D01*
X73366000Y63468000D01*
G37*
G36*
X71166000Y63468000D02*
G01*
X70266000Y63468000D01*
X70266000Y64768000D01*
X71166000Y64768000D01*
X71166000Y63468000D01*
X71166000Y63468000D01*
G37*
G36*
X46963935Y65333336D02*
G01*
X47109597Y65273000D01*
X47118626Y65269260D01*
X47257844Y65176238D01*
X47376238Y65057844D01*
X47469260Y64918626D01*
X47469261Y64918624D01*
X47533336Y64763935D01*
X47566000Y64599719D01*
X47566000Y64432281D01*
X47533336Y64268065D01*
X47493012Y64170716D01*
X47469260Y64113374D01*
X47376238Y63974156D01*
X47257844Y63855762D01*
X47118626Y63762740D01*
X47118625Y63762739D01*
X47118624Y63762739D01*
X46963935Y63698664D01*
X46799719Y63666000D01*
X46632281Y63666000D01*
X46468065Y63698664D01*
X46313376Y63762739D01*
X46313375Y63762739D01*
X46313374Y63762740D01*
X46174156Y63855762D01*
X46055762Y63974156D01*
X45962740Y64113374D01*
X45938988Y64170716D01*
X45898664Y64268065D01*
X45866000Y64432281D01*
X45866000Y64599719D01*
X45898664Y64763935D01*
X45962739Y64918624D01*
X45962740Y64918626D01*
X46055762Y65057844D01*
X46174156Y65176238D01*
X46313374Y65269260D01*
X46322403Y65273000D01*
X46468065Y65333336D01*
X46632281Y65366000D01*
X46799719Y65366000D01*
X46963935Y65333336D01*
X46963935Y65333336D01*
G37*
G36*
X44463935Y65333336D02*
G01*
X44609597Y65273000D01*
X44618626Y65269260D01*
X44757844Y65176238D01*
X44876238Y65057844D01*
X44969260Y64918626D01*
X44969261Y64918624D01*
X45033336Y64763935D01*
X45066000Y64599719D01*
X45066000Y64432281D01*
X45033336Y64268065D01*
X44993012Y64170716D01*
X44969260Y64113374D01*
X44876238Y63974156D01*
X44757844Y63855762D01*
X44618626Y63762740D01*
X44618625Y63762739D01*
X44618624Y63762739D01*
X44463935Y63698664D01*
X44299719Y63666000D01*
X44132281Y63666000D01*
X43968065Y63698664D01*
X43813376Y63762739D01*
X43813375Y63762739D01*
X43813374Y63762740D01*
X43674156Y63855762D01*
X43555762Y63974156D01*
X43462740Y64113374D01*
X43438988Y64170716D01*
X43398664Y64268065D01*
X43366000Y64432281D01*
X43366000Y64599719D01*
X43398664Y64763935D01*
X43462739Y64918624D01*
X43462740Y64918626D01*
X43555762Y65057844D01*
X43674156Y65176238D01*
X43813374Y65269260D01*
X43822403Y65273000D01*
X43968065Y65333336D01*
X44132281Y65366000D01*
X44299719Y65366000D01*
X44463935Y65333336D01*
X44463935Y65333336D01*
G37*
G36*
X83397000Y63938000D02*
G01*
X82397000Y63938000D01*
X82397000Y64938000D01*
X83397000Y64938000D01*
X83397000Y63938000D01*
X83397000Y63938000D01*
G37*
G36*
X79997000Y63938000D02*
G01*
X78997000Y63938000D01*
X78997000Y64938000D01*
X79997000Y64938000D01*
X79997000Y63938000D01*
X79997000Y63938000D01*
G37*
G36*
X37851000Y64608000D02*
G01*
X37201000Y64608000D01*
X37201000Y65808000D01*
X37851000Y65808000D01*
X37851000Y64608000D01*
X37851000Y64608000D01*
G37*
G36*
X35951000Y64608000D02*
G01*
X35301000Y64608000D01*
X35301000Y65808000D01*
X35951000Y65808000D01*
X35951000Y64608000D01*
X35951000Y64608000D01*
G37*
G36*
X30109000Y64608000D02*
G01*
X29459000Y64608000D01*
X29459000Y65808000D01*
X30109000Y65808000D01*
X30109000Y64608000D01*
X30109000Y64608000D01*
G37*
G36*
X32009000Y64608000D02*
G01*
X31359000Y64608000D01*
X31359000Y65808000D01*
X32009000Y65808000D01*
X32009000Y64608000D01*
X32009000Y64608000D01*
G37*
G36*
X53987500Y64960500D02*
G01*
X52687500Y64960500D01*
X52687500Y65860500D01*
X53987500Y65860500D01*
X53987500Y64960500D01*
X53987500Y64960500D01*
G37*
G36*
X50685500Y64960500D02*
G01*
X49385500Y64960500D01*
X49385500Y65860500D01*
X50685500Y65860500D01*
X50685500Y64960500D01*
X50685500Y64960500D01*
G37*
G36*
X92052520Y67002414D02*
G01*
X92216310Y66934570D01*
X92363717Y66836076D01*
X92489076Y66710717D01*
X92587570Y66563310D01*
X92587571Y66563308D01*
X92645664Y66423059D01*
X92655414Y66399520D01*
X92690000Y66225642D01*
X92690000Y66048358D01*
X92655414Y65874480D01*
X92587570Y65710690D01*
X92489076Y65563283D01*
X92363717Y65437924D01*
X92216310Y65339430D01*
X92216309Y65339429D01*
X92216308Y65339429D01*
X92052520Y65271586D01*
X91878644Y65237000D01*
X91701356Y65237000D01*
X91527480Y65271586D01*
X91363692Y65339429D01*
X91363691Y65339429D01*
X91363690Y65339430D01*
X91216283Y65437924D01*
X91090924Y65563283D01*
X90992430Y65710690D01*
X90924586Y65874480D01*
X90890000Y66048358D01*
X90890000Y66225642D01*
X90924586Y66399520D01*
X90934336Y66423059D01*
X90992429Y66563308D01*
X90992430Y66563310D01*
X91090924Y66710717D01*
X91216283Y66836076D01*
X91363690Y66934570D01*
X91527480Y67002414D01*
X91701356Y67037000D01*
X91878644Y67037000D01*
X92052520Y67002414D01*
X92052520Y67002414D01*
G37*
G36*
X18450000Y65273000D02*
G01*
X17250000Y65273000D01*
X17250000Y65923000D01*
X18450000Y65923000D01*
X18450000Y65273000D01*
X18450000Y65273000D01*
G37*
G36*
X14965351Y67571257D02*
G01*
X15110941Y67510952D01*
X15241970Y67423401D01*
X15353401Y67311970D01*
X15440952Y67180941D01*
X15501257Y67035351D01*
X15532000Y66880794D01*
X15532000Y66723206D01*
X15501257Y66568649D01*
X15440952Y66423059D01*
X15353401Y66292030D01*
X15241970Y66180599D01*
X15110941Y66093048D01*
X14965351Y66032743D01*
X14810794Y66002000D01*
X14653206Y66002000D01*
X14498649Y66032743D01*
X14353059Y66093048D01*
X14222030Y66180599D01*
X14110599Y66292030D01*
X14023048Y66423059D01*
X13962743Y66568649D01*
X13932000Y66723206D01*
X13932000Y66880794D01*
X13962743Y67035351D01*
X14023048Y67180941D01*
X14110599Y67311970D01*
X14222030Y67423401D01*
X14353059Y67510952D01*
X14498649Y67571257D01*
X14653206Y67602000D01*
X14810794Y67602000D01*
X14965351Y67571257D01*
X14965351Y67571257D01*
G37*
G36*
X12425351Y67571257D02*
G01*
X12570941Y67510952D01*
X12701970Y67423401D01*
X12813401Y67311970D01*
X12900952Y67180941D01*
X12961257Y67035351D01*
X12992000Y66880794D01*
X12992000Y66723206D01*
X12961257Y66568649D01*
X12900952Y66423059D01*
X12813401Y66292030D01*
X12701970Y66180599D01*
X12570941Y66093048D01*
X12425351Y66032743D01*
X12270794Y66002000D01*
X12113206Y66002000D01*
X11958649Y66032743D01*
X11813059Y66093048D01*
X11682030Y66180599D01*
X11570599Y66292030D01*
X11483048Y66423059D01*
X11422743Y66568649D01*
X11392000Y66723206D01*
X11392000Y66880794D01*
X11422743Y67035351D01*
X11483048Y67180941D01*
X11570599Y67311970D01*
X11682030Y67423401D01*
X11813059Y67510952D01*
X11958649Y67571257D01*
X12113206Y67602000D01*
X12270794Y67602000D01*
X12425351Y67571257D01*
X12425351Y67571257D01*
G37*
G36*
X20850000Y66223000D02*
G01*
X19650000Y66223000D01*
X19650000Y66873000D01*
X20850000Y66873000D01*
X20850000Y66223000D01*
X20850000Y66223000D01*
G37*
G36*
X73366000Y66516000D02*
G01*
X72466000Y66516000D01*
X72466000Y67816000D01*
X73366000Y67816000D01*
X73366000Y66516000D01*
X73366000Y66516000D01*
G37*
G36*
X71166000Y66516000D02*
G01*
X70266000Y66516000D01*
X70266000Y67816000D01*
X71166000Y67816000D01*
X71166000Y66516000D01*
X71166000Y66516000D01*
G37*
G36*
X44850000Y67050000D02*
G01*
X43950000Y67050000D01*
X43950000Y68350000D01*
X44850000Y68350000D01*
X44850000Y67050000D01*
X44850000Y67050000D01*
G37*
G36*
X47050000Y67050000D02*
G01*
X46150000Y67050000D01*
X46150000Y68350000D01*
X47050000Y68350000D01*
X47050000Y67050000D01*
X47050000Y67050000D01*
G37*
G36*
X53987500Y67160500D02*
G01*
X52687500Y67160500D01*
X52687500Y68060500D01*
X53987500Y68060500D01*
X53987500Y67160500D01*
X53987500Y67160500D01*
G37*
G36*
X50685500Y67160500D02*
G01*
X49385500Y67160500D01*
X49385500Y68060500D01*
X50685500Y68060500D01*
X50685500Y67160500D01*
X50685500Y67160500D01*
G37*
G36*
X18450000Y67173000D02*
G01*
X17250000Y67173000D01*
X17250000Y67823000D01*
X18450000Y67823000D01*
X18450000Y67173000D01*
X18450000Y67173000D01*
G37*
G36*
X89917290Y69171381D02*
G01*
X89981689Y69158571D01*
X90163678Y69083189D01*
X90327463Y68973751D01*
X90466751Y68834463D01*
X90576189Y68670678D01*
X90651571Y68488689D01*
X90690000Y68295491D01*
X90690000Y68098509D01*
X90651571Y67905311D01*
X90576189Y67723322D01*
X90466751Y67559537D01*
X90327463Y67420249D01*
X90163678Y67310811D01*
X89981689Y67235429D01*
X89917290Y67222619D01*
X89788493Y67197000D01*
X89591507Y67197000D01*
X89462710Y67222619D01*
X89398311Y67235429D01*
X89216322Y67310811D01*
X89052537Y67420249D01*
X88913249Y67559537D01*
X88803811Y67723322D01*
X88728429Y67905311D01*
X88690000Y68098509D01*
X88690000Y68295491D01*
X88728429Y68488689D01*
X88803811Y68670678D01*
X88913249Y68834463D01*
X89052537Y68973751D01*
X89216322Y69083189D01*
X89398311Y69158571D01*
X89462710Y69171381D01*
X89591507Y69197000D01*
X89788493Y69197000D01*
X89917290Y69171381D01*
X89917290Y69171381D01*
G37*
G36*
X36174351Y68968257D02*
G01*
X36319941Y68907952D01*
X36450970Y68820401D01*
X36562401Y68708970D01*
X36649952Y68577941D01*
X36710257Y68432351D01*
X36741000Y68277794D01*
X36741000Y68120206D01*
X36710257Y67965649D01*
X36649952Y67820059D01*
X36562401Y67689030D01*
X36450970Y67577599D01*
X36319941Y67490048D01*
X36174351Y67429743D01*
X36019794Y67399000D01*
X35862206Y67399000D01*
X35707649Y67429743D01*
X35562059Y67490048D01*
X35431030Y67577599D01*
X35319599Y67689030D01*
X35232048Y67820059D01*
X35171743Y67965649D01*
X35141000Y68120206D01*
X35141000Y68277794D01*
X35171743Y68432351D01*
X35232048Y68577941D01*
X35319599Y68708970D01*
X35431030Y68820401D01*
X35562059Y68907952D01*
X35707649Y68968257D01*
X35862206Y68999000D01*
X36019794Y68999000D01*
X36174351Y68968257D01*
X36174351Y68968257D01*
G37*
G36*
X31094351Y68968257D02*
G01*
X31239941Y68907952D01*
X31370970Y68820401D01*
X31482401Y68708970D01*
X31569952Y68577941D01*
X31630257Y68432351D01*
X31661000Y68277794D01*
X31661000Y68120206D01*
X31630257Y67965649D01*
X31569952Y67820059D01*
X31482401Y67689030D01*
X31370970Y67577599D01*
X31239941Y67490048D01*
X31094351Y67429743D01*
X30939794Y67399000D01*
X30782206Y67399000D01*
X30627649Y67429743D01*
X30482059Y67490048D01*
X30351030Y67577599D01*
X30239599Y67689030D01*
X30152048Y67820059D01*
X30091743Y67965649D01*
X30061000Y68120206D01*
X30061000Y68277794D01*
X30091743Y68432351D01*
X30152048Y68577941D01*
X30239599Y68708970D01*
X30351030Y68820401D01*
X30482059Y68907952D01*
X30627649Y68968257D01*
X30782206Y68999000D01*
X30939794Y68999000D01*
X31094351Y68968257D01*
X31094351Y68968257D01*
G37*
G36*
X38714351Y68968257D02*
G01*
X38859941Y68907952D01*
X38990970Y68820401D01*
X39102401Y68708970D01*
X39189952Y68577941D01*
X39250257Y68432351D01*
X39281000Y68277794D01*
X39281000Y68120206D01*
X39250257Y67965649D01*
X39189952Y67820059D01*
X39102401Y67689030D01*
X38990970Y67577599D01*
X38859941Y67490048D01*
X38714351Y67429743D01*
X38559794Y67399000D01*
X38402206Y67399000D01*
X38247649Y67429743D01*
X38102059Y67490048D01*
X37971030Y67577599D01*
X37859599Y67689030D01*
X37772048Y67820059D01*
X37711743Y67965649D01*
X37681000Y68120206D01*
X37681000Y68277794D01*
X37711743Y68432351D01*
X37772048Y68577941D01*
X37859599Y68708970D01*
X37971030Y68820401D01*
X38102059Y68907952D01*
X38247649Y68968257D01*
X38402206Y68999000D01*
X38559794Y68999000D01*
X38714351Y68968257D01*
X38714351Y68968257D01*
G37*
G36*
X33634351Y68968257D02*
G01*
X33779941Y68907952D01*
X33910970Y68820401D01*
X34022401Y68708970D01*
X34109952Y68577941D01*
X34170257Y68432351D01*
X34201000Y68277794D01*
X34201000Y68120206D01*
X34170257Y67965649D01*
X34109952Y67820059D01*
X34022401Y67689030D01*
X33910970Y67577599D01*
X33779941Y67490048D01*
X33634351Y67429743D01*
X33479794Y67399000D01*
X33322206Y67399000D01*
X33167649Y67429743D01*
X33022059Y67490048D01*
X32891030Y67577599D01*
X32779599Y67689030D01*
X32692048Y67820059D01*
X32631743Y67965649D01*
X32601000Y68120206D01*
X32601000Y68277794D01*
X32631743Y68432351D01*
X32692048Y68577941D01*
X32779599Y68708970D01*
X32891030Y68820401D01*
X33022059Y68907952D01*
X33167649Y68968257D01*
X33322206Y68999000D01*
X33479794Y68999000D01*
X33634351Y68968257D01*
X33634351Y68968257D01*
G37*
G36*
X82747000Y67407500D02*
G01*
X81847000Y67407500D01*
X81847000Y68707500D01*
X82747000Y68707500D01*
X82747000Y67407500D01*
X82747000Y67407500D01*
G37*
G36*
X80547000Y67407500D02*
G01*
X79647000Y67407500D01*
X79647000Y68707500D01*
X80547000Y68707500D01*
X80547000Y67407500D01*
X80547000Y67407500D01*
G37*
G36*
X23898000Y67813000D02*
G01*
X22698000Y67813000D01*
X22698000Y68463000D01*
X23898000Y68463000D01*
X23898000Y67813000D01*
X23898000Y67813000D01*
G37*
G36*
X12425351Y70111257D02*
G01*
X12570941Y70050952D01*
X12701970Y69963401D01*
X12813401Y69851970D01*
X12900952Y69720941D01*
X12961257Y69575351D01*
X12992000Y69420794D01*
X12992000Y69263206D01*
X12961257Y69108649D01*
X12900952Y68963059D01*
X12813401Y68832030D01*
X12701970Y68720599D01*
X12570941Y68633048D01*
X12425351Y68572743D01*
X12270794Y68542000D01*
X12113206Y68542000D01*
X11958649Y68572743D01*
X11813059Y68633048D01*
X11682030Y68720599D01*
X11570599Y68832030D01*
X11483048Y68963059D01*
X11422743Y69108649D01*
X11392000Y69263206D01*
X11392000Y69420794D01*
X11422743Y69575351D01*
X11483048Y69720941D01*
X11570599Y69851970D01*
X11682030Y69963401D01*
X11813059Y70050952D01*
X11958649Y70111257D01*
X12113206Y70142000D01*
X12270794Y70142000D01*
X12425351Y70111257D01*
X12425351Y70111257D01*
G37*
G36*
X14965351Y70111257D02*
G01*
X15110941Y70050952D01*
X15241970Y69963401D01*
X15353401Y69851970D01*
X15440952Y69720941D01*
X15501257Y69575351D01*
X15532000Y69420794D01*
X15532000Y69263206D01*
X15501257Y69108649D01*
X15440952Y68963059D01*
X15353401Y68832030D01*
X15241970Y68720599D01*
X15110941Y68633048D01*
X14965351Y68572743D01*
X14810794Y68542000D01*
X14653206Y68542000D01*
X14498649Y68572743D01*
X14353059Y68633048D01*
X14222030Y68720599D01*
X14110599Y68832030D01*
X14023048Y68963059D01*
X13962743Y69108649D01*
X13932000Y69263206D01*
X13932000Y69420794D01*
X13962743Y69575351D01*
X14023048Y69720941D01*
X14110599Y69851970D01*
X14222030Y69963401D01*
X14353059Y70050952D01*
X14498649Y70111257D01*
X14653206Y70142000D01*
X14810794Y70142000D01*
X14965351Y70111257D01*
X14965351Y70111257D01*
G37*
G36*
X21498000Y68763000D02*
G01*
X20298000Y68763000D01*
X20298000Y69413000D01*
X21498000Y69413000D01*
X21498000Y68763000D01*
X21498000Y68763000D01*
G37*
G36*
X67950000Y69450000D02*
G01*
X66650000Y69450000D01*
X66650000Y70350000D01*
X67950000Y70350000D01*
X67950000Y69450000D01*
X67950000Y69450000D01*
G37*
G36*
X23898000Y69713000D02*
G01*
X22698000Y69713000D01*
X22698000Y70363000D01*
X23898000Y70363000D01*
X23898000Y69713000D01*
X23898000Y69713000D01*
G37*
G36*
X31094351Y71508257D02*
G01*
X31239941Y71447952D01*
X31370970Y71360401D01*
X31482401Y71248970D01*
X31569952Y71117941D01*
X31630257Y70972351D01*
X31661000Y70817794D01*
X31661000Y70660206D01*
X31630257Y70505649D01*
X31569952Y70360059D01*
X31482401Y70229030D01*
X31370970Y70117599D01*
X31239941Y70030048D01*
X31094351Y69969743D01*
X30939794Y69939000D01*
X30782206Y69939000D01*
X30627649Y69969743D01*
X30482059Y70030048D01*
X30351030Y70117599D01*
X30239599Y70229030D01*
X30152048Y70360059D01*
X30091743Y70505649D01*
X30061000Y70660206D01*
X30061000Y70817794D01*
X30091743Y70972351D01*
X30152048Y71117941D01*
X30239599Y71248970D01*
X30351030Y71360401D01*
X30482059Y71447952D01*
X30627649Y71508257D01*
X30782206Y71539000D01*
X30939794Y71539000D01*
X31094351Y71508257D01*
X31094351Y71508257D01*
G37*
G36*
X33634351Y71508257D02*
G01*
X33779941Y71447952D01*
X33910970Y71360401D01*
X34022401Y71248970D01*
X34109952Y71117941D01*
X34170257Y70972351D01*
X34201000Y70817794D01*
X34201000Y70660206D01*
X34170257Y70505649D01*
X34109952Y70360059D01*
X34022401Y70229030D01*
X33910970Y70117599D01*
X33779941Y70030048D01*
X33634351Y69969743D01*
X33479794Y69939000D01*
X33322206Y69939000D01*
X33167649Y69969743D01*
X33022059Y70030048D01*
X32891030Y70117599D01*
X32779599Y70229030D01*
X32692048Y70360059D01*
X32631743Y70505649D01*
X32601000Y70660206D01*
X32601000Y70817794D01*
X32631743Y70972351D01*
X32692048Y71117941D01*
X32779599Y71248970D01*
X32891030Y71360401D01*
X33022059Y71447952D01*
X33167649Y71508257D01*
X33322206Y71539000D01*
X33479794Y71539000D01*
X33634351Y71508257D01*
X33634351Y71508257D01*
G37*
G36*
X36174351Y71508257D02*
G01*
X36319941Y71447952D01*
X36450970Y71360401D01*
X36562401Y71248970D01*
X36649952Y71117941D01*
X36710257Y70972351D01*
X36741000Y70817794D01*
X36741000Y70660206D01*
X36710257Y70505649D01*
X36649952Y70360059D01*
X36562401Y70229030D01*
X36450970Y70117599D01*
X36319941Y70030048D01*
X36174351Y69969743D01*
X36019794Y69939000D01*
X35862206Y69939000D01*
X35707649Y69969743D01*
X35562059Y70030048D01*
X35431030Y70117599D01*
X35319599Y70229030D01*
X35232048Y70360059D01*
X35171743Y70505649D01*
X35141000Y70660206D01*
X35141000Y70817794D01*
X35171743Y70972351D01*
X35232048Y71117941D01*
X35319599Y71248970D01*
X35431030Y71360401D01*
X35562059Y71447952D01*
X35707649Y71508257D01*
X35862206Y71539000D01*
X36019794Y71539000D01*
X36174351Y71508257D01*
X36174351Y71508257D01*
G37*
G36*
X39281000Y69939000D02*
G01*
X37681000Y69939000D01*
X37681000Y71539000D01*
X39281000Y71539000D01*
X39281000Y69939000D01*
X39281000Y69939000D01*
G37*
G36*
X47050000Y70200000D02*
G01*
X46150000Y70200000D01*
X46150000Y71500000D01*
X47050000Y71500000D01*
X47050000Y70200000D01*
X47050000Y70200000D01*
G37*
G36*
X44850000Y70200000D02*
G01*
X43950000Y70200000D01*
X43950000Y71500000D01*
X44850000Y71500000D01*
X44850000Y70200000D01*
X44850000Y70200000D01*
G37*
G36*
X18450000Y70607000D02*
G01*
X17250000Y70607000D01*
X17250000Y71257000D01*
X18450000Y71257000D01*
X18450000Y70607000D01*
X18450000Y70607000D01*
G37*
G36*
X60134380Y70754704D02*
G01*
X58834380Y70754704D01*
X58834380Y71654704D01*
X60134380Y71654704D01*
X60134380Y70754704D01*
X60134380Y70754704D01*
G37*
G36*
X14965351Y72651257D02*
G01*
X15110941Y72590952D01*
X15241970Y72503401D01*
X15353401Y72391970D01*
X15440952Y72260941D01*
X15501257Y72115351D01*
X15532000Y71960794D01*
X15532000Y71803206D01*
X15501257Y71648649D01*
X15440952Y71503059D01*
X15353401Y71372030D01*
X15241970Y71260599D01*
X15110941Y71173048D01*
X14965351Y71112743D01*
X14810794Y71082000D01*
X14653206Y71082000D01*
X14498649Y71112743D01*
X14353059Y71173048D01*
X14222030Y71260599D01*
X14110599Y71372030D01*
X14023048Y71503059D01*
X13962743Y71648649D01*
X13932000Y71803206D01*
X13932000Y71960794D01*
X13962743Y72115351D01*
X14023048Y72260941D01*
X14110599Y72391970D01*
X14222030Y72503401D01*
X14353059Y72590952D01*
X14498649Y72651257D01*
X14653206Y72682000D01*
X14810794Y72682000D01*
X14965351Y72651257D01*
X14965351Y72651257D01*
G37*
G36*
X12425351Y72651257D02*
G01*
X12570941Y72590952D01*
X12701970Y72503401D01*
X12813401Y72391970D01*
X12900952Y72260941D01*
X12961257Y72115351D01*
X12992000Y71960794D01*
X12992000Y71803206D01*
X12961257Y71648649D01*
X12900952Y71503059D01*
X12813401Y71372030D01*
X12701970Y71260599D01*
X12570941Y71173048D01*
X12425351Y71112743D01*
X12270794Y71082000D01*
X12113206Y71082000D01*
X11958649Y71112743D01*
X11813059Y71173048D01*
X11682030Y71260599D01*
X11570599Y71372030D01*
X11483048Y71503059D01*
X11422743Y71648649D01*
X11392000Y71803206D01*
X11392000Y71960794D01*
X11422743Y72115351D01*
X11483048Y72260941D01*
X11570599Y72391970D01*
X11682030Y72503401D01*
X11813059Y72590952D01*
X11958649Y72651257D01*
X12113206Y72682000D01*
X12270794Y72682000D01*
X12425351Y72651257D01*
X12425351Y72651257D01*
G37*
G36*
X89945102Y73103794D02*
G01*
X90031689Y73086571D01*
X90213678Y73011189D01*
X90377463Y72901751D01*
X90516751Y72762463D01*
X90626189Y72598678D01*
X90701571Y72416689D01*
X90701571Y72416688D01*
X90740000Y72223493D01*
X90740000Y72026507D01*
X90714381Y71897710D01*
X90701571Y71833311D01*
X90626189Y71651322D01*
X90516751Y71487537D01*
X90377463Y71348249D01*
X90213678Y71238811D01*
X90031689Y71163429D01*
X89967290Y71150619D01*
X89838493Y71125000D01*
X89641507Y71125000D01*
X89512710Y71150619D01*
X89448311Y71163429D01*
X89266322Y71238811D01*
X89102537Y71348249D01*
X88963249Y71487537D01*
X88853811Y71651322D01*
X88778429Y71833311D01*
X88765619Y71897710D01*
X88740000Y72026507D01*
X88740000Y72223493D01*
X88778429Y72416688D01*
X88778429Y72416689D01*
X88853811Y72598678D01*
X88963249Y72762463D01*
X89102537Y72901751D01*
X89266322Y73011189D01*
X89448311Y73086571D01*
X89534898Y73103794D01*
X89641507Y73125000D01*
X89838493Y73125000D01*
X89945102Y73103794D01*
X89945102Y73103794D01*
G37*
G36*
X20850000Y71557000D02*
G01*
X19650000Y71557000D01*
X19650000Y72207000D01*
X20850000Y72207000D01*
X20850000Y71557000D01*
X20850000Y71557000D01*
G37*
G36*
X67950000Y71650000D02*
G01*
X66650000Y71650000D01*
X66650000Y72550000D01*
X67950000Y72550000D01*
X67950000Y71650000D01*
X67950000Y71650000D01*
G37*
G36*
X3408351Y73794257D02*
G01*
X3553941Y73733952D01*
X3684970Y73646401D01*
X3796401Y73534970D01*
X3883952Y73403941D01*
X3944257Y73258351D01*
X3975000Y73103794D01*
X3975000Y72946206D01*
X3944257Y72791649D01*
X3883952Y72646059D01*
X3796401Y72515030D01*
X3684970Y72403599D01*
X3553941Y72316048D01*
X3408351Y72255743D01*
X3253794Y72225000D01*
X3096206Y72225000D01*
X2941649Y72255743D01*
X2796059Y72316048D01*
X2665030Y72403599D01*
X2553599Y72515030D01*
X2466048Y72646059D01*
X2405743Y72791649D01*
X2375000Y72946206D01*
X2375000Y73103794D01*
X2405743Y73258351D01*
X2466048Y73403941D01*
X2553599Y73534970D01*
X2665030Y73646401D01*
X2796059Y73733952D01*
X2941649Y73794257D01*
X3096206Y73825000D01*
X3253794Y73825000D01*
X3408351Y73794257D01*
X3408351Y73794257D01*
G37*
G36*
X5948351Y73794257D02*
G01*
X6093941Y73733952D01*
X6224970Y73646401D01*
X6336401Y73534970D01*
X6423952Y73403941D01*
X6484257Y73258351D01*
X6515000Y73103794D01*
X6515000Y72946206D01*
X6484257Y72791649D01*
X6423952Y72646059D01*
X6336401Y72515030D01*
X6224970Y72403599D01*
X6093941Y72316048D01*
X5948351Y72255743D01*
X5793794Y72225000D01*
X5636206Y72225000D01*
X5481649Y72255743D01*
X5336059Y72316048D01*
X5205030Y72403599D01*
X5093599Y72515030D01*
X5006048Y72646059D01*
X4945743Y72791649D01*
X4915000Y72946206D01*
X4915000Y73103794D01*
X4945743Y73258351D01*
X5006048Y73403941D01*
X5093599Y73534970D01*
X5205030Y73646401D01*
X5336059Y73733952D01*
X5481649Y73794257D01*
X5636206Y73825000D01*
X5793794Y73825000D01*
X5948351Y73794257D01*
X5948351Y73794257D01*
G37*
G36*
X77350000Y72500000D02*
G01*
X76050000Y72500000D01*
X76050000Y73400000D01*
X77350000Y73400000D01*
X77350000Y72500000D01*
X77350000Y72500000D01*
G37*
G36*
X18450000Y72507000D02*
G01*
X17250000Y72507000D01*
X17250000Y73157000D01*
X18450000Y73157000D01*
X18450000Y72507000D01*
X18450000Y72507000D01*
G37*
G36*
X64034231Y74094461D02*
G01*
X64179821Y74034156D01*
X64310850Y73946605D01*
X64422281Y73835174D01*
X64509832Y73704145D01*
X64570137Y73558555D01*
X64600880Y73403998D01*
X64600880Y73246410D01*
X64570137Y73091853D01*
X64509832Y72946263D01*
X64422281Y72815234D01*
X64310850Y72703803D01*
X64179821Y72616252D01*
X64034231Y72555947D01*
X63879674Y72525204D01*
X63722086Y72525204D01*
X63567529Y72555947D01*
X63421939Y72616252D01*
X63290910Y72703803D01*
X63179479Y72815234D01*
X63091928Y72946263D01*
X63031623Y73091853D01*
X63000880Y73246410D01*
X63000880Y73403998D01*
X63031623Y73558555D01*
X63091928Y73704145D01*
X63179479Y73835174D01*
X63290910Y73946605D01*
X63421939Y74034156D01*
X63567529Y74094461D01*
X63722086Y74125204D01*
X63879674Y74125204D01*
X64034231Y74094461D01*
X64034231Y74094461D01*
G37*
G36*
X93256703Y75823514D02*
G01*
X93547883Y75702903D01*
X93809940Y75527802D01*
X94032802Y75304940D01*
X94207903Y75042883D01*
X94328514Y74751703D01*
X94390000Y74442588D01*
X94390000Y74127412D01*
X94328514Y73818297D01*
X94207903Y73527117D01*
X94032802Y73265060D01*
X93809940Y73042198D01*
X93547883Y72867097D01*
X93256703Y72746486D01*
X92947588Y72685000D01*
X92632412Y72685000D01*
X92323297Y72746486D01*
X92032117Y72867097D01*
X91770060Y73042198D01*
X91547198Y73265060D01*
X91372097Y73527117D01*
X91251486Y73818297D01*
X91190000Y74127412D01*
X91190000Y74442588D01*
X91251486Y74751703D01*
X91372097Y75042883D01*
X91547198Y75304940D01*
X91770060Y75527802D01*
X92032117Y75702903D01*
X92323297Y75823514D01*
X92632412Y75885000D01*
X92947588Y75885000D01*
X93256703Y75823514D01*
X93256703Y75823514D01*
G37*
G36*
X60134380Y72954704D02*
G01*
X58834380Y72954704D01*
X58834380Y73854704D01*
X60134380Y73854704D01*
X60134380Y72954704D01*
X60134380Y72954704D01*
G37*
G36*
X97894182Y74348100D02*
G01*
X98021573Y74295333D01*
X98021574Y74295332D01*
X98136224Y74218726D01*
X98233726Y74121224D01*
X98233727Y74121222D01*
X98310333Y74006573D01*
X98363100Y73879182D01*
X98390000Y73743945D01*
X98390000Y73606055D01*
X98363100Y73470818D01*
X98310333Y73343427D01*
X98310332Y73343426D01*
X98233726Y73228776D01*
X98136224Y73131274D01*
X98126834Y73125000D01*
X98021573Y73054667D01*
X97894182Y73001900D01*
X97758945Y72975000D01*
X97621055Y72975000D01*
X97485818Y73001900D01*
X97358427Y73054667D01*
X97253166Y73125000D01*
X97243776Y73131274D01*
X97146274Y73228776D01*
X97069668Y73343426D01*
X97069667Y73343427D01*
X97016900Y73470818D01*
X96990000Y73606055D01*
X96990000Y73743945D01*
X97016900Y73879182D01*
X97069667Y74006573D01*
X97146273Y74121222D01*
X97146274Y74121224D01*
X97243776Y74218726D01*
X97358426Y74295332D01*
X97358427Y74295333D01*
X97485818Y74348100D01*
X97621055Y74375000D01*
X97758945Y74375000D01*
X97894182Y74348100D01*
X97894182Y74348100D01*
G37*
G36*
X23898000Y73147000D02*
G01*
X22698000Y73147000D01*
X22698000Y73797000D01*
X23898000Y73797000D01*
X23898000Y73147000D01*
X23898000Y73147000D01*
G37*
G36*
X12992000Y73622000D02*
G01*
X11392000Y73622000D01*
X11392000Y75222000D01*
X12992000Y75222000D01*
X12992000Y73622000D01*
X12992000Y73622000D01*
G37*
G36*
X14965351Y75191257D02*
G01*
X15110941Y75130952D01*
X15241970Y75043401D01*
X15353401Y74931970D01*
X15440952Y74800941D01*
X15501257Y74655351D01*
X15532000Y74500794D01*
X15532000Y74343206D01*
X15501257Y74188649D01*
X15440952Y74043059D01*
X15353401Y73912030D01*
X15241970Y73800599D01*
X15110941Y73713048D01*
X14965351Y73652743D01*
X14810794Y73622000D01*
X14653206Y73622000D01*
X14498649Y73652743D01*
X14353059Y73713048D01*
X14222030Y73800599D01*
X14110599Y73912030D01*
X14023048Y74043059D01*
X13962743Y74188649D01*
X13932000Y74343206D01*
X13932000Y74500794D01*
X13962743Y74655351D01*
X14023048Y74800941D01*
X14110599Y74931970D01*
X14222030Y75043401D01*
X14353059Y75130952D01*
X14498649Y75191257D01*
X14653206Y75222000D01*
X14810794Y75222000D01*
X14965351Y75191257D01*
X14965351Y75191257D01*
G37*
G36*
X71000000Y73900000D02*
G01*
X69700000Y73900000D01*
X69700000Y74800000D01*
X71000000Y74800000D01*
X71000000Y73900000D01*
X71000000Y73900000D01*
G37*
G36*
X67950000Y73950000D02*
G01*
X66650000Y73950000D01*
X66650000Y74850000D01*
X67950000Y74850000D01*
X67950000Y73950000D01*
X67950000Y73950000D01*
G37*
G36*
X21498000Y74097000D02*
G01*
X20298000Y74097000D01*
X20298000Y74747000D01*
X21498000Y74747000D01*
X21498000Y74097000D01*
X21498000Y74097000D01*
G37*
G36*
X77350000Y74700000D02*
G01*
X76050000Y74700000D01*
X76050000Y75600000D01*
X77350000Y75600000D01*
X77350000Y74700000D01*
X77350000Y74700000D01*
G37*
G36*
X3408351Y76334257D02*
G01*
X3553941Y76273952D01*
X3684970Y76186401D01*
X3796401Y76074970D01*
X3883952Y75943941D01*
X3944257Y75798351D01*
X3975000Y75643794D01*
X3975000Y75486206D01*
X3944257Y75331649D01*
X3883952Y75186059D01*
X3796401Y75055030D01*
X3684970Y74943599D01*
X3553941Y74856048D01*
X3408351Y74795743D01*
X3253794Y74765000D01*
X3096206Y74765000D01*
X2941649Y74795743D01*
X2796059Y74856048D01*
X2665030Y74943599D01*
X2553599Y75055030D01*
X2466048Y75186059D01*
X2405743Y75331649D01*
X2375000Y75486206D01*
X2375000Y75643794D01*
X2405743Y75798351D01*
X2466048Y75943941D01*
X2553599Y76074970D01*
X2665030Y76186401D01*
X2796059Y76273952D01*
X2941649Y76334257D01*
X3096206Y76365000D01*
X3253794Y76365000D01*
X3408351Y76334257D01*
X3408351Y76334257D01*
G37*
G36*
X5948351Y76334257D02*
G01*
X6093941Y76273952D01*
X6224970Y76186401D01*
X6336401Y76074970D01*
X6423952Y75943941D01*
X6484257Y75798351D01*
X6515000Y75643794D01*
X6515000Y75486206D01*
X6484257Y75331649D01*
X6423952Y75186059D01*
X6336401Y75055030D01*
X6224970Y74943599D01*
X6093941Y74856048D01*
X5948351Y74795743D01*
X5793794Y74765000D01*
X5636206Y74765000D01*
X5481649Y74795743D01*
X5336059Y74856048D01*
X5205030Y74943599D01*
X5093599Y75055030D01*
X5006048Y75186059D01*
X4945743Y75331649D01*
X4915000Y75486206D01*
X4915000Y75643794D01*
X4945743Y75798351D01*
X5006048Y75943941D01*
X5093599Y76074970D01*
X5205030Y76186401D01*
X5336059Y76273952D01*
X5481649Y76334257D01*
X5636206Y76365000D01*
X5793794Y76365000D01*
X5948351Y76334257D01*
X5948351Y76334257D01*
G37*
G36*
X86644182Y76228100D02*
G01*
X86771573Y76175333D01*
X86815389Y76146056D01*
X86886224Y76098726D01*
X86983726Y76001224D01*
X86983727Y76001222D01*
X87060333Y75886573D01*
X87113100Y75759182D01*
X87140000Y75623945D01*
X87140000Y75486055D01*
X87113100Y75350818D01*
X87060333Y75223427D01*
X87035364Y75186058D01*
X86983726Y75108776D01*
X86886224Y75011274D01*
X86828510Y74972711D01*
X86771573Y74934667D01*
X86644182Y74881900D01*
X86508945Y74855000D01*
X86371055Y74855000D01*
X86235818Y74881900D01*
X86108427Y74934667D01*
X86051490Y74972711D01*
X85993776Y75011274D01*
X85896274Y75108776D01*
X85844636Y75186058D01*
X85819667Y75223427D01*
X85766900Y75350818D01*
X85740000Y75486055D01*
X85740000Y75623945D01*
X85766900Y75759182D01*
X85819667Y75886573D01*
X85896273Y76001222D01*
X85896274Y76001224D01*
X85993776Y76098726D01*
X86064611Y76146056D01*
X86108427Y76175333D01*
X86235818Y76228100D01*
X86371055Y76255000D01*
X86508945Y76255000D01*
X86644182Y76228100D01*
X86644182Y76228100D01*
G37*
G36*
X23898000Y75047000D02*
G01*
X22698000Y75047000D01*
X22698000Y75697000D01*
X23898000Y75697000D01*
X23898000Y75047000D01*
X23898000Y75047000D01*
G37*
G36*
X96374182Y76888100D02*
G01*
X96501573Y76835333D01*
X96501574Y76835332D01*
X96616224Y76758726D01*
X96713726Y76661224D01*
X96713727Y76661222D01*
X96790333Y76546573D01*
X96843100Y76419182D01*
X96870000Y76283945D01*
X96870000Y76146055D01*
X96843100Y76010818D01*
X96790333Y75883427D01*
X96790332Y75883426D01*
X96713726Y75768776D01*
X96616224Y75671274D01*
X96575097Y75643794D01*
X96501573Y75594667D01*
X96374182Y75541900D01*
X96238945Y75515000D01*
X96101055Y75515000D01*
X95965818Y75541900D01*
X95838427Y75594667D01*
X95764903Y75643794D01*
X95723776Y75671274D01*
X95626274Y75768776D01*
X95549668Y75883426D01*
X95549667Y75883427D01*
X95496900Y76010818D01*
X95470000Y76146055D01*
X95470000Y76283945D01*
X95496900Y76419182D01*
X95549667Y76546573D01*
X95626273Y76661222D01*
X95626274Y76661224D01*
X95723776Y76758726D01*
X95838426Y76835332D01*
X95838427Y76835333D01*
X95965818Y76888100D01*
X96101055Y76915000D01*
X96238945Y76915000D01*
X96374182Y76888100D01*
X96374182Y76888100D01*
G37*
G36*
X71000000Y76100000D02*
G01*
X69700000Y76100000D01*
X69700000Y77000000D01*
X71000000Y77000000D01*
X71000000Y76100000D01*
X71000000Y76100000D01*
G37*
G36*
X84104182Y77498100D02*
G01*
X84231573Y77445333D01*
X84231574Y77445332D01*
X84346224Y77368726D01*
X84443726Y77271224D01*
X84443727Y77271222D01*
X84520333Y77156573D01*
X84573100Y77029182D01*
X84600000Y76893945D01*
X84600000Y76756055D01*
X84573100Y76620818D01*
X84520333Y76493427D01*
X84520332Y76493426D01*
X84443726Y76378776D01*
X84346224Y76281274D01*
X84335264Y76273951D01*
X84231573Y76204667D01*
X84104182Y76151900D01*
X83968945Y76125000D01*
X83831055Y76125000D01*
X83695818Y76151900D01*
X83568427Y76204667D01*
X83464736Y76273951D01*
X83453776Y76281274D01*
X83356274Y76378776D01*
X83279668Y76493426D01*
X83279667Y76493427D01*
X83226900Y76620818D01*
X83200000Y76756055D01*
X83200000Y76893945D01*
X83226900Y77029182D01*
X83279667Y77156573D01*
X83356273Y77271222D01*
X83356274Y77271224D01*
X83453776Y77368726D01*
X83568426Y77445332D01*
X83568427Y77445333D01*
X83695818Y77498100D01*
X83831055Y77525000D01*
X83968945Y77525000D01*
X84104182Y77498100D01*
X84104182Y77498100D01*
G37*
G36*
X67950000Y76150000D02*
G01*
X66650000Y76150000D01*
X66650000Y77050000D01*
X67950000Y77050000D01*
X67950000Y76150000D01*
X67950000Y76150000D01*
G37*
G36*
X3408351Y78874257D02*
G01*
X3553941Y78813952D01*
X3684970Y78726401D01*
X3796401Y78614970D01*
X3883952Y78483941D01*
X3944257Y78338351D01*
X3975000Y78183794D01*
X3975000Y78026206D01*
X3944257Y77871649D01*
X3883952Y77726059D01*
X3796401Y77595030D01*
X3684970Y77483599D01*
X3553941Y77396048D01*
X3408351Y77335743D01*
X3253794Y77305000D01*
X3096206Y77305000D01*
X2941649Y77335743D01*
X2796059Y77396048D01*
X2665030Y77483599D01*
X2553599Y77595030D01*
X2466048Y77726059D01*
X2405743Y77871649D01*
X2375000Y78026206D01*
X2375000Y78183794D01*
X2405743Y78338351D01*
X2466048Y78483941D01*
X2553599Y78614970D01*
X2665030Y78726401D01*
X2796059Y78813952D01*
X2941649Y78874257D01*
X3096206Y78905000D01*
X3253794Y78905000D01*
X3408351Y78874257D01*
X3408351Y78874257D01*
G37*
G36*
X5948351Y78874257D02*
G01*
X6093941Y78813952D01*
X6224970Y78726401D01*
X6336401Y78614970D01*
X6423952Y78483941D01*
X6484257Y78338351D01*
X6515000Y78183794D01*
X6515000Y78026206D01*
X6484257Y77871649D01*
X6423952Y77726059D01*
X6336401Y77595030D01*
X6224970Y77483599D01*
X6093941Y77396048D01*
X5948351Y77335743D01*
X5793794Y77305000D01*
X5636206Y77305000D01*
X5481649Y77335743D01*
X5336059Y77396048D01*
X5205030Y77483599D01*
X5093599Y77595030D01*
X5006048Y77726059D01*
X4945743Y77871649D01*
X4915000Y78026206D01*
X4915000Y78183794D01*
X4945743Y78338351D01*
X5006048Y78483941D01*
X5093599Y78614970D01*
X5205030Y78726401D01*
X5336059Y78813952D01*
X5481649Y78874257D01*
X5636206Y78905000D01*
X5793794Y78905000D01*
X5948351Y78874257D01*
X5948351Y78874257D01*
G37*
G36*
X86644182Y78768100D02*
G01*
X86771573Y78715333D01*
X86806641Y78691901D01*
X86886224Y78638726D01*
X86983726Y78541224D01*
X86983727Y78541222D01*
X87060333Y78426573D01*
X87113100Y78299182D01*
X87140000Y78163945D01*
X87140000Y78026055D01*
X87113100Y77890818D01*
X87060333Y77763427D01*
X87035364Y77726058D01*
X86983726Y77648776D01*
X86886224Y77551274D01*
X86846902Y77525000D01*
X86771573Y77474667D01*
X86644182Y77421900D01*
X86508945Y77395000D01*
X86371055Y77395000D01*
X86235818Y77421900D01*
X86108427Y77474667D01*
X86033098Y77525000D01*
X85993776Y77551274D01*
X85896274Y77648776D01*
X85844636Y77726058D01*
X85819667Y77763427D01*
X85766900Y77890818D01*
X85740000Y78026055D01*
X85740000Y78163945D01*
X85766900Y78299182D01*
X85819667Y78426573D01*
X85896273Y78541222D01*
X85896274Y78541224D01*
X85993776Y78638726D01*
X86073359Y78691901D01*
X86108427Y78715333D01*
X86235818Y78768100D01*
X86371055Y78795000D01*
X86508945Y78795000D01*
X86644182Y78768100D01*
X86644182Y78768100D01*
G37*
G36*
X64034231Y78974461D02*
G01*
X64179821Y78914156D01*
X64310850Y78826605D01*
X64422281Y78715174D01*
X64509832Y78584145D01*
X64570137Y78438555D01*
X64600880Y78283998D01*
X64600880Y78126410D01*
X64570137Y77971853D01*
X64509832Y77826263D01*
X64422281Y77695234D01*
X64310850Y77583803D01*
X64179821Y77496252D01*
X64034231Y77435947D01*
X63879674Y77405204D01*
X63722086Y77405204D01*
X63567529Y77435947D01*
X63421939Y77496252D01*
X63290910Y77583803D01*
X63179479Y77695234D01*
X63091928Y77826263D01*
X63031623Y77971853D01*
X63000880Y78126410D01*
X63000880Y78283998D01*
X63031623Y78438555D01*
X63091928Y78584145D01*
X63179479Y78715174D01*
X63290910Y78826605D01*
X63421939Y78914156D01*
X63567529Y78974461D01*
X63722086Y79005204D01*
X63879674Y79005204D01*
X64034231Y78974461D01*
X64034231Y78974461D01*
G37*
G36*
X93930000Y77518500D02*
G01*
X93030000Y77518500D01*
X93030000Y78818500D01*
X93930000Y78818500D01*
X93930000Y77518500D01*
X93930000Y77518500D01*
G37*
G36*
X91730000Y77518500D02*
G01*
X90830000Y77518500D01*
X90830000Y78818500D01*
X91730000Y78818500D01*
X91730000Y77518500D01*
X91730000Y77518500D01*
G37*
G36*
X79891000Y77692000D02*
G01*
X78991000Y77692000D01*
X78991000Y78992000D01*
X79891000Y78992000D01*
X79891000Y77692000D01*
X79891000Y77692000D01*
G37*
G36*
X82091000Y77692000D02*
G01*
X81191000Y77692000D01*
X81191000Y78992000D01*
X82091000Y78992000D01*
X82091000Y77692000D01*
X82091000Y77692000D01*
G37*
G36*
X60134380Y77866704D02*
G01*
X58834380Y77866704D01*
X58834380Y78766704D01*
X60134380Y78766704D01*
X60134380Y77866704D01*
X60134380Y77866704D01*
G37*
G36*
X70605935Y79684336D02*
G01*
X70760624Y79620261D01*
X70760626Y79620260D01*
X70899844Y79527238D01*
X71018238Y79408844D01*
X71111260Y79269626D01*
X71111261Y79269624D01*
X71175336Y79114935D01*
X71208000Y78950719D01*
X71208000Y78783281D01*
X71175336Y78619065D01*
X71119365Y78483941D01*
X71111260Y78464374D01*
X71018238Y78325156D01*
X70899844Y78206762D01*
X70760626Y78113740D01*
X70760625Y78113739D01*
X70760624Y78113739D01*
X70605935Y78049664D01*
X70441719Y78017000D01*
X70274281Y78017000D01*
X70110065Y78049664D01*
X69955376Y78113739D01*
X69955375Y78113739D01*
X69955374Y78113740D01*
X69816156Y78206762D01*
X69697762Y78325156D01*
X69604740Y78464374D01*
X69596635Y78483941D01*
X69540664Y78619065D01*
X69508000Y78783281D01*
X69508000Y78950719D01*
X69540664Y79114935D01*
X69604739Y79269624D01*
X69604740Y79269626D01*
X69697762Y79408844D01*
X69816156Y79527238D01*
X69955374Y79620260D01*
X69955376Y79620261D01*
X70110065Y79684336D01*
X70274281Y79717000D01*
X70441719Y79717000D01*
X70605935Y79684336D01*
X70605935Y79684336D01*
G37*
G36*
X67950000Y78450000D02*
G01*
X66650000Y78450000D01*
X66650000Y79350000D01*
X67950000Y79350000D01*
X67950000Y78450000D01*
X67950000Y78450000D01*
G37*
G36*
X84104182Y80038100D02*
G01*
X84231573Y79985333D01*
X84231574Y79985332D01*
X84346224Y79908726D01*
X84443726Y79811224D01*
X84443727Y79811222D01*
X84520333Y79696573D01*
X84573100Y79569182D01*
X84600000Y79433945D01*
X84600000Y79296055D01*
X84573100Y79160818D01*
X84520333Y79033427D01*
X84520332Y79033426D01*
X84443726Y78918776D01*
X84346224Y78821274D01*
X84335264Y78813951D01*
X84231573Y78744667D01*
X84104182Y78691900D01*
X83968945Y78665000D01*
X83831055Y78665000D01*
X83695818Y78691900D01*
X83568427Y78744667D01*
X83464736Y78813951D01*
X83453776Y78821274D01*
X83356274Y78918776D01*
X83279668Y79033426D01*
X83279667Y79033427D01*
X83226900Y79160818D01*
X83200000Y79296055D01*
X83200000Y79433945D01*
X83226900Y79569182D01*
X83279667Y79696573D01*
X83356273Y79811222D01*
X83356274Y79811224D01*
X83453776Y79908726D01*
X83568426Y79985332D01*
X83568427Y79985333D01*
X83695818Y80038100D01*
X83831055Y80065000D01*
X83968945Y80065000D01*
X84104182Y80038100D01*
X84104182Y80038100D01*
G37*
G36*
X3408351Y81414257D02*
G01*
X3553941Y81353952D01*
X3684970Y81266401D01*
X3796401Y81154970D01*
X3883952Y81023941D01*
X3944257Y80878351D01*
X3975000Y80723794D01*
X3975000Y80566206D01*
X3944257Y80411649D01*
X3883952Y80266059D01*
X3796401Y80135030D01*
X3684970Y80023599D01*
X3553941Y79936048D01*
X3408351Y79875743D01*
X3253794Y79845000D01*
X3096206Y79845000D01*
X2941649Y79875743D01*
X2796059Y79936048D01*
X2665030Y80023599D01*
X2553599Y80135030D01*
X2466048Y80266059D01*
X2405743Y80411649D01*
X2375000Y80566206D01*
X2375000Y80723794D01*
X2405743Y80878351D01*
X2466048Y81023941D01*
X2553599Y81154970D01*
X2665030Y81266401D01*
X2796059Y81353952D01*
X2941649Y81414257D01*
X3096206Y81445000D01*
X3253794Y81445000D01*
X3408351Y81414257D01*
X3408351Y81414257D01*
G37*
G36*
X5948351Y81414257D02*
G01*
X6093941Y81353952D01*
X6224970Y81266401D01*
X6336401Y81154970D01*
X6423952Y81023941D01*
X6484257Y80878351D01*
X6515000Y80723794D01*
X6515000Y80566206D01*
X6484257Y80411649D01*
X6423952Y80266059D01*
X6336401Y80135030D01*
X6224970Y80023599D01*
X6093941Y79936048D01*
X5948351Y79875743D01*
X5793794Y79845000D01*
X5636206Y79845000D01*
X5481649Y79875743D01*
X5336059Y79936048D01*
X5205030Y80023599D01*
X5093599Y80135030D01*
X5006048Y80266059D01*
X4945743Y80411649D01*
X4915000Y80566206D01*
X4915000Y80723794D01*
X4945743Y80878351D01*
X5006048Y81023941D01*
X5093599Y81154970D01*
X5205030Y81266401D01*
X5336059Y81353952D01*
X5481649Y81414257D01*
X5636206Y81445000D01*
X5793794Y81445000D01*
X5948351Y81414257D01*
X5948351Y81414257D01*
G37*
G36*
X86644182Y81308100D02*
G01*
X86771573Y81255333D01*
X86771574Y81255332D01*
X86886224Y81178726D01*
X86983726Y81081224D01*
X86983727Y81081222D01*
X87060333Y80966573D01*
X87113100Y80839182D01*
X87140000Y80703945D01*
X87140000Y80566055D01*
X87113100Y80430818D01*
X87060333Y80303427D01*
X87035364Y80266058D01*
X86983726Y80188776D01*
X86886224Y80091274D01*
X86849452Y80066704D01*
X86771573Y80014667D01*
X86644182Y79961900D01*
X86508945Y79935000D01*
X86371055Y79935000D01*
X86235818Y79961900D01*
X86108427Y80014667D01*
X86030548Y80066704D01*
X85993776Y80091274D01*
X85896274Y80188776D01*
X85844636Y80266058D01*
X85819667Y80303427D01*
X85766900Y80430818D01*
X85740000Y80566055D01*
X85740000Y80703945D01*
X85766900Y80839182D01*
X85819667Y80966573D01*
X85896273Y81081222D01*
X85896274Y81081224D01*
X85993776Y81178726D01*
X86108426Y81255332D01*
X86108427Y81255333D01*
X86235818Y81308100D01*
X86371055Y81335000D01*
X86508945Y81335000D01*
X86644182Y81308100D01*
X86644182Y81308100D01*
G37*
G36*
X60134380Y80066704D02*
G01*
X58834380Y80066704D01*
X58834380Y80966704D01*
X60134380Y80966704D01*
X60134380Y80066704D01*
X60134380Y80066704D01*
G37*
G36*
X79891000Y80442000D02*
G01*
X78991000Y80442000D01*
X78991000Y81742000D01*
X79891000Y81742000D01*
X79891000Y80442000D01*
X79891000Y80442000D01*
G37*
G36*
X82091000Y80442000D02*
G01*
X81191000Y80442000D01*
X81191000Y81742000D01*
X82091000Y81742000D01*
X82091000Y80442000D01*
X82091000Y80442000D01*
G37*
G36*
X70605935Y82184336D02*
G01*
X70760624Y82120261D01*
X70760626Y82120260D01*
X70899844Y82027238D01*
X71018238Y81908844D01*
X71111260Y81769626D01*
X71111261Y81769624D01*
X71175336Y81614935D01*
X71208000Y81450719D01*
X71208000Y81283281D01*
X71175336Y81119065D01*
X71135934Y81023942D01*
X71111260Y80964374D01*
X71018238Y80825156D01*
X70899844Y80706762D01*
X70760626Y80613740D01*
X70760625Y80613739D01*
X70760624Y80613739D01*
X70605935Y80549664D01*
X70441719Y80517000D01*
X70274281Y80517000D01*
X70110065Y80549664D01*
X69955376Y80613739D01*
X69955375Y80613739D01*
X69955374Y80613740D01*
X69816156Y80706762D01*
X69697762Y80825156D01*
X69604740Y80964374D01*
X69580066Y81023942D01*
X69540664Y81119065D01*
X69508000Y81283281D01*
X69508000Y81450719D01*
X69540664Y81614935D01*
X69604739Y81769624D01*
X69604740Y81769626D01*
X69697762Y81908844D01*
X69816156Y82027238D01*
X69955374Y82120260D01*
X69955376Y82120261D01*
X70110065Y82184336D01*
X70274281Y82217000D01*
X70441719Y82217000D01*
X70605935Y82184336D01*
X70605935Y82184336D01*
G37*
G36*
X67950000Y80650000D02*
G01*
X66650000Y80650000D01*
X66650000Y81550000D01*
X67950000Y81550000D01*
X67950000Y80650000D01*
X67950000Y80650000D01*
G37*
G36*
X93930000Y81201500D02*
G01*
X93030000Y81201500D01*
X93030000Y82501500D01*
X93930000Y82501500D01*
X93930000Y81201500D01*
X93930000Y81201500D01*
G37*
G36*
X91730000Y81201500D02*
G01*
X90830000Y81201500D01*
X90830000Y82501500D01*
X91730000Y82501500D01*
X91730000Y81201500D01*
X91730000Y81201500D01*
G37*
G36*
X84104182Y82578100D02*
G01*
X84231573Y82525333D01*
X84288510Y82487289D01*
X84346224Y82448726D01*
X84443726Y82351224D01*
X84443727Y82351222D01*
X84520333Y82236573D01*
X84573100Y82109182D01*
X84600000Y81973945D01*
X84600000Y81836055D01*
X84573100Y81700818D01*
X84520333Y81573427D01*
X84482289Y81516490D01*
X84443726Y81458776D01*
X84346224Y81361274D01*
X84335264Y81353951D01*
X84231573Y81284667D01*
X84104182Y81231900D01*
X83968945Y81205000D01*
X83831055Y81205000D01*
X83695818Y81231900D01*
X83568427Y81284667D01*
X83464736Y81353951D01*
X83453776Y81361274D01*
X83356274Y81458776D01*
X83317711Y81516490D01*
X83279667Y81573427D01*
X83226900Y81700818D01*
X83200000Y81836055D01*
X83200000Y81973945D01*
X83226900Y82109182D01*
X83279667Y82236573D01*
X83356273Y82351222D01*
X83356274Y82351224D01*
X83453776Y82448726D01*
X83511490Y82487289D01*
X83568427Y82525333D01*
X83695818Y82578100D01*
X83831055Y82605000D01*
X83968945Y82605000D01*
X84104182Y82578100D01*
X84104182Y82578100D01*
G37*
G36*
X43818766Y83821179D02*
G01*
X43955257Y83764642D01*
X44078097Y83682563D01*
X44182563Y83578097D01*
X44264642Y83455257D01*
X44321179Y83318766D01*
X44350000Y83173870D01*
X44350000Y83026130D01*
X44321179Y82881234D01*
X44264642Y82744743D01*
X44182563Y82621903D01*
X44078097Y82517437D01*
X43955257Y82435358D01*
X43818766Y82378821D01*
X43673870Y82350000D01*
X43526130Y82350000D01*
X43381234Y82378821D01*
X43244743Y82435358D01*
X43121903Y82517437D01*
X43017437Y82621903D01*
X42935358Y82744743D01*
X42878821Y82881234D01*
X42850000Y83026130D01*
X42850000Y83173870D01*
X42878821Y83318766D01*
X42935358Y83455257D01*
X43017437Y83578097D01*
X43121903Y83682563D01*
X43244743Y83764642D01*
X43381234Y83821179D01*
X43526130Y83850000D01*
X43673870Y83850000D01*
X43818766Y83821179D01*
X43818766Y83821179D01*
G37*
G36*
X3408351Y83954257D02*
G01*
X3553941Y83893952D01*
X3684970Y83806401D01*
X3796401Y83694970D01*
X3883952Y83563941D01*
X3944257Y83418351D01*
X3975000Y83263794D01*
X3975000Y83106206D01*
X3944257Y82951649D01*
X3883952Y82806059D01*
X3796401Y82675030D01*
X3684970Y82563599D01*
X3553941Y82476048D01*
X3408351Y82415743D01*
X3253794Y82385000D01*
X3096206Y82385000D01*
X2941649Y82415743D01*
X2796059Y82476048D01*
X2665030Y82563599D01*
X2553599Y82675030D01*
X2466048Y82806059D01*
X2405743Y82951649D01*
X2375000Y83106206D01*
X2375000Y83263794D01*
X2405743Y83418351D01*
X2466048Y83563941D01*
X2553599Y83694970D01*
X2665030Y83806401D01*
X2796059Y83893952D01*
X2941649Y83954257D01*
X3096206Y83985000D01*
X3253794Y83985000D01*
X3408351Y83954257D01*
X3408351Y83954257D01*
G37*
G36*
X5948351Y83954257D02*
G01*
X6093941Y83893952D01*
X6224970Y83806401D01*
X6336401Y83694970D01*
X6423952Y83563941D01*
X6484257Y83418351D01*
X6515000Y83263794D01*
X6515000Y83106206D01*
X6484257Y82951649D01*
X6423952Y82806059D01*
X6336401Y82675030D01*
X6224970Y82563599D01*
X6093941Y82476048D01*
X5948351Y82415743D01*
X5793794Y82385000D01*
X5636206Y82385000D01*
X5481649Y82415743D01*
X5336059Y82476048D01*
X5205030Y82563599D01*
X5093599Y82675030D01*
X5006048Y82806059D01*
X4945743Y82951649D01*
X4915000Y83106206D01*
X4915000Y83263794D01*
X4945743Y83418351D01*
X5006048Y83563941D01*
X5093599Y83694970D01*
X5205030Y83806401D01*
X5336059Y83893952D01*
X5481649Y83954257D01*
X5636206Y83985000D01*
X5793794Y83985000D01*
X5948351Y83954257D01*
X5948351Y83954257D01*
G37*
G36*
X86644182Y83848100D02*
G01*
X86771573Y83795333D01*
X86806641Y83771901D01*
X86886224Y83718726D01*
X86983726Y83621224D01*
X86983727Y83621222D01*
X87060333Y83506573D01*
X87113100Y83379182D01*
X87140000Y83243945D01*
X87140000Y83106055D01*
X87113100Y82970818D01*
X87060333Y82843427D01*
X87035364Y82806058D01*
X86983726Y82728776D01*
X86886224Y82631274D01*
X86872199Y82621903D01*
X86771573Y82554667D01*
X86644182Y82501900D01*
X86508945Y82475000D01*
X86371055Y82475000D01*
X86235818Y82501900D01*
X86108427Y82554667D01*
X86007801Y82621903D01*
X85993776Y82631274D01*
X85896274Y82728776D01*
X85844636Y82806058D01*
X85819667Y82843427D01*
X85766900Y82970818D01*
X85740000Y83106055D01*
X85740000Y83243945D01*
X85766900Y83379182D01*
X85819667Y83506573D01*
X85896273Y83621222D01*
X85896274Y83621224D01*
X85993776Y83718726D01*
X86073359Y83771901D01*
X86108427Y83795333D01*
X86235818Y83848100D01*
X86371055Y83875000D01*
X86508945Y83875000D01*
X86644182Y83848100D01*
X86644182Y83848100D01*
G37*
G36*
X97894182Y84458100D02*
G01*
X98021573Y84405333D01*
X98065389Y84376056D01*
X98136224Y84328726D01*
X98233726Y84231224D01*
X98233727Y84231222D01*
X98310333Y84116573D01*
X98363100Y83989182D01*
X98390000Y83853945D01*
X98390000Y83716055D01*
X98363100Y83580818D01*
X98310333Y83453427D01*
X98310332Y83453426D01*
X98233726Y83338776D01*
X98136224Y83241274D01*
X98078510Y83202711D01*
X98021573Y83164667D01*
X97894182Y83111900D01*
X97758945Y83085000D01*
X97621055Y83085000D01*
X97485818Y83111900D01*
X97358427Y83164667D01*
X97301490Y83202711D01*
X97243776Y83241274D01*
X97146274Y83338776D01*
X97069668Y83453426D01*
X97069667Y83453427D01*
X97016900Y83580818D01*
X96990000Y83716055D01*
X96990000Y83853945D01*
X97016900Y83989182D01*
X97069667Y84116573D01*
X97146273Y84231222D01*
X97146274Y84231224D01*
X97243776Y84328726D01*
X97314611Y84376056D01*
X97358427Y84405333D01*
X97485818Y84458100D01*
X97621055Y84485000D01*
X97758945Y84485000D01*
X97894182Y84458100D01*
X97894182Y84458100D01*
G37*
G36*
X61966921Y84793741D02*
G01*
X62112511Y84733436D01*
X62243540Y84645885D01*
X62354971Y84534454D01*
X62442522Y84403425D01*
X62502827Y84257835D01*
X62533570Y84103278D01*
X62533570Y83945690D01*
X62502827Y83791133D01*
X62442522Y83645543D01*
X62354971Y83514514D01*
X62243540Y83403083D01*
X62112511Y83315532D01*
X61966921Y83255227D01*
X61812364Y83224484D01*
X61654776Y83224484D01*
X61500219Y83255227D01*
X61354629Y83315532D01*
X61223600Y83403083D01*
X61112169Y83514514D01*
X61024618Y83645543D01*
X60964313Y83791133D01*
X60933570Y83945690D01*
X60933570Y84103278D01*
X60964313Y84257835D01*
X61024618Y84403425D01*
X61112169Y84534454D01*
X61223600Y84645885D01*
X61354629Y84733436D01*
X61500219Y84793741D01*
X61654776Y84824484D01*
X61812364Y84824484D01*
X61966921Y84793741D01*
X61966921Y84793741D01*
G37*
G36*
X84104182Y85118100D02*
G01*
X84231573Y85065333D01*
X84231574Y85065332D01*
X84346224Y84988726D01*
X84443726Y84891224D01*
X84443727Y84891222D01*
X84520333Y84776573D01*
X84573100Y84649182D01*
X84600000Y84513945D01*
X84600000Y84376055D01*
X84573100Y84240818D01*
X84520333Y84113427D01*
X84513551Y84103277D01*
X84443726Y83998776D01*
X84346224Y83901274D01*
X84335264Y83893951D01*
X84231573Y83824667D01*
X84104182Y83771900D01*
X83968945Y83745000D01*
X83831055Y83745000D01*
X83695818Y83771900D01*
X83568427Y83824667D01*
X83464736Y83893951D01*
X83453776Y83901274D01*
X83356274Y83998776D01*
X83286449Y84103277D01*
X83279667Y84113427D01*
X83226900Y84240818D01*
X83200000Y84376055D01*
X83200000Y84513945D01*
X83226900Y84649182D01*
X83279667Y84776573D01*
X83356273Y84891222D01*
X83356274Y84891224D01*
X83453776Y84988726D01*
X83568426Y85065332D01*
X83568427Y85065333D01*
X83695818Y85118100D01*
X83831055Y85145000D01*
X83968945Y85145000D01*
X84104182Y85118100D01*
X84104182Y85118100D01*
G37*
G36*
X78562000Y83904000D02*
G01*
X77262000Y83904000D01*
X77262000Y84804000D01*
X78562000Y84804000D01*
X78562000Y83904000D01*
X78562000Y83904000D01*
G37*
G36*
X75260000Y83904000D02*
G01*
X73960000Y83904000D01*
X73960000Y84804000D01*
X75260000Y84804000D01*
X75260000Y83904000D01*
X75260000Y83904000D01*
G37*
G36*
X71958000Y83904000D02*
G01*
X70658000Y83904000D01*
X70658000Y84804000D01*
X71958000Y84804000D01*
X71958000Y83904000D01*
X71958000Y83904000D01*
G37*
G36*
X81864000Y83904000D02*
G01*
X80564000Y83904000D01*
X80564000Y84804000D01*
X81864000Y84804000D01*
X81864000Y83904000D01*
X81864000Y83904000D01*
G37*
G36*
X68656000Y83904000D02*
G01*
X67356000Y83904000D01*
X67356000Y84804000D01*
X68656000Y84804000D01*
X68656000Y83904000D01*
X68656000Y83904000D01*
G37*
G36*
X93256703Y87253514D02*
G01*
X93547883Y87132903D01*
X93809940Y86957802D01*
X94032802Y86734940D01*
X94207903Y86472883D01*
X94328514Y86181703D01*
X94390000Y85872588D01*
X94390000Y85557412D01*
X94328514Y85248297D01*
X94207903Y84957117D01*
X94032802Y84695060D01*
X93809940Y84472198D01*
X93547883Y84297097D01*
X93256703Y84176486D01*
X92947588Y84115000D01*
X92632412Y84115000D01*
X92323297Y84176486D01*
X92032117Y84297097D01*
X91770060Y84472198D01*
X91547198Y84695060D01*
X91372097Y84957117D01*
X91251486Y85248297D01*
X91190000Y85557412D01*
X91190000Y85872588D01*
X91251486Y86181703D01*
X91372097Y86472883D01*
X91547198Y86734940D01*
X91770060Y86957802D01*
X92032117Y87132903D01*
X92323297Y87253514D01*
X92632412Y87315000D01*
X92947588Y87315000D01*
X93256703Y87253514D01*
X93256703Y87253514D01*
G37*
G36*
X5948351Y86494257D02*
G01*
X6093941Y86433952D01*
X6224970Y86346401D01*
X6336401Y86234970D01*
X6423952Y86103941D01*
X6484257Y85958351D01*
X6515000Y85803794D01*
X6515000Y85646206D01*
X6484257Y85491649D01*
X6423952Y85346059D01*
X6336401Y85215030D01*
X6224970Y85103599D01*
X6093941Y85016048D01*
X5948351Y84955743D01*
X5793794Y84925000D01*
X5636206Y84925000D01*
X5481649Y84955743D01*
X5336059Y85016048D01*
X5205030Y85103599D01*
X5093599Y85215030D01*
X5006048Y85346059D01*
X4945743Y85491649D01*
X4915000Y85646206D01*
X4915000Y85803794D01*
X4945743Y85958351D01*
X5006048Y86103941D01*
X5093599Y86234970D01*
X5205030Y86346401D01*
X5336059Y86433952D01*
X5481649Y86494257D01*
X5636206Y86525000D01*
X5793794Y86525000D01*
X5948351Y86494257D01*
X5948351Y86494257D01*
G37*
G36*
X3975000Y84925000D02*
G01*
X2375000Y84925000D01*
X2375000Y86525000D01*
X3975000Y86525000D01*
X3975000Y84925000D01*
X3975000Y84925000D01*
G37*
G36*
X96374182Y86998100D02*
G01*
X96501573Y86945333D01*
X96549321Y86913429D01*
X96616224Y86868726D01*
X96713726Y86771224D01*
X96713727Y86771222D01*
X96790333Y86656573D01*
X96843100Y86529182D01*
X96870000Y86393945D01*
X96870000Y86256055D01*
X96843100Y86120818D01*
X96790333Y85993427D01*
X96790332Y85993426D01*
X96713726Y85878776D01*
X96616224Y85781274D01*
X96558510Y85742711D01*
X96501573Y85704667D01*
X96374182Y85651900D01*
X96238945Y85625000D01*
X96101055Y85625000D01*
X95965818Y85651900D01*
X95838427Y85704667D01*
X95781490Y85742711D01*
X95723776Y85781274D01*
X95626274Y85878776D01*
X95549668Y85993426D01*
X95549667Y85993427D01*
X95496900Y86120818D01*
X95470000Y86256055D01*
X95470000Y86393945D01*
X95496900Y86529182D01*
X95549667Y86656573D01*
X95626273Y86771222D01*
X95626274Y86771224D01*
X95723776Y86868726D01*
X95790679Y86913429D01*
X95838427Y86945333D01*
X95965818Y86998100D01*
X96101055Y87025000D01*
X96238945Y87025000D01*
X96374182Y86998100D01*
X96374182Y86998100D01*
G37*
G36*
X61966921Y87333741D02*
G01*
X62112511Y87273436D01*
X62243540Y87185885D01*
X62354971Y87074454D01*
X62442522Y86943425D01*
X62502827Y86797835D01*
X62533570Y86643278D01*
X62533570Y86485690D01*
X62502827Y86331133D01*
X62442522Y86185543D01*
X62354971Y86054514D01*
X62243540Y85943083D01*
X62112511Y85855532D01*
X61966921Y85795227D01*
X61812364Y85764484D01*
X61654776Y85764484D01*
X61500219Y85795227D01*
X61354629Y85855532D01*
X61223600Y85943083D01*
X61112169Y86054514D01*
X61024618Y86185543D01*
X60964313Y86331133D01*
X60933570Y86485690D01*
X60933570Y86643278D01*
X60964313Y86797835D01*
X61024618Y86943425D01*
X61112169Y87074454D01*
X61223600Y87185885D01*
X61354629Y87273436D01*
X61500219Y87333741D01*
X61654776Y87364484D01*
X61812364Y87364484D01*
X61966921Y87333741D01*
X61966921Y87333741D01*
G37*
G36*
X78562000Y86104000D02*
G01*
X77262000Y86104000D01*
X77262000Y87004000D01*
X78562000Y87004000D01*
X78562000Y86104000D01*
X78562000Y86104000D01*
G37*
G36*
X81864000Y86104000D02*
G01*
X80564000Y86104000D01*
X80564000Y87004000D01*
X81864000Y87004000D01*
X81864000Y86104000D01*
X81864000Y86104000D01*
G37*
G36*
X75260000Y86104000D02*
G01*
X73960000Y86104000D01*
X73960000Y87004000D01*
X75260000Y87004000D01*
X75260000Y86104000D01*
X75260000Y86104000D01*
G37*
G36*
X71958000Y86104000D02*
G01*
X70658000Y86104000D01*
X70658000Y87004000D01*
X71958000Y87004000D01*
X71958000Y86104000D01*
X71958000Y86104000D01*
G37*
G36*
X68656000Y86104000D02*
G01*
X67356000Y86104000D01*
X67356000Y87004000D01*
X68656000Y87004000D01*
X68656000Y86104000D01*
X68656000Y86104000D01*
G37*
G36*
X89967290Y88849381D02*
G01*
X90031689Y88836571D01*
X90213678Y88761189D01*
X90377463Y88651751D01*
X90516751Y88512463D01*
X90626189Y88348678D01*
X90701571Y88166689D01*
X90740000Y87973491D01*
X90740000Y87776509D01*
X90701571Y87583311D01*
X90626189Y87401322D01*
X90516751Y87237537D01*
X90377463Y87098249D01*
X90213678Y86988811D01*
X90031689Y86913429D01*
X89967290Y86900619D01*
X89838493Y86875000D01*
X89641507Y86875000D01*
X89512710Y86900619D01*
X89448311Y86913429D01*
X89266322Y86988811D01*
X89102537Y87098249D01*
X88963249Y87237537D01*
X88853811Y87401322D01*
X88778429Y87583311D01*
X88740000Y87776509D01*
X88740000Y87973491D01*
X88778429Y88166689D01*
X88853811Y88348678D01*
X88963249Y88512463D01*
X89102537Y88651751D01*
X89266322Y88761189D01*
X89448311Y88836571D01*
X89512710Y88849381D01*
X89641507Y88875000D01*
X89838493Y88875000D01*
X89967290Y88849381D01*
X89967290Y88849381D01*
G37*
G36*
X54667351Y88633757D02*
G01*
X54812941Y88573452D01*
X54943970Y88485901D01*
X55055401Y88374470D01*
X55142952Y88243441D01*
X55203257Y88097851D01*
X55234000Y87943294D01*
X55234000Y87785706D01*
X55203257Y87631149D01*
X55142952Y87485559D01*
X55055401Y87354530D01*
X54943970Y87243099D01*
X54812941Y87155548D01*
X54667351Y87095243D01*
X54512794Y87064500D01*
X54355206Y87064500D01*
X54200649Y87095243D01*
X54055059Y87155548D01*
X53924030Y87243099D01*
X53812599Y87354530D01*
X53725048Y87485559D01*
X53664743Y87631149D01*
X53634000Y87785706D01*
X53634000Y87943294D01*
X53664743Y88097851D01*
X53725048Y88243441D01*
X53812599Y88374470D01*
X53924030Y88485901D01*
X54055059Y88573452D01*
X54200649Y88633757D01*
X54355206Y88664500D01*
X54512794Y88664500D01*
X54667351Y88633757D01*
X54667351Y88633757D01*
G37*
G36*
X57207351Y88633757D02*
G01*
X57352941Y88573452D01*
X57483970Y88485901D01*
X57595401Y88374470D01*
X57682952Y88243441D01*
X57743257Y88097851D01*
X57774000Y87943294D01*
X57774000Y87785706D01*
X57743257Y87631149D01*
X57682952Y87485559D01*
X57595401Y87354530D01*
X57483970Y87243099D01*
X57352941Y87155548D01*
X57207351Y87095243D01*
X57052794Y87064500D01*
X56895206Y87064500D01*
X56740649Y87095243D01*
X56595059Y87155548D01*
X56464030Y87243099D01*
X56352599Y87354530D01*
X56265048Y87485559D01*
X56204743Y87631149D01*
X56174000Y87785706D01*
X56174000Y87943294D01*
X56204743Y88097851D01*
X56265048Y88243441D01*
X56352599Y88374470D01*
X56464030Y88485901D01*
X56595059Y88573452D01*
X56740649Y88633757D01*
X56895206Y88664500D01*
X57052794Y88664500D01*
X57207351Y88633757D01*
X57207351Y88633757D01*
G37*
G36*
X49460351Y88633757D02*
G01*
X49605941Y88573452D01*
X49736970Y88485901D01*
X49848401Y88374470D01*
X49935952Y88243441D01*
X49996257Y88097851D01*
X50027000Y87943294D01*
X50027000Y87785706D01*
X49996257Y87631149D01*
X49935952Y87485559D01*
X49848401Y87354530D01*
X49736970Y87243099D01*
X49605941Y87155548D01*
X49460351Y87095243D01*
X49305794Y87064500D01*
X49148206Y87064500D01*
X48993649Y87095243D01*
X48848059Y87155548D01*
X48717030Y87243099D01*
X48605599Y87354530D01*
X48518048Y87485559D01*
X48457743Y87631149D01*
X48427000Y87785706D01*
X48427000Y87943294D01*
X48457743Y88097851D01*
X48518048Y88243441D01*
X48605599Y88374470D01*
X48717030Y88485901D01*
X48848059Y88573452D01*
X48993649Y88633757D01*
X49148206Y88664500D01*
X49305794Y88664500D01*
X49460351Y88633757D01*
X49460351Y88633757D01*
G37*
G36*
X52000351Y88633757D02*
G01*
X52145941Y88573452D01*
X52276970Y88485901D01*
X52388401Y88374470D01*
X52475952Y88243441D01*
X52536257Y88097851D01*
X52567000Y87943294D01*
X52567000Y87785706D01*
X52536257Y87631149D01*
X52475952Y87485559D01*
X52388401Y87354530D01*
X52276970Y87243099D01*
X52145941Y87155548D01*
X52000351Y87095243D01*
X51845794Y87064500D01*
X51688206Y87064500D01*
X51533649Y87095243D01*
X51388059Y87155548D01*
X51257030Y87243099D01*
X51145599Y87354530D01*
X51058048Y87485559D01*
X50997743Y87631149D01*
X50967000Y87785706D01*
X50967000Y87943294D01*
X50997743Y88097851D01*
X51058048Y88243441D01*
X51145599Y88374470D01*
X51257030Y88485901D01*
X51388059Y88573452D01*
X51533649Y88633757D01*
X51688206Y88664500D01*
X51845794Y88664500D01*
X52000351Y88633757D01*
X52000351Y88633757D01*
G37*
G36*
X61966921Y89873741D02*
G01*
X62112511Y89813436D01*
X62243540Y89725885D01*
X62354971Y89614454D01*
X62442522Y89483425D01*
X62502827Y89337835D01*
X62533570Y89183278D01*
X62533570Y89025690D01*
X62502827Y88871133D01*
X62442522Y88725543D01*
X62354971Y88594514D01*
X62243540Y88483083D01*
X62112511Y88395532D01*
X61966921Y88335227D01*
X61812364Y88304484D01*
X61654776Y88304484D01*
X61500219Y88335227D01*
X61354629Y88395532D01*
X61223600Y88483083D01*
X61112169Y88594514D01*
X61024618Y88725543D01*
X60964313Y88871133D01*
X60933570Y89025690D01*
X60933570Y89183278D01*
X60964313Y89337835D01*
X61024618Y89483425D01*
X61112169Y89614454D01*
X61223600Y89725885D01*
X61354629Y89813436D01*
X61500219Y89873741D01*
X61654776Y89904484D01*
X61812364Y89904484D01*
X61966921Y89873741D01*
X61966921Y89873741D01*
G37*
G36*
X68224766Y89985179D02*
G01*
X68361257Y89928642D01*
X68484097Y89846563D01*
X68588563Y89742097D01*
X68670642Y89619257D01*
X68727179Y89482766D01*
X68756000Y89337870D01*
X68756000Y89190130D01*
X68727179Y89045234D01*
X68670642Y88908743D01*
X68588563Y88785903D01*
X68484097Y88681437D01*
X68361257Y88599358D01*
X68224766Y88542821D01*
X68079870Y88514000D01*
X67932130Y88514000D01*
X67787234Y88542821D01*
X67650743Y88599358D01*
X67527903Y88681437D01*
X67423437Y88785903D01*
X67341358Y88908743D01*
X67284821Y89045234D01*
X67256000Y89190130D01*
X67256000Y89337870D01*
X67284821Y89482766D01*
X67341358Y89619257D01*
X67423437Y89742097D01*
X67527903Y89846563D01*
X67650743Y89928642D01*
X67787234Y89985179D01*
X67932130Y90014000D01*
X68079870Y90014000D01*
X68224766Y89985179D01*
X68224766Y89985179D01*
G37*
G36*
X71526766Y89985179D02*
G01*
X71663257Y89928642D01*
X71786097Y89846563D01*
X71890563Y89742097D01*
X71972642Y89619257D01*
X72029179Y89482766D01*
X72058000Y89337870D01*
X72058000Y89190130D01*
X72029179Y89045234D01*
X71972642Y88908743D01*
X71890563Y88785903D01*
X71786097Y88681437D01*
X71663257Y88599358D01*
X71526766Y88542821D01*
X71381870Y88514000D01*
X71234130Y88514000D01*
X71089234Y88542821D01*
X70952743Y88599358D01*
X70829903Y88681437D01*
X70725437Y88785903D01*
X70643358Y88908743D01*
X70586821Y89045234D01*
X70558000Y89190130D01*
X70558000Y89337870D01*
X70586821Y89482766D01*
X70643358Y89619257D01*
X70725437Y89742097D01*
X70829903Y89846563D01*
X70952743Y89928642D01*
X71089234Y89985179D01*
X71234130Y90014000D01*
X71381870Y90014000D01*
X71526766Y89985179D01*
X71526766Y89985179D01*
G37*
G36*
X78130766Y89985179D02*
G01*
X78267257Y89928642D01*
X78390097Y89846563D01*
X78494563Y89742097D01*
X78576642Y89619257D01*
X78633179Y89482766D01*
X78662000Y89337870D01*
X78662000Y89190130D01*
X78633179Y89045234D01*
X78576642Y88908743D01*
X78494563Y88785903D01*
X78390097Y88681437D01*
X78267257Y88599358D01*
X78130766Y88542821D01*
X77985870Y88514000D01*
X77838130Y88514000D01*
X77693234Y88542821D01*
X77556743Y88599358D01*
X77433903Y88681437D01*
X77329437Y88785903D01*
X77247358Y88908743D01*
X77190821Y89045234D01*
X77162000Y89190130D01*
X77162000Y89337870D01*
X77190821Y89482766D01*
X77247358Y89619257D01*
X77329437Y89742097D01*
X77433903Y89846563D01*
X77556743Y89928642D01*
X77693234Y89985179D01*
X77838130Y90014000D01*
X77985870Y90014000D01*
X78130766Y89985179D01*
X78130766Y89985179D01*
G37*
G36*
X81432766Y89985179D02*
G01*
X81569257Y89928642D01*
X81692097Y89846563D01*
X81796563Y89742097D01*
X81878642Y89619257D01*
X81935179Y89482766D01*
X81964000Y89337870D01*
X81964000Y89190130D01*
X81935179Y89045234D01*
X81878642Y88908743D01*
X81796563Y88785903D01*
X81692097Y88681437D01*
X81569257Y88599358D01*
X81432766Y88542821D01*
X81287870Y88514000D01*
X81140130Y88514000D01*
X80995234Y88542821D01*
X80858743Y88599358D01*
X80735903Y88681437D01*
X80631437Y88785903D01*
X80549358Y88908743D01*
X80492821Y89045234D01*
X80464000Y89190130D01*
X80464000Y89337870D01*
X80492821Y89482766D01*
X80549358Y89619257D01*
X80631437Y89742097D01*
X80735903Y89846563D01*
X80858743Y89928642D01*
X80995234Y89985179D01*
X81140130Y90014000D01*
X81287870Y90014000D01*
X81432766Y89985179D01*
X81432766Y89985179D01*
G37*
G36*
X74828766Y89985179D02*
G01*
X74965257Y89928642D01*
X75088097Y89846563D01*
X75192563Y89742097D01*
X75274642Y89619257D01*
X75331179Y89482766D01*
X75360000Y89337870D01*
X75360000Y89190130D01*
X75331179Y89045234D01*
X75274642Y88908743D01*
X75192563Y88785903D01*
X75088097Y88681437D01*
X74965257Y88599358D01*
X74828766Y88542821D01*
X74683870Y88514000D01*
X74536130Y88514000D01*
X74391234Y88542821D01*
X74254743Y88599358D01*
X74131903Y88681437D01*
X74027437Y88785903D01*
X73945358Y88908743D01*
X73888821Y89045234D01*
X73860000Y89190130D01*
X73860000Y89337870D01*
X73888821Y89482766D01*
X73945358Y89619257D01*
X74027437Y89742097D01*
X74131903Y89846563D01*
X74254743Y89928642D01*
X74391234Y89985179D01*
X74536130Y90014000D01*
X74683870Y90014000D01*
X74828766Y89985179D01*
X74828766Y89985179D01*
G37*
G36*
X91208000Y91892000D02*
G01*
X89808000Y91892000D01*
X89808000Y97192000D01*
X91208000Y97192000D01*
X91208000Y91892000D01*
X91208000Y91892000D01*
G37*
G36*
X5604780Y98040434D02*
G01*
X5904237Y97980869D01*
X6468401Y97747185D01*
X6976135Y97407928D01*
X7407928Y96976135D01*
X7747185Y96468401D01*
X7980869Y95904237D01*
X7980869Y95904235D01*
X8100000Y95305325D01*
X8100000Y94694675D01*
X8058480Y94485942D01*
X7980869Y94095763D01*
X7747185Y93531599D01*
X7407928Y93023865D01*
X6976135Y92592072D01*
X6468401Y92252815D01*
X5904237Y92019131D01*
X5604780Y91959565D01*
X5305325Y91900000D01*
X4694675Y91900000D01*
X4395220Y91959566D01*
X4095763Y92019131D01*
X3531599Y92252815D01*
X3023865Y92592072D01*
X2592072Y93023865D01*
X2252815Y93531599D01*
X2019131Y94095763D01*
X1941520Y94485942D01*
X1900000Y94694675D01*
X1900000Y95305325D01*
X2019131Y95904235D01*
X2019131Y95904237D01*
X2252815Y96468401D01*
X2592072Y96976135D01*
X3023865Y97407928D01*
X3531599Y97747185D01*
X4095763Y97980869D01*
X4395220Y98040434D01*
X4694675Y98100000D01*
X5305325Y98100000D01*
X5604780Y98040434D01*
X5604780Y98040434D01*
G37*
G36*
X95604780Y98040434D02*
G01*
X95904237Y97980869D01*
X96468401Y97747185D01*
X96976135Y97407928D01*
X97407928Y96976135D01*
X97747185Y96468401D01*
X97980869Y95904237D01*
X97980869Y95904235D01*
X98100000Y95305325D01*
X98100000Y94694675D01*
X98058480Y94485942D01*
X97980869Y94095763D01*
X97747185Y93531599D01*
X97407928Y93023865D01*
X96976135Y92592072D01*
X96468401Y92252815D01*
X95904237Y92019131D01*
X95604780Y91959565D01*
X95305325Y91900000D01*
X94694675Y91900000D01*
X94395220Y91959566D01*
X94095763Y92019131D01*
X93531599Y92252815D01*
X93023865Y92592072D01*
X92592072Y93023865D01*
X92252815Y93531599D01*
X92019131Y94095763D01*
X91941520Y94485942D01*
X91900000Y94694675D01*
X91900000Y95305325D01*
X92019131Y95904235D01*
X92019131Y95904237D01*
X92252815Y96468401D01*
X92592072Y96976135D01*
X93023865Y97407928D01*
X93531599Y97747185D01*
X94095763Y97980869D01*
X94395220Y98040434D01*
X94694675Y98100000D01*
X95305325Y98100000D01*
X95604780Y98040434D01*
X95604780Y98040434D01*
G37*
G36*
X16743351Y94876257D02*
G01*
X16888941Y94815952D01*
X17019970Y94728401D01*
X17131401Y94616970D01*
X17218952Y94485941D01*
X17279257Y94340351D01*
X17310000Y94185794D01*
X17310000Y94028206D01*
X17279257Y93873649D01*
X17218952Y93728059D01*
X17131401Y93597030D01*
X17019970Y93485599D01*
X16888941Y93398048D01*
X16743351Y93337743D01*
X16588794Y93307000D01*
X16431206Y93307000D01*
X16276649Y93337743D01*
X16131059Y93398048D01*
X16000030Y93485599D01*
X15888599Y93597030D01*
X15801048Y93728059D01*
X15740743Y93873649D01*
X15710000Y94028206D01*
X15710000Y94185794D01*
X15740743Y94340351D01*
X15801048Y94485941D01*
X15888599Y94616970D01*
X16000030Y94728401D01*
X16131059Y94815952D01*
X16276649Y94876257D01*
X16431206Y94907000D01*
X16588794Y94907000D01*
X16743351Y94876257D01*
X16743351Y94876257D01*
G37*
G36*
X58399351Y94876257D02*
G01*
X58544941Y94815952D01*
X58675970Y94728401D01*
X58787401Y94616970D01*
X58874952Y94485941D01*
X58935257Y94340351D01*
X58966000Y94185794D01*
X58966000Y94028206D01*
X58935257Y93873649D01*
X58874952Y93728059D01*
X58787401Y93597030D01*
X58675970Y93485599D01*
X58544941Y93398048D01*
X58399351Y93337743D01*
X58244794Y93307000D01*
X58087206Y93307000D01*
X57932649Y93337743D01*
X57787059Y93398048D01*
X57656030Y93485599D01*
X57544599Y93597030D01*
X57457048Y93728059D01*
X57396743Y93873649D01*
X57366000Y94028206D01*
X57366000Y94185794D01*
X57396743Y94340351D01*
X57457048Y94485941D01*
X57544599Y94616970D01*
X57656030Y94728401D01*
X57787059Y94815952D01*
X57932649Y94876257D01*
X58087206Y94907000D01*
X58244794Y94907000D01*
X58399351Y94876257D01*
X58399351Y94876257D01*
G37*
G36*
X60939351Y94876257D02*
G01*
X61084941Y94815952D01*
X61215970Y94728401D01*
X61327401Y94616970D01*
X61414952Y94485941D01*
X61475257Y94340351D01*
X61506000Y94185794D01*
X61506000Y94028206D01*
X61475257Y93873649D01*
X61414952Y93728059D01*
X61327401Y93597030D01*
X61215970Y93485599D01*
X61084941Y93398048D01*
X60939351Y93337743D01*
X60784794Y93307000D01*
X60627206Y93307000D01*
X60472649Y93337743D01*
X60327059Y93398048D01*
X60196030Y93485599D01*
X60084599Y93597030D01*
X59997048Y93728059D01*
X59936743Y93873649D01*
X59906000Y94028206D01*
X59906000Y94185794D01*
X59936743Y94340351D01*
X59997048Y94485941D01*
X60084599Y94616970D01*
X60196030Y94728401D01*
X60327059Y94815952D01*
X60472649Y94876257D01*
X60627206Y94907000D01*
X60784794Y94907000D01*
X60939351Y94876257D01*
X60939351Y94876257D01*
G37*
G36*
X63479351Y94876257D02*
G01*
X63624941Y94815952D01*
X63755970Y94728401D01*
X63867401Y94616970D01*
X63954952Y94485941D01*
X64015257Y94340351D01*
X64046000Y94185794D01*
X64046000Y94028206D01*
X64015257Y93873649D01*
X63954952Y93728059D01*
X63867401Y93597030D01*
X63755970Y93485599D01*
X63624941Y93398048D01*
X63479351Y93337743D01*
X63324794Y93307000D01*
X63167206Y93307000D01*
X63012649Y93337743D01*
X62867059Y93398048D01*
X62736030Y93485599D01*
X62624599Y93597030D01*
X62537048Y93728059D01*
X62476743Y93873649D01*
X62446000Y94028206D01*
X62446000Y94185794D01*
X62476743Y94340351D01*
X62537048Y94485941D01*
X62624599Y94616970D01*
X62736030Y94728401D01*
X62867059Y94815952D01*
X63012649Y94876257D01*
X63167206Y94907000D01*
X63324794Y94907000D01*
X63479351Y94876257D01*
X63479351Y94876257D01*
G37*
G36*
X14203351Y94876257D02*
G01*
X14348941Y94815952D01*
X14479970Y94728401D01*
X14591401Y94616970D01*
X14678952Y94485941D01*
X14739257Y94340351D01*
X14770000Y94185794D01*
X14770000Y94028206D01*
X14739257Y93873649D01*
X14678952Y93728059D01*
X14591401Y93597030D01*
X14479970Y93485599D01*
X14348941Y93398048D01*
X14203351Y93337743D01*
X14048794Y93307000D01*
X13891206Y93307000D01*
X13736649Y93337743D01*
X13591059Y93398048D01*
X13460030Y93485599D01*
X13348599Y93597030D01*
X13261048Y93728059D01*
X13200743Y93873649D01*
X13170000Y94028206D01*
X13170000Y94185794D01*
X13200743Y94340351D01*
X13261048Y94485941D01*
X13348599Y94616970D01*
X13460030Y94728401D01*
X13591059Y94815952D01*
X13736649Y94876257D01*
X13891206Y94907000D01*
X14048794Y94907000D01*
X14203351Y94876257D01*
X14203351Y94876257D01*
G37*
G36*
X19283351Y94876257D02*
G01*
X19428941Y94815952D01*
X19559970Y94728401D01*
X19671401Y94616970D01*
X19758952Y94485941D01*
X19819257Y94340351D01*
X19850000Y94185794D01*
X19850000Y94028206D01*
X19819257Y93873649D01*
X19758952Y93728059D01*
X19671401Y93597030D01*
X19559970Y93485599D01*
X19428941Y93398048D01*
X19283351Y93337743D01*
X19128794Y93307000D01*
X18971206Y93307000D01*
X18816649Y93337743D01*
X18671059Y93398048D01*
X18540030Y93485599D01*
X18428599Y93597030D01*
X18341048Y93728059D01*
X18280743Y93873649D01*
X18250000Y94028206D01*
X18250000Y94185794D01*
X18280743Y94340351D01*
X18341048Y94485941D01*
X18428599Y94616970D01*
X18540030Y94728401D01*
X18671059Y94815952D01*
X18816649Y94876257D01*
X18971206Y94907000D01*
X19128794Y94907000D01*
X19283351Y94876257D01*
X19283351Y94876257D01*
G37*
G36*
X21823351Y94876257D02*
G01*
X21968941Y94815952D01*
X22099970Y94728401D01*
X22211401Y94616970D01*
X22298952Y94485941D01*
X22359257Y94340351D01*
X22390000Y94185794D01*
X22390000Y94028206D01*
X22359257Y93873649D01*
X22298952Y93728059D01*
X22211401Y93597030D01*
X22099970Y93485599D01*
X21968941Y93398048D01*
X21823351Y93337743D01*
X21668794Y93307000D01*
X21511206Y93307000D01*
X21356649Y93337743D01*
X21211059Y93398048D01*
X21080030Y93485599D01*
X20968599Y93597030D01*
X20881048Y93728059D01*
X20820743Y93873649D01*
X20790000Y94028206D01*
X20790000Y94185794D01*
X20820743Y94340351D01*
X20881048Y94485941D01*
X20968599Y94616970D01*
X21080030Y94728401D01*
X21211059Y94815952D01*
X21356649Y94876257D01*
X21511206Y94907000D01*
X21668794Y94907000D01*
X21823351Y94876257D01*
X21823351Y94876257D01*
G37*
G36*
X24363351Y94876257D02*
G01*
X24508941Y94815952D01*
X24639970Y94728401D01*
X24751401Y94616970D01*
X24838952Y94485941D01*
X24899257Y94340351D01*
X24930000Y94185794D01*
X24930000Y94028206D01*
X24899257Y93873649D01*
X24838952Y93728059D01*
X24751401Y93597030D01*
X24639970Y93485599D01*
X24508941Y93398048D01*
X24363351Y93337743D01*
X24208794Y93307000D01*
X24051206Y93307000D01*
X23896649Y93337743D01*
X23751059Y93398048D01*
X23620030Y93485599D01*
X23508599Y93597030D01*
X23421048Y93728059D01*
X23360743Y93873649D01*
X23330000Y94028206D01*
X23330000Y94185794D01*
X23360743Y94340351D01*
X23421048Y94485941D01*
X23508599Y94616970D01*
X23620030Y94728401D01*
X23751059Y94815952D01*
X23896649Y94876257D01*
X24051206Y94907000D01*
X24208794Y94907000D01*
X24363351Y94876257D01*
X24363351Y94876257D01*
G37*
G36*
X26903351Y94876257D02*
G01*
X27048941Y94815952D01*
X27179970Y94728401D01*
X27291401Y94616970D01*
X27378952Y94485941D01*
X27439257Y94340351D01*
X27470000Y94185794D01*
X27470000Y94028206D01*
X27439257Y93873649D01*
X27378952Y93728059D01*
X27291401Y93597030D01*
X27179970Y93485599D01*
X27048941Y93398048D01*
X26903351Y93337743D01*
X26748794Y93307000D01*
X26591206Y93307000D01*
X26436649Y93337743D01*
X26291059Y93398048D01*
X26160030Y93485599D01*
X26048599Y93597030D01*
X25961048Y93728059D01*
X25900743Y93873649D01*
X25870000Y94028206D01*
X25870000Y94185794D01*
X25900743Y94340351D01*
X25961048Y94485941D01*
X26048599Y94616970D01*
X26160030Y94728401D01*
X26291059Y94815952D01*
X26436649Y94876257D01*
X26591206Y94907000D01*
X26748794Y94907000D01*
X26903351Y94876257D01*
X26903351Y94876257D01*
G37*
G36*
X42651351Y94876257D02*
G01*
X42796941Y94815952D01*
X42927970Y94728401D01*
X43039401Y94616970D01*
X43126952Y94485941D01*
X43187257Y94340351D01*
X43218000Y94185794D01*
X43218000Y94028206D01*
X43187257Y93873649D01*
X43126952Y93728059D01*
X43039401Y93597030D01*
X42927970Y93485599D01*
X42796941Y93398048D01*
X42651351Y93337743D01*
X42496794Y93307000D01*
X42339206Y93307000D01*
X42184649Y93337743D01*
X42039059Y93398048D01*
X41908030Y93485599D01*
X41796599Y93597030D01*
X41709048Y93728059D01*
X41648743Y93873649D01*
X41618000Y94028206D01*
X41618000Y94185794D01*
X41648743Y94340351D01*
X41709048Y94485941D01*
X41796599Y94616970D01*
X41908030Y94728401D01*
X42039059Y94815952D01*
X42184649Y94876257D01*
X42339206Y94907000D01*
X42496794Y94907000D01*
X42651351Y94876257D01*
X42651351Y94876257D01*
G37*
G36*
X40111351Y94876257D02*
G01*
X40256941Y94815952D01*
X40387970Y94728401D01*
X40499401Y94616970D01*
X40586952Y94485941D01*
X40647257Y94340351D01*
X40678000Y94185794D01*
X40678000Y94028206D01*
X40647257Y93873649D01*
X40586952Y93728059D01*
X40499401Y93597030D01*
X40387970Y93485599D01*
X40256941Y93398048D01*
X40111351Y93337743D01*
X39956794Y93307000D01*
X39799206Y93307000D01*
X39644649Y93337743D01*
X39499059Y93398048D01*
X39368030Y93485599D01*
X39256599Y93597030D01*
X39169048Y93728059D01*
X39108743Y93873649D01*
X39078000Y94028206D01*
X39078000Y94185794D01*
X39108743Y94340351D01*
X39169048Y94485941D01*
X39256599Y94616970D01*
X39368030Y94728401D01*
X39499059Y94815952D01*
X39644649Y94876257D01*
X39799206Y94907000D01*
X39956794Y94907000D01*
X40111351Y94876257D01*
X40111351Y94876257D01*
G37*
G36*
X37571351Y94876257D02*
G01*
X37716941Y94815952D01*
X37847970Y94728401D01*
X37959401Y94616970D01*
X38046952Y94485941D01*
X38107257Y94340351D01*
X38138000Y94185794D01*
X38138000Y94028206D01*
X38107257Y93873649D01*
X38046952Y93728059D01*
X37959401Y93597030D01*
X37847970Y93485599D01*
X37716941Y93398048D01*
X37571351Y93337743D01*
X37416794Y93307000D01*
X37259206Y93307000D01*
X37104649Y93337743D01*
X36959059Y93398048D01*
X36828030Y93485599D01*
X36716599Y93597030D01*
X36629048Y93728059D01*
X36568743Y93873649D01*
X36538000Y94028206D01*
X36538000Y94185794D01*
X36568743Y94340351D01*
X36629048Y94485941D01*
X36716599Y94616970D01*
X36828030Y94728401D01*
X36959059Y94815952D01*
X37104649Y94876257D01*
X37259206Y94907000D01*
X37416794Y94907000D01*
X37571351Y94876257D01*
X37571351Y94876257D01*
G37*
G36*
X84307351Y94876257D02*
G01*
X84452941Y94815952D01*
X84583970Y94728401D01*
X84695401Y94616970D01*
X84782952Y94485941D01*
X84843257Y94340351D01*
X84874000Y94185794D01*
X84874000Y94028206D01*
X84843257Y93873649D01*
X84782952Y93728059D01*
X84695401Y93597030D01*
X84583970Y93485599D01*
X84452941Y93398048D01*
X84307351Y93337743D01*
X84152794Y93307000D01*
X83995206Y93307000D01*
X83840649Y93337743D01*
X83695059Y93398048D01*
X83564030Y93485599D01*
X83452599Y93597030D01*
X83365048Y93728059D01*
X83304743Y93873649D01*
X83274000Y94028206D01*
X83274000Y94185794D01*
X83304743Y94340351D01*
X83365048Y94485941D01*
X83452599Y94616970D01*
X83564030Y94728401D01*
X83695059Y94815952D01*
X83840649Y94876257D01*
X83995206Y94907000D01*
X84152794Y94907000D01*
X84307351Y94876257D01*
X84307351Y94876257D01*
G37*
G36*
X81767351Y94876257D02*
G01*
X81912941Y94815952D01*
X82043970Y94728401D01*
X82155401Y94616970D01*
X82242952Y94485941D01*
X82303257Y94340351D01*
X82334000Y94185794D01*
X82334000Y94028206D01*
X82303257Y93873649D01*
X82242952Y93728059D01*
X82155401Y93597030D01*
X82043970Y93485599D01*
X81912941Y93398048D01*
X81767351Y93337743D01*
X81612794Y93307000D01*
X81455206Y93307000D01*
X81300649Y93337743D01*
X81155059Y93398048D01*
X81024030Y93485599D01*
X80912599Y93597030D01*
X80825048Y93728059D01*
X80764743Y93873649D01*
X80734000Y94028206D01*
X80734000Y94185794D01*
X80764743Y94340351D01*
X80825048Y94485941D01*
X80912599Y94616970D01*
X81024030Y94728401D01*
X81155059Y94815952D01*
X81300649Y94876257D01*
X81455206Y94907000D01*
X81612794Y94907000D01*
X81767351Y94876257D01*
X81767351Y94876257D01*
G37*
G36*
X79227351Y94876257D02*
G01*
X79372941Y94815952D01*
X79503970Y94728401D01*
X79615401Y94616970D01*
X79702952Y94485941D01*
X79763257Y94340351D01*
X79794000Y94185794D01*
X79794000Y94028206D01*
X79763257Y93873649D01*
X79702952Y93728059D01*
X79615401Y93597030D01*
X79503970Y93485599D01*
X79372941Y93398048D01*
X79227351Y93337743D01*
X79072794Y93307000D01*
X78915206Y93307000D01*
X78760649Y93337743D01*
X78615059Y93398048D01*
X78484030Y93485599D01*
X78372599Y93597030D01*
X78285048Y93728059D01*
X78224743Y93873649D01*
X78194000Y94028206D01*
X78194000Y94185794D01*
X78224743Y94340351D01*
X78285048Y94485941D01*
X78372599Y94616970D01*
X78484030Y94728401D01*
X78615059Y94815952D01*
X78760649Y94876257D01*
X78915206Y94907000D01*
X79072794Y94907000D01*
X79227351Y94876257D01*
X79227351Y94876257D01*
G37*
G36*
X76687351Y94876257D02*
G01*
X76832941Y94815952D01*
X76963970Y94728401D01*
X77075401Y94616970D01*
X77162952Y94485941D01*
X77223257Y94340351D01*
X77254000Y94185794D01*
X77254000Y94028206D01*
X77223257Y93873649D01*
X77162952Y93728059D01*
X77075401Y93597030D01*
X76963970Y93485599D01*
X76832941Y93398048D01*
X76687351Y93337743D01*
X76532794Y93307000D01*
X76375206Y93307000D01*
X76220649Y93337743D01*
X76075059Y93398048D01*
X75944030Y93485599D01*
X75832599Y93597030D01*
X75745048Y93728059D01*
X75684743Y93873649D01*
X75654000Y94028206D01*
X75654000Y94185794D01*
X75684743Y94340351D01*
X75745048Y94485941D01*
X75832599Y94616970D01*
X75944030Y94728401D01*
X76075059Y94815952D01*
X76220649Y94876257D01*
X76375206Y94907000D01*
X76532794Y94907000D01*
X76687351Y94876257D01*
X76687351Y94876257D01*
G37*
G36*
X55859351Y94876257D02*
G01*
X56004941Y94815952D01*
X56135970Y94728401D01*
X56247401Y94616970D01*
X56334952Y94485941D01*
X56395257Y94340351D01*
X56426000Y94185794D01*
X56426000Y94028206D01*
X56395257Y93873649D01*
X56334952Y93728059D01*
X56247401Y93597030D01*
X56135970Y93485599D01*
X56004941Y93398048D01*
X55859351Y93337743D01*
X55704794Y93307000D01*
X55547206Y93307000D01*
X55392649Y93337743D01*
X55247059Y93398048D01*
X55116030Y93485599D01*
X55004599Y93597030D01*
X54917048Y93728059D01*
X54856743Y93873649D01*
X54826000Y94028206D01*
X54826000Y94185794D01*
X54856743Y94340351D01*
X54917048Y94485941D01*
X55004599Y94616970D01*
X55116030Y94728401D01*
X55247059Y94815952D01*
X55392649Y94876257D01*
X55547206Y94907000D01*
X55704794Y94907000D01*
X55859351Y94876257D01*
X55859351Y94876257D01*
G37*
G36*
X74147351Y94876257D02*
G01*
X74292941Y94815952D01*
X74423970Y94728401D01*
X74535401Y94616970D01*
X74622952Y94485941D01*
X74683257Y94340351D01*
X74714000Y94185794D01*
X74714000Y94028206D01*
X74683257Y93873649D01*
X74622952Y93728059D01*
X74535401Y93597030D01*
X74423970Y93485599D01*
X74292941Y93398048D01*
X74147351Y93337743D01*
X73992794Y93307000D01*
X73835206Y93307000D01*
X73680649Y93337743D01*
X73535059Y93398048D01*
X73404030Y93485599D01*
X73292599Y93597030D01*
X73205048Y93728059D01*
X73144743Y93873649D01*
X73114000Y94028206D01*
X73114000Y94185794D01*
X73144743Y94340351D01*
X73205048Y94485941D01*
X73292599Y94616970D01*
X73404030Y94728401D01*
X73535059Y94815952D01*
X73680649Y94876257D01*
X73835206Y94907000D01*
X73992794Y94907000D01*
X74147351Y94876257D01*
X74147351Y94876257D01*
G37*
G36*
X45191351Y94876257D02*
G01*
X45336941Y94815952D01*
X45467970Y94728401D01*
X45579401Y94616970D01*
X45666952Y94485941D01*
X45727257Y94340351D01*
X45758000Y94185794D01*
X45758000Y94028206D01*
X45727257Y93873649D01*
X45666952Y93728059D01*
X45579401Y93597030D01*
X45467970Y93485599D01*
X45336941Y93398048D01*
X45191351Y93337743D01*
X45036794Y93307000D01*
X44879206Y93307000D01*
X44724649Y93337743D01*
X44579059Y93398048D01*
X44448030Y93485599D01*
X44336599Y93597030D01*
X44249048Y93728059D01*
X44188743Y93873649D01*
X44158000Y94028206D01*
X44158000Y94185794D01*
X44188743Y94340351D01*
X44249048Y94485941D01*
X44336599Y94616970D01*
X44448030Y94728401D01*
X44579059Y94815952D01*
X44724649Y94876257D01*
X44879206Y94907000D01*
X45036794Y94907000D01*
X45191351Y94876257D01*
X45191351Y94876257D01*
G37*
G36*
X87437534Y97442357D02*
G01*
X87646135Y97355951D01*
X87710517Y97329283D01*
X87801633Y97268401D01*
X87956193Y97165127D01*
X88165127Y96956193D01*
X88329284Y96710515D01*
X88442357Y96437534D01*
X88500000Y96147738D01*
X88500000Y95852262D01*
X88442357Y95562466D01*
X88329284Y95289485D01*
X88165127Y95043807D01*
X87956193Y94834873D01*
X87927874Y94815951D01*
X87710517Y94670717D01*
X87710516Y94670716D01*
X87710515Y94670716D01*
X87437534Y94557643D01*
X87147738Y94500000D01*
X86852262Y94500000D01*
X86562466Y94557643D01*
X86289485Y94670716D01*
X86289484Y94670716D01*
X86289483Y94670717D01*
X86072126Y94815951D01*
X86043807Y94834873D01*
X85834873Y95043807D01*
X85670716Y95289485D01*
X85557643Y95562466D01*
X85500000Y95852262D01*
X85500000Y96147738D01*
X85557643Y96437534D01*
X85670716Y96710515D01*
X85834873Y96956193D01*
X86043807Y97165127D01*
X86198367Y97268401D01*
X86289483Y97329283D01*
X86353865Y97355951D01*
X86562466Y97442357D01*
X86852262Y97500000D01*
X87147738Y97500000D01*
X87437534Y97442357D01*
X87437534Y97442357D01*
G37*
G36*
X11437534Y98442357D02*
G01*
X11710515Y98329284D01*
X11710517Y98329283D01*
X11834190Y98246647D01*
X11956193Y98165127D01*
X12165127Y97956193D01*
X12329284Y97710515D01*
X12442357Y97437534D01*
X12500000Y97147738D01*
X12500000Y96852262D01*
X12442357Y96562466D01*
X12329284Y96289485D01*
X12329283Y96289483D01*
X12165126Y96043806D01*
X11956194Y95834874D01*
X11710517Y95670717D01*
X11710516Y95670716D01*
X11710515Y95670716D01*
X11437534Y95557643D01*
X11147738Y95500000D01*
X10852262Y95500000D01*
X10562466Y95557643D01*
X10289485Y95670716D01*
X10289484Y95670716D01*
X10289483Y95670717D01*
X10043806Y95834874D01*
X9834874Y96043806D01*
X9670717Y96289483D01*
X9670716Y96289485D01*
X9557643Y96562466D01*
X9500000Y96852262D01*
X9500000Y97147738D01*
X9557643Y97437534D01*
X9670716Y97710515D01*
X9834873Y97956193D01*
X10043807Y98165127D01*
X10165810Y98246647D01*
X10289483Y98329283D01*
X10289485Y98329284D01*
X10562466Y98442357D01*
X10852262Y98500000D01*
X11147738Y98500000D01*
X11437534Y98442357D01*
X11437534Y98442357D01*
G37*
G36*
X42651351Y97416257D02*
G01*
X42796941Y97355952D01*
X42927970Y97268401D01*
X43039401Y97156970D01*
X43126952Y97025941D01*
X43187257Y96880351D01*
X43218000Y96725794D01*
X43218000Y96568206D01*
X43187257Y96413649D01*
X43126952Y96268059D01*
X43039401Y96137030D01*
X42927970Y96025599D01*
X42796941Y95938048D01*
X42651351Y95877743D01*
X42496794Y95847000D01*
X42339206Y95847000D01*
X42184649Y95877743D01*
X42039059Y95938048D01*
X41908030Y96025599D01*
X41796599Y96137030D01*
X41709048Y96268059D01*
X41648743Y96413649D01*
X41618000Y96568206D01*
X41618000Y96725794D01*
X41648743Y96880351D01*
X41709048Y97025941D01*
X41796599Y97156970D01*
X41908030Y97268401D01*
X42039059Y97355952D01*
X42184649Y97416257D01*
X42339206Y97447000D01*
X42496794Y97447000D01*
X42651351Y97416257D01*
X42651351Y97416257D01*
G37*
G36*
X40111351Y97416257D02*
G01*
X40256941Y97355952D01*
X40387970Y97268401D01*
X40499401Y97156970D01*
X40586952Y97025941D01*
X40647257Y96880351D01*
X40678000Y96725794D01*
X40678000Y96568206D01*
X40647257Y96413649D01*
X40586952Y96268059D01*
X40499401Y96137030D01*
X40387970Y96025599D01*
X40256941Y95938048D01*
X40111351Y95877743D01*
X39956794Y95847000D01*
X39799206Y95847000D01*
X39644649Y95877743D01*
X39499059Y95938048D01*
X39368030Y96025599D01*
X39256599Y96137030D01*
X39169048Y96268059D01*
X39108743Y96413649D01*
X39078000Y96568206D01*
X39078000Y96725794D01*
X39108743Y96880351D01*
X39169048Y97025941D01*
X39256599Y97156970D01*
X39368030Y97268401D01*
X39499059Y97355952D01*
X39644649Y97416257D01*
X39799206Y97447000D01*
X39956794Y97447000D01*
X40111351Y97416257D01*
X40111351Y97416257D01*
G37*
G36*
X27470000Y95847000D02*
G01*
X25870000Y95847000D01*
X25870000Y97447000D01*
X27470000Y97447000D01*
X27470000Y95847000D01*
X27470000Y95847000D01*
G37*
G36*
X37571351Y97416257D02*
G01*
X37716941Y97355952D01*
X37847970Y97268401D01*
X37959401Y97156970D01*
X38046952Y97025941D01*
X38107257Y96880351D01*
X38138000Y96725794D01*
X38138000Y96568206D01*
X38107257Y96413649D01*
X38046952Y96268059D01*
X37959401Y96137030D01*
X37847970Y96025599D01*
X37716941Y95938048D01*
X37571351Y95877743D01*
X37416794Y95847000D01*
X37259206Y95847000D01*
X37104649Y95877743D01*
X36959059Y95938048D01*
X36828030Y96025599D01*
X36716599Y96137030D01*
X36629048Y96268059D01*
X36568743Y96413649D01*
X36538000Y96568206D01*
X36538000Y96725794D01*
X36568743Y96880351D01*
X36629048Y97025941D01*
X36716599Y97156970D01*
X36828030Y97268401D01*
X36959059Y97355952D01*
X37104649Y97416257D01*
X37259206Y97447000D01*
X37416794Y97447000D01*
X37571351Y97416257D01*
X37571351Y97416257D01*
G37*
G36*
X55859351Y97416257D02*
G01*
X56004941Y97355952D01*
X56135970Y97268401D01*
X56247401Y97156970D01*
X56334952Y97025941D01*
X56395257Y96880351D01*
X56426000Y96725794D01*
X56426000Y96568206D01*
X56395257Y96413649D01*
X56334952Y96268059D01*
X56247401Y96137030D01*
X56135970Y96025599D01*
X56004941Y95938048D01*
X55859351Y95877743D01*
X55704794Y95847000D01*
X55547206Y95847000D01*
X55392649Y95877743D01*
X55247059Y95938048D01*
X55116030Y96025599D01*
X55004599Y96137030D01*
X54917048Y96268059D01*
X54856743Y96413649D01*
X54826000Y96568206D01*
X54826000Y96725794D01*
X54856743Y96880351D01*
X54917048Y97025941D01*
X55004599Y97156970D01*
X55116030Y97268401D01*
X55247059Y97355952D01*
X55392649Y97416257D01*
X55547206Y97447000D01*
X55704794Y97447000D01*
X55859351Y97416257D01*
X55859351Y97416257D01*
G37*
G36*
X84874000Y95847000D02*
G01*
X83274000Y95847000D01*
X83274000Y97447000D01*
X84874000Y97447000D01*
X84874000Y95847000D01*
X84874000Y95847000D01*
G37*
G36*
X81767351Y97416257D02*
G01*
X81912941Y97355952D01*
X82043970Y97268401D01*
X82155401Y97156970D01*
X82242952Y97025941D01*
X82303257Y96880351D01*
X82334000Y96725794D01*
X82334000Y96568206D01*
X82303257Y96413649D01*
X82242952Y96268059D01*
X82155401Y96137030D01*
X82043970Y96025599D01*
X81912941Y95938048D01*
X81767351Y95877743D01*
X81612794Y95847000D01*
X81455206Y95847000D01*
X81300649Y95877743D01*
X81155059Y95938048D01*
X81024030Y96025599D01*
X80912599Y96137030D01*
X80825048Y96268059D01*
X80764743Y96413649D01*
X80734000Y96568206D01*
X80734000Y96725794D01*
X80764743Y96880351D01*
X80825048Y97025941D01*
X80912599Y97156970D01*
X81024030Y97268401D01*
X81155059Y97355952D01*
X81300649Y97416257D01*
X81455206Y97447000D01*
X81612794Y97447000D01*
X81767351Y97416257D01*
X81767351Y97416257D01*
G37*
G36*
X14203351Y97416257D02*
G01*
X14348941Y97355952D01*
X14479970Y97268401D01*
X14591401Y97156970D01*
X14678952Y97025941D01*
X14739257Y96880351D01*
X14770000Y96725794D01*
X14770000Y96568206D01*
X14739257Y96413649D01*
X14678952Y96268059D01*
X14591401Y96137030D01*
X14479970Y96025599D01*
X14348941Y95938048D01*
X14203351Y95877743D01*
X14048794Y95847000D01*
X13891206Y95847000D01*
X13736649Y95877743D01*
X13591059Y95938048D01*
X13460030Y96025599D01*
X13348599Y96137030D01*
X13261048Y96268059D01*
X13200743Y96413649D01*
X13170000Y96568206D01*
X13170000Y96725794D01*
X13200743Y96880351D01*
X13261048Y97025941D01*
X13348599Y97156970D01*
X13460030Y97268401D01*
X13591059Y97355952D01*
X13736649Y97416257D01*
X13891206Y97447000D01*
X14048794Y97447000D01*
X14203351Y97416257D01*
X14203351Y97416257D01*
G37*
G36*
X79227351Y97416257D02*
G01*
X79372941Y97355952D01*
X79503970Y97268401D01*
X79615401Y97156970D01*
X79702952Y97025941D01*
X79763257Y96880351D01*
X79794000Y96725794D01*
X79794000Y96568206D01*
X79763257Y96413649D01*
X79702952Y96268059D01*
X79615401Y96137030D01*
X79503970Y96025599D01*
X79372941Y95938048D01*
X79227351Y95877743D01*
X79072794Y95847000D01*
X78915206Y95847000D01*
X78760649Y95877743D01*
X78615059Y95938048D01*
X78484030Y96025599D01*
X78372599Y96137030D01*
X78285048Y96268059D01*
X78224743Y96413649D01*
X78194000Y96568206D01*
X78194000Y96725794D01*
X78224743Y96880351D01*
X78285048Y97025941D01*
X78372599Y97156970D01*
X78484030Y97268401D01*
X78615059Y97355952D01*
X78760649Y97416257D01*
X78915206Y97447000D01*
X79072794Y97447000D01*
X79227351Y97416257D01*
X79227351Y97416257D01*
G37*
G36*
X76687351Y97416257D02*
G01*
X76832941Y97355952D01*
X76963970Y97268401D01*
X77075401Y97156970D01*
X77162952Y97025941D01*
X77223257Y96880351D01*
X77254000Y96725794D01*
X77254000Y96568206D01*
X77223257Y96413649D01*
X77162952Y96268059D01*
X77075401Y96137030D01*
X76963970Y96025599D01*
X76832941Y95938048D01*
X76687351Y95877743D01*
X76532794Y95847000D01*
X76375206Y95847000D01*
X76220649Y95877743D01*
X76075059Y95938048D01*
X75944030Y96025599D01*
X75832599Y96137030D01*
X75745048Y96268059D01*
X75684743Y96413649D01*
X75654000Y96568206D01*
X75654000Y96725794D01*
X75684743Y96880351D01*
X75745048Y97025941D01*
X75832599Y97156970D01*
X75944030Y97268401D01*
X76075059Y97355952D01*
X76220649Y97416257D01*
X76375206Y97447000D01*
X76532794Y97447000D01*
X76687351Y97416257D01*
X76687351Y97416257D01*
G37*
G36*
X16743351Y97416257D02*
G01*
X16888941Y97355952D01*
X17019970Y97268401D01*
X17131401Y97156970D01*
X17218952Y97025941D01*
X17279257Y96880351D01*
X17310000Y96725794D01*
X17310000Y96568206D01*
X17279257Y96413649D01*
X17218952Y96268059D01*
X17131401Y96137030D01*
X17019970Y96025599D01*
X16888941Y95938048D01*
X16743351Y95877743D01*
X16588794Y95847000D01*
X16431206Y95847000D01*
X16276649Y95877743D01*
X16131059Y95938048D01*
X16000030Y96025599D01*
X15888599Y96137030D01*
X15801048Y96268059D01*
X15740743Y96413649D01*
X15710000Y96568206D01*
X15710000Y96725794D01*
X15740743Y96880351D01*
X15801048Y97025941D01*
X15888599Y97156970D01*
X16000030Y97268401D01*
X16131059Y97355952D01*
X16276649Y97416257D01*
X16431206Y97447000D01*
X16588794Y97447000D01*
X16743351Y97416257D01*
X16743351Y97416257D01*
G37*
G36*
X74147351Y97416257D02*
G01*
X74292941Y97355952D01*
X74423970Y97268401D01*
X74535401Y97156970D01*
X74622952Y97025941D01*
X74683257Y96880351D01*
X74714000Y96725794D01*
X74714000Y96568206D01*
X74683257Y96413649D01*
X74622952Y96268059D01*
X74535401Y96137030D01*
X74423970Y96025599D01*
X74292941Y95938048D01*
X74147351Y95877743D01*
X73992794Y95847000D01*
X73835206Y95847000D01*
X73680649Y95877743D01*
X73535059Y95938048D01*
X73404030Y96025599D01*
X73292599Y96137030D01*
X73205048Y96268059D01*
X73144743Y96413649D01*
X73114000Y96568206D01*
X73114000Y96725794D01*
X73144743Y96880351D01*
X73205048Y97025941D01*
X73292599Y97156970D01*
X73404030Y97268401D01*
X73535059Y97355952D01*
X73680649Y97416257D01*
X73835206Y97447000D01*
X73992794Y97447000D01*
X74147351Y97416257D01*
X74147351Y97416257D01*
G37*
G36*
X19283351Y97416257D02*
G01*
X19428941Y97355952D01*
X19559970Y97268401D01*
X19671401Y97156970D01*
X19758952Y97025941D01*
X19819257Y96880351D01*
X19850000Y96725794D01*
X19850000Y96568206D01*
X19819257Y96413649D01*
X19758952Y96268059D01*
X19671401Y96137030D01*
X19559970Y96025599D01*
X19428941Y95938048D01*
X19283351Y95877743D01*
X19128794Y95847000D01*
X18971206Y95847000D01*
X18816649Y95877743D01*
X18671059Y95938048D01*
X18540030Y96025599D01*
X18428599Y96137030D01*
X18341048Y96268059D01*
X18280743Y96413649D01*
X18250000Y96568206D01*
X18250000Y96725794D01*
X18280743Y96880351D01*
X18341048Y97025941D01*
X18428599Y97156970D01*
X18540030Y97268401D01*
X18671059Y97355952D01*
X18816649Y97416257D01*
X18971206Y97447000D01*
X19128794Y97447000D01*
X19283351Y97416257D01*
X19283351Y97416257D01*
G37*
G36*
X64046000Y95847000D02*
G01*
X62446000Y95847000D01*
X62446000Y97447000D01*
X64046000Y97447000D01*
X64046000Y95847000D01*
X64046000Y95847000D01*
G37*
G36*
X21823351Y97416257D02*
G01*
X21968941Y97355952D01*
X22099970Y97268401D01*
X22211401Y97156970D01*
X22298952Y97025941D01*
X22359257Y96880351D01*
X22390000Y96725794D01*
X22390000Y96568206D01*
X22359257Y96413649D01*
X22298952Y96268059D01*
X22211401Y96137030D01*
X22099970Y96025599D01*
X21968941Y95938048D01*
X21823351Y95877743D01*
X21668794Y95847000D01*
X21511206Y95847000D01*
X21356649Y95877743D01*
X21211059Y95938048D01*
X21080030Y96025599D01*
X20968599Y96137030D01*
X20881048Y96268059D01*
X20820743Y96413649D01*
X20790000Y96568206D01*
X20790000Y96725794D01*
X20820743Y96880351D01*
X20881048Y97025941D01*
X20968599Y97156970D01*
X21080030Y97268401D01*
X21211059Y97355952D01*
X21356649Y97416257D01*
X21511206Y97447000D01*
X21668794Y97447000D01*
X21823351Y97416257D01*
X21823351Y97416257D01*
G37*
G36*
X60939351Y97416257D02*
G01*
X61084941Y97355952D01*
X61215970Y97268401D01*
X61327401Y97156970D01*
X61414952Y97025941D01*
X61475257Y96880351D01*
X61506000Y96725794D01*
X61506000Y96568206D01*
X61475257Y96413649D01*
X61414952Y96268059D01*
X61327401Y96137030D01*
X61215970Y96025599D01*
X61084941Y95938048D01*
X60939351Y95877743D01*
X60784794Y95847000D01*
X60627206Y95847000D01*
X60472649Y95877743D01*
X60327059Y95938048D01*
X60196030Y96025599D01*
X60084599Y96137030D01*
X59997048Y96268059D01*
X59936743Y96413649D01*
X59906000Y96568206D01*
X59906000Y96725794D01*
X59936743Y96880351D01*
X59997048Y97025941D01*
X60084599Y97156970D01*
X60196030Y97268401D01*
X60327059Y97355952D01*
X60472649Y97416257D01*
X60627206Y97447000D01*
X60784794Y97447000D01*
X60939351Y97416257D01*
X60939351Y97416257D01*
G37*
G36*
X24363351Y97416257D02*
G01*
X24508941Y97355952D01*
X24639970Y97268401D01*
X24751401Y97156970D01*
X24838952Y97025941D01*
X24899257Y96880351D01*
X24930000Y96725794D01*
X24930000Y96568206D01*
X24899257Y96413649D01*
X24838952Y96268059D01*
X24751401Y96137030D01*
X24639970Y96025599D01*
X24508941Y95938048D01*
X24363351Y95877743D01*
X24208794Y95847000D01*
X24051206Y95847000D01*
X23896649Y95877743D01*
X23751059Y95938048D01*
X23620030Y96025599D01*
X23508599Y96137030D01*
X23421048Y96268059D01*
X23360743Y96413649D01*
X23330000Y96568206D01*
X23330000Y96725794D01*
X23360743Y96880351D01*
X23421048Y97025941D01*
X23508599Y97156970D01*
X23620030Y97268401D01*
X23751059Y97355952D01*
X23896649Y97416257D01*
X24051206Y97447000D01*
X24208794Y97447000D01*
X24363351Y97416257D01*
X24363351Y97416257D01*
G37*
G36*
X45758000Y95847000D02*
G01*
X44158000Y95847000D01*
X44158000Y97447000D01*
X45758000Y97447000D01*
X45758000Y95847000D01*
X45758000Y95847000D01*
G37*
G36*
X58399351Y97416257D02*
G01*
X58544941Y97355952D01*
X58675970Y97268401D01*
X58787401Y97156970D01*
X58874952Y97025941D01*
X58935257Y96880351D01*
X58966000Y96725794D01*
X58966000Y96568206D01*
X58935257Y96413649D01*
X58874952Y96268059D01*
X58787401Y96137030D01*
X58675970Y96025599D01*
X58544941Y95938048D01*
X58399351Y95877743D01*
X58244794Y95847000D01*
X58087206Y95847000D01*
X57932649Y95877743D01*
X57787059Y95938048D01*
X57656030Y96025599D01*
X57544599Y96137030D01*
X57457048Y96268059D01*
X57396743Y96413649D01*
X57366000Y96568206D01*
X57366000Y96725794D01*
X57396743Y96880351D01*
X57457048Y97025941D01*
X57544599Y97156970D01*
X57656030Y97268401D01*
X57787059Y97355952D01*
X57932649Y97416257D01*
X58087206Y97447000D01*
X58244794Y97447000D01*
X58399351Y97416257D01*
X58399351Y97416257D01*
G37*
M02*
